<?xml version="1.0" encoding="utf-8"?>
<!-- Generator: Adobe Illustrator 18.0.0, SVG Export Plug-In . SVG Version: 6.00 Build 0)  -->
<!DOCTYPE svg PUBLIC "-//W3C//DTD SVG 1.1 Basic//EN" "http://www.w3.org/Graphics/SVG/1.1/DTD/svg11-basic.dtd">
<svg version="1.1" baseProfile="basic" xmlns="http://www.w3.org/2000/svg" xmlns:xlink="http://www.w3.org/1999/xlink" x="0px"
	 y="0px" viewBox="0 0 1024 768" xml:space="preserve">
<g id="Layer_6">
	<g>
		<path d="M454.037,219.243c-0.796,0.332,0.324,0.136,0.875,0.286c1.172,0.321,2.225,0.906,3.254,1.533
			c1.826,1.113,3.393,2.557,4.628,4.297c2.006,2.826,9.378-0.146,7.079-3.385c-4.139-5.831-12.238-10.143-19.242-7.218
			c-1.396,0.583-2.981,2.425-1.837,3.936C449.999,220.282,452.466,219.898,454.037,219.243L454.037,219.243z"/>
	</g>
	<g>
		<path d="M462.121,200.335c5.613,2.094,8.393,8.715,12.016,13.058c2.325,2.787,9.652-0.347,7.062-3.452
			c-4.503-5.397-7.654-12.331-14.651-14.942C463.149,193.73,457.493,198.607,462.121,200.335L462.121,200.335z"/>
	</g>
	<g>
		<path d="M480.471,190.702c1.258,3.142,2.505,6.294,4,9.333c1.265,2.571,8.778,0.065,7.728-2.07c-1.495-3.04-2.742-6.191-4-9.333
			C487.157,186.029,479.54,188.375,480.471,190.702L480.471,190.702z"/>
	</g>
	<g>
		<path d="M681.995,183.401c-5.439,2.883-10.587,7.66-14.558,12.309c-1.203,1.407,1.021,1.944,2.003,1.933
			c1.764-0.021,3.938-0.632,5.124-2.021c3.293-3.853,7.597-7.965,12.11-10.358c0.933-0.495,2.447-2.009,0.769-2.676
			C685.743,181.914,683.521,182.593,681.995,183.401L681.995,183.401z"/>
	</g>
	<g>
		<path d="M684.074,200.208c3.485-2.88,7.457-5.012,12.061-5.131c1.736-0.045,4.012-0.573,5.113-2.063
			c1.076-1.455-0.907-2.121-2.047-2.092c-7.904,0.205-15.201,3.186-21.273,8.203c-1.236,1.022-0.883,2.27,0.683,2.546
			C680.431,201.992,682.652,201.382,684.074,200.208L684.074,200.208z"/>
	</g>
	<g>
		<path d="M689.991,209.871c3.718-2.236,9.255-1.62,13.434-1.622c1.689-0.001,4.008-0.634,5.131-1.996
			c1.167-1.416-0.996-1.838-1.979-1.837c-7.052,0.003-14.989-0.044-21.232,3.711c-0.834,0.501-2.526,1.933-0.795,2.58
			C686.182,211.318,688.555,210.735,689.991,209.871L689.991,209.871z"/>
	</g>
</g>
<g id="Layer_7">
	<g>
		<path fill="#FF8900" d="M435.778,334c-9.904,3.458-16.763,12.647-21.301,21.741c-5.259,10.539-8.285,24.364,1.123,33.659
			c10.693,10.564,24.913,8.549,35.813-0.048c8.874-6.999,13.234-19.126,14.42-29.942c1.394-12.717-7.565-24.911-20.524-25.602
			c-10.967-0.584-19.991,9.759-24.711,18.432c-5.398,9.919-8.2,22.858-2.688,33.327c6.275,11.918,19.485,17.127,32.267,13.166
			c19.597-6.072,32.665-28.112,23.575-47.41c-8.188-17.384-29.768-19.33-45.48-12.304c-16.838,7.529-27.683,29.451-17.428,46.332
			c1.404,2.312,3.241,4.391,4.966,6.469c0.509,0.602,1.02,1.202,1.531,1.801c2.527,2.969-1.529-2.267,0.671,0.823
			c0.416,0.606,0.794,1.236,1.135,1.89c-0.368-0.657-0.724-4.818-0.715-2.023c-0.002-0.775,1.508-4.384,0.189-2.229
			c1.763-2.878,0.289-0.563-0.446,0.147C410.847,399.3,403.426,405.54,404.5,417c0.777,8.288,5.839,13.075,14,14
			c20.352,2.306,38.185-12.661,42-32.278c1.456-7.483-2.005-15.083-9.778-17.222c-6.925-1.905-15.764,2.283-17.222,9.778
			c-0.268,1.378-0.586,2.714-0.973,4.064c-1.144,3.989,1.174-2.036-0.617,1.575c-0.571,1.151-1.299,2.215-2.026,3.271
			c1.576-2.29-1.567,1.287-2.054,1.713c2.224-1.944-0.847,0.314-1.253,0.541c-3.354,1.878,2.44-0.723-1.274,0.421
			c-0.475,0.146-4.376,0.62-1.352,0.352c-1.817,0.161-3.646-0.01-5.45-0.214c4.667,4.667,9.333,9.333,14,14
			c-0.112-1.195,0.526-4.049-0.243-0.725c-0.22,0.5-0.44,0.999-0.661,1.499c0.806-1.283,0.642-1.146-0.493,0.413
			c1.29-1.573,2.974-2.85,4.533-4.14c4.808-3.983,8.536-8.808,10.158-14.936c1.799-6.799-0.275-14.127-4.263-19.728
			c-1.827-2.566-3.884-4.964-5.92-7.364c-2.499-2.945,1.511,2.266-0.587-0.802c-0.766-1.398-0.779-1.225-0.039,0.52
			c-0.414-1.529-0.435-1.287-0.064,0.728c-0.077-0.997-0.016-1.997,0.047-2.992c-0.241,3.804-0.075,0.992,0.182-0.005
			c0.233-0.902,1.546-3.581-0.096-0.064c0.381-0.816,0.869-1.578,1.353-2.336c1.69-2.648-2.058,2.365,0.036,0.029
			c0.599-0.668,1.272-1.264,1.941-1.859c-2.817,2.504-0.733,0.572,0.052,0.051c0.999-0.663,2.073-1.206,3.15-1.73
			c-3.768,1.834,1.323-0.287,2.56-0.573c3.083-0.713-3.386,0.29-0.266-0.004c0.854-0.081,1.712-0.072,2.569-0.062
			c1.032,0.013,3.853,0.564-0.393-0.145c0.809,0.135,1.596,0.37,2.379,0.605c2.818,0.849-2.982-1.485-0.393-0.136
			c3.292,1.715-1.307-1.367,0.384,0.187c0.768,0.705,2.094,2.873-0.091-0.284c0.517,0.747,1.643,3.412,0.174-0.196
			c0.363,0.891,0.582,1.834,0.803,2.766c-0.809-3.403-0.191-1.151-0.25,0.07c0.181-3.744,0.04-1.047-0.289,0.04
			c-0.97,3.209,1.381-2.686-0.24,0.341c-0.304,0.567-2.318,3.404-0.178,0.639c-0.876,1.132-1.901,2.14-2.935,3.124
			c-2.589,2.462,2.38-1.574-0.524,0.452c-0.859,0.599-1.784,1.093-2.707,1.582c3.05-1.616,0.477-0.214-0.398,0.058
			c-3.174,0.983,3.186-0.114-0.038,0.112c-3.164,0.222,3.149,0.794,0.09,0.122c-2.985-0.656,2.658,1.529-0.011-0.094
			c3.326,2.022-0.543-1.411,1.439,1.35c-1.676-2.334,0.327,2.373-0.549-1.087c0.933,3.686,0.187,1.532,0.17,0.225
			c-0.012-0.914,0.519-3.947-0.118-0.047c0.326-1.996,0.979-3.931,1.689-5.818c-1.276,3.395-0.018,0.233,0.312-0.415
			c0.463-0.909,0.999-1.778,1.534-2.645c0.397-0.643,2.46-3.303,0.099-0.334c0.748-0.941,1.598-1.791,2.472-2.613
			c2.18-2.051-2.649,1.767-0.277,0.288c2.307-1.439-3.254,1.034-0.805,0.379c-2.714,0.726-4.768,0.131-7.23-0.985
			c-0.588-0.48-1.176-0.961-1.765-1.442c0.96,0.988,0.713,0.628-0.74-1.078c1.692,2.472-0.846-2.922-0.059-0.177
			c0.833,2.902-0.194-3.416-0.093-0.244c0.028,0.872-0.422,3.991,0.166,0.116c-0.207,1.365-0.598,2.696-0.999,4.013
			c-0.192,0.633-1.614,3.851-0.173,0.657c-0.596,1.321-1.334,2.571-2.091,3.804c-0.384,0.604-0.788,1.193-1.211,1.77
			c1.12-1.433,1.184-1.569,0.192-0.409c-0.632,0.711-4.036,3.269-0.892,1.042c-0.796,0.564-3.528,1.644,0.095,0.237
			c-3.552,1.379,1.634,0.159-0.548,0.083c2.256,0.364,2.626,0.338,1.108-0.077c1.869,0.817,2.112,0.831,0.731,0.042
			c1.253,0.989,1.456,1.09,0.61,0.306c1.107,1.019,1.876,2.249,2.306,3.691c1.052,3.265,0.184,2.28,0.212,0.56
			c0.126-1.507,0.077-1.165-0.148,1.026c0.132-0.641,0.288-1.275,0.47-1.904c0.19-0.713,1.902-4.924,0.445-1.609
			c0.597-1.358,1.309-2.662,2.029-3.956c0.715-1.286,1.525-2.516,2.348-3.734c0.922-1.271,0.819-1.172-0.311,0.299
			c0.411-0.516,0.834-1.021,1.271-1.516c0.772-0.896,1.625-1.715,2.504-2.504c-1.849,1.352-2.203,1.643-1.065,0.871
			c1.291-0.706,0.711-0.483-1.74,0.668c7.198-2.513,11.905-9.489,9.778-17.222C451.079,336.796,442.987,331.483,435.778,334
			L435.778,334z"/>
	</g>
	<g>
		<path fill="#FF8900" d="M518.819,313.028c6.027,12.631,7.277,27.67,10.879,41.126c2.985,11.151,8.14,22.545,21.634,21.626
			c4.409-0.3,8.706-1.398,13.134-1.667c5.038-0.306,10.076-0.548,15.101-1.046c8.193-0.813,20.021-1.833,25.004-9.514
			c4.725-7.282,2.796-18.082,1.682-26.108c-1.093-7.877-3.32-16.145-3.419-23.199c-0.105-7.465,1.493-20.054-7.704-22.733
			c-7.891-2.299-17.989,2.278-25.622,4.074c-7.031,1.654-14.584,1.842-21.757,2.54c-8.171,0.794-16.326,1.797-24.345,3.589
			c-2.534,0.566-4.478,3.226-4.405,5.786c0.323,11.504,5.305,22.73,8.852,33.53c3.131,9.53,6.216,21.234,13.905,28.212
			c3.146,2.855,9.027,1.996,10.027-2.647c1.952-9.057-1.275-17.91-4.277-26.362c-3.288-9.258-6.267-19.364-6.508-29.233
			c-3.414,1.414-6.828,2.829-10.242,4.243c6.021,6.647,6.603,17.135,8.112,25.556c1.705,9.51,4.449,18.885,11.388,25.944
			c2.866,2.917,9.373,1.962,10.027-2.647c1.258-8.858-1.748-17.874-3.93-26.377c-1.22-4.755-2.4-9.523-3.158-14.377
			c-0.296-1.895-0.311-3.864-0.203-5.774c0.072-1.271,0.27-1.382,0.748-1.825c-3.414-1.414-6.828-2.829-10.242-4.243
			c-0.297,20.351,6.794,38.883,15.319,57.028c2.126,4.526,10.139,3.587,10.966-1.433c3.274-19.863-4.51-38.404-4.785-58.095
			c-3.929,0.532-7.857,1.064-11.785,1.595c0.229,1.634-0.131-1.003,0.053,0.391c0.131,0.988,0.26,1.976,0.391,2.964
			c0.349,2.645,0.707,5.289,1.079,7.93c0.897,6.371,1.914,12.727,3.14,19.043c1.585,8.166,3.549,25.405,14.209,26.636
			c4.982,0.576,8.667-4.393,9.482-8.716c1.063-5.646-0.117-11.561-1.149-17.122c-1.193-6.426-2.765-12.776-3.911-19.212
			c-0.425-2.383-0.712-4.763-0.799-7.183c-0.021-0.562,0.174-3.12,0.067-2.505c0.214-1.231,0.452-1.123-0.033-0.579
			c-3.141-0.405-6.282-0.81-9.423-1.214c1.497,3.088,1.702,7.705,1.953,11.35c0.392,5.664,0.506,11.34,1.071,16.992
			c0.993,9.923,3.452,20.324,13.561,24.416c3.267,1.322,6.289-1.438,7.38-4.19c3.217-8.108,0.096-17.221-1.968-25.222
			c-2.485-9.638-3.971-20.949-2.032-30.778c-2.46,1.396-4.92,2.793-7.38,4.19c-0.699-0.215-0.068-0.17,0.249,0.594
			c0.82,1.973,1.259,4.205,1.527,6.315c0.745,5.858,0.76,11.815,0.927,17.708c0.286,10.071-0.457,24.02,7.149,31.839
			c1.414-3.414,2.828-6.829,4.242-10.243c-11.63,0.491-25.675,1.615-36.505-3.466c-5.753-2.699-9.609-8.985-12.624-14.296
			c-3.721-6.555-6.437-14.178-6.871-21.738c-2.531,1.929-5.064,3.857-7.595,5.786c4.621,1.033,8.04,5.502,11.088,8.839
			c3.5,3.832,7.027,7.639,10.632,11.373c7.529,7.801,16.78,16.068,27.772,18.174c7.841,1.502,14.127-2.527,16.263-10.139
			c1.896-6.751,0.621-14.135,0.84-21.033c0.245-7.743-11.755-7.719-12,0c-0.17,5.353,0.686,10.905-0.079,16.223
			c-0.153,1.062-0.444,2.087-0.792,3.099c-0.143,0.417-0.728,0.385,0.015,0.109c-2.865,1.066-7.474-1.973-9.81-3.327
			c-8.209-4.759-14.337-12.435-20.864-19.142c-5.804-5.965-11.258-13.823-19.875-15.749c-3.606-0.806-7.828,1.716-7.595,5.786
			c0.916,15.947,9.134,35.537,22.752,44.788c12.471,8.471,30.888,7.318,45.248,6.712c5.191-0.219,7.99-6.39,4.242-10.243
			c-1.955-2.01-2.705-7.711-3.059-11.604c-0.585-6.439-0.576-12.927-0.807-19.384c-0.334-9.367-0.121-25.127-11.282-28.555
			c-2.954-0.907-6.76,1.047-7.38,4.19c-2.018,10.226-0.875,20.385,0.735,30.582c1.242,7.865,6.358,17.617,3.265,25.418
			c2.46-1.396,4.92-2.793,7.38-4.19c-2.387-0.966-3.225-4.953-3.776-7.123c-1.129-4.445-1.313-9.108-1.564-13.665
			c-0.486-8.788-0.147-18.356-4.073-26.454c-1.64-3.382-6.971-3.966-9.423-1.214c-6.469,7.258-2.896,19.508-1.166,27.919
			c1.166,5.678,2.496,11.322,3.418,17.048c0.313,1.944,0.456,3.914,0.47,5.881c0.01,1.289,0.034,0.952-0.093,1.627
			c-0.363,1.929,0.403-0.035,0.001,0.365c1.494-1.489,3.737-1.162,5.255,0.066c-0.527-0.426,0.354,0.729-0.487-0.647
			c-0.984-1.61-1.374-3.009-2.037-5.107c-1.679-5.308-2.745-10.821-3.76-16.287c-1.71-9.222-2.803-18.178-4.073-27.218
			c-0.956-6.809-11.878-5.017-11.785,1.595c0.257,18.343,8.243,36.526,5.215,54.905c3.655-0.478,7.311-0.956,10.966-1.433
			c-7.623-16.226-13.945-32.787-13.681-50.972c0.079-5.417-6.505-7.698-10.242-4.243c-6.838,6.321-4.131,17.818-2.409,25.704
			c1.159,5.31,2.638,10.546,3.93,15.824c0.883,3.603,2.348,9.218,1.937,12.119c3.342-0.882,6.685-1.765,10.027-2.647
			c-6.648-6.764-7.674-17.01-9.229-25.928c-1.614-9.264-3.793-18.421-10.271-25.572c-3.521-3.888-10.367-0.854-10.242,4.243
			c0.231,9.469,2.539,19.338,5.502,28.315c2.385,7.223,7.393,16.286,5.713,24.09c3.342-0.882,6.685-1.765,10.027-2.647
			c-6.321-5.737-8.577-16.096-11.146-23.917c-3.066-9.334-7.817-19.412-8.096-29.34c-1.469,1.929-2.937,3.857-4.405,5.786
			c14.346-3.207,29.109-3.568,43.623-5.7c4.076-0.599,8.033-1.889,12.024-2.884c2.227-0.555,4.471-1.029,6.734-1.412
			c0.643-0.109,3.812,0.163,2.607-0.408c-2.094-0.993-1.657-2.558-1.148-0.059c0.165,0.813,0.162,1.688,0.218,2.513
			c0.152,2.275,0.148,4.564,0.164,6.843c0.025,3.465,0.251,6.763,0.804,10.187c1.406,8.696,3.309,17.29,3.735,26.115
			c0.1,2.064,0.045,4.127-0.143,6.183c-0.049,0.535-1.099,2.88-0.455,2.094c-2.025,2.478-6.594,2.946-9.518,3.512
			c-8.479,1.643-17.185,1.306-25.74,2.23c-4.823,0.522-10.356,3.121-14.258-0.743c-3.183-3.151-3.763-10.222-4.957-14.353
			c-3.902-13.504-4.986-27.611-11.104-40.433C525.85,299.99,515.505,306.082,518.819,313.028L518.819,313.028z"/>
	</g>
	<g>
		<path fill="#FF8900" d="M598.785,354.095c0.216-0.861,0.437-1.719,0.683-2.572c0.125-0.433,0.27-0.859,0.415-1.286
			c0.102-0.288,0.21-0.574,0.324-0.857c-0.305,0.718-0.313,0.767-0.026,0.147c1.422-2.945,0.833-6.46-2.152-8.209
			c-2.651-1.553-6.788-0.792-8.209,2.152c-1.16,2.404-1.959,4.854-2.604,7.433c-0.795,3.17,0.984,6.499,4.19,7.381
			C594.501,359.137,597.991,357.267,598.785,354.095L598.785,354.095z"/>
	</g>
</g>
<g id="Layer_3">
	<g>
		<path d="M423.068,429.018c1.113,44.495,65.103,61.505,96.93,38.111c1.634-1.201-2.246-0.809-2.996-0.258
			c-30.652,22.529-89.051,1.814-90.07-38.889C426.911,427.163,423.038,427.81,423.068,429.018L423.068,429.018z"/>
	</g>
	<g>
		<path d="M469.207,349.656c13.098-5.882,27.233-8.849,41.222-4.347c0.964,0.311,4.444-1.198,3.143-1.617
			c-15.752-5.069-31.947-1.352-46.647,5.249C464.583,349.992,468.185,350.114,469.207,349.656L469.207,349.656z"/>
	</g>
	<g>
		<path d="M425.01,393.464c-15.352-9.89-10.638-33.149,1.718-43.242c13.172-10.76,34.018-10.667,43.242,4.917
			c0.779,1.316,4.505-0.021,3.56-1.618c-10.06-16.997-32.34-16.169-47.214-6.32c-15.33,10.151-22.046,36.919-4.326,48.334
			C423.255,396.351,426.742,394.58,425.01,393.464L425.01,393.464z"/>
	</g>
	<g>
		<path d="M423.236,396.548c14.478,1.238,28.956,3.401,40.552-7.306c9.101-8.404,14.919-25.157,9.143-36.76
			c-0.636-1.277-4.388-0.018-3.863,1.035c5.075,10.194,0.837,22.933-5.349,31.667c-9.397,13.266-24.952,10.466-38.956,9.267
			C423.353,394.331,420.633,396.325,423.236,396.548L423.236,396.548z"/>
	</g>
	<g>
		<path d="M431.304,395.279c-7.701-5.89-7.539-22.147-5.561-30.617c3.413-14.62,19.574-19.512,32.809-19.054
			c1.306,0.045,4.166-1.871,1.564-1.961c-13.301-0.46-28.407,3.467-35.726,15.531c-3.409,5.619-3.653,12.335-3.313,18.711
			c0.332,6.203,1.287,14.753,6.619,18.832C428.693,397.482,432.201,395.966,431.304,395.279L431.304,395.279z"/>
	</g>
	<g>
		<path d="M421.354,354.929c5.94-3.809,11.991-6.178,19.071-4.296c4.98,1.324,9.429,4.879,13.035,8.414
			c6.403,6.279,9.645,15.135,12.359,23.47c0.292,0.897,4.125-0.232,3.864-1.035c-4.083-12.541-9.691-23.923-21.668-30.537
			c-9.863-5.446-20.816-1.767-29.617,3.876C416.781,355.857,420.667,355.369,421.354,354.929L421.354,354.929z"/>
	</g>
	<g>
		<path d="M438.77,349.328c-1.587,0.727-2.99,1.211-3.692,2.948c-0.108,0.268,0.133,0.521,0.368,0.595
			c1.852,0.58,3.861,0.744,5.626-0.237c1.529-0.85,2.055-2.26,2.352-3.91c0.115-0.64-0.701-0.697-1.142-0.71
			c-0.977-0.029-9.336,0.09-7.516,2.708c0.467,0.672,1.642,1.009,2.377,1.249c1.224,0.399,2.509,0.665,3.792,0.763
			c1.999,0.154,6.945-0.144,6.544-3.176c-0.194-1.465-1.67-2.876-2.745-3.738c-1.404-1.126-2.976-1.534-4.74-1.128
			c-3.801,0.873-4.318,5.239-3.391,8.441c0.448,1.547,1.512,2.469,3.209,2.121c2.717-0.556,3.752-2.591,4.611-5.029
			c0.052-0.173,0.012-0.322-0.12-0.446c-1.423-1.077-2.681-1.417-4.439-1.017c-1.614,0.367-2.562,1.643-3.646,2.763
			c-0.657,0.679,0.559,0.968,1.001,0.962c0.924-0.011,1.913-0.337,2.563-1.009c0.41-0.423,0.776-0.901,1.216-1.293
			c-0.485,0.111-0.971,0.223-1.456,0.334c0.271,0.096,0.524,0.23,0.756,0.403c0.295,0.194,0.109,0.332-0.002,0.624
			c-0.284,0.748-0.61,1.489-1.102,2.125c-0.274,0.354,0.023,0.055-0.031,0.086c0.605-0.344,1.396-0.51,2.076-0.33
			c-0.08-0.021-0.251-0.143-0.01,0.017c-0.367-0.243-0.452-0.509-0.608-0.891c-0.737-1.802-0.842-4.822,0.26-6.313
			c0.132-0.178,0.224-0.19,0.018-0.069c-0.264,0.155-0.574,0.24-0.874,0.289c0.005-0.001-0.714-0.026-0.335,0.022
			c0.332,0.042,1.126,0.535,1.604,0.918c0.878,0.705,2.411,2.245,2.343,3.347c-0.033,0.531-0.146,0.31,0.346,0.083
			c-0.02,0.009,0.266-0.06,0.184-0.046c-0.104,0.017-0.528,0.054-0.011,0.014c-0.177,0.014-0.355,0.016-0.532,0.017
			c-0.421,0.002-0.752-0.029-1.453-0.137c-0.65-0.1-1.177-0.225-1.659-0.367c-0.553-0.162-1.097-0.362-1.613-0.619
			c-0.231-0.115-0.069-0.004-0.349-0.229c-0.239-0.192-0.117-0.074-0.144-0.16c0.039,0.122-0.392,0.499-0.475,0.546
			c0.021-0.011-0.913,0.332-0.515,0.218c0.278-0.079-0.471,0.072,0.118-0.016c0.797-0.12,2.07-0.097,3.183-0.065
			c-0.381-0.236-0.761-0.473-1.142-0.71c-0.128,0.717-0.253,1.512-0.625,2.152c-0.35,0.601-0.436,0.041,0.795-0.039
			c-0.393,0.026-0.827-0.144-1.192-0.259c0.122,0.198,0.245,0.397,0.368,0.595c0.305-0.755,0.598-0.728,1.308-1.052
			c0.348-0.159,1.698-0.818,1.073-1.394C440.714,348.735,439.395,349.042,438.77,349.328L438.77,349.328z"/>
	</g>
	<g>
		<path d="M408.432,424.482c-0.266-9.553,2.754-27.399,14.022-29.987c2.327-0.534,1.852-2.185-0.444-1.658
			c-13.586,3.12-17.775,20.666-17.441,32.681C404.597,426.54,408.469,425.831,408.432,424.482L408.432,424.482z"/>
	</g>
	<g>
		<path d="M404.538,424.438c0.907,4.804,7.457,4.526,11.178,4.399c5.204-0.178,12.17-0.097,17.01-2.156
			c13.045-5.554,18.209-21.766,25.127-32.938c1.15-1.857-2.792-1.962-3.706-0.486c-5.916,9.553-10.021,21.245-18.877,28.585
			c-4.068,3.371-8.852,3.107-13.784,3.628c-3.021,0.318-12.274,2.23-13.085-2.067C408.053,421.555,404.182,422.553,404.538,424.438
			L404.538,424.438z"/>
	</g>
	<g>
		<path d="M498.149,438.501c-0.397-0.008-0.887-0.177-1.379-0.536c-0.454-0.331-0.914-0.985-1.15-1.542
			c-0.566-1.336-0.662-3.009-0.285-4.327c0.209-0.729,0.479-1.236,0.856-1.697c-0.022,0.026,0.512-0.429,0.28-0.286
			c0.146-0.09,0.303-0.158,0.46-0.226c-0.547,0.237,0.552-0.045,0.007,0.022c1.87-0.229,4.366,1.996,5.8,3.466
			c0.706,0.725,1.74,0.796,2.641,0.35c0.625-0.311,1.59-1.374,0.884-2.098c-2.375-2.436-5.242-4.834-8.839-4.729
			c-2.548,0.074-4.684,1.848-5.623,4.139c-0.839,2.048-0.833,4.56,0.029,6.595c1.08,2.549,3.306,3.813,6.022,3.868
			C500.125,441.545,500.755,438.554,498.149,438.501L498.149,438.501z"/>
	</g>
	<g>
		<path d="M511.806,426.786c-1.57-1.814-2.277-4.421-1.436-6.721c0.12-0.328,0.309-0.711,0.568-0.95
			c0.267-0.245-0.035-0.014-0.372,0.096c-0.539,0.174-0.636-0.009-0.234,0.105c1.416,0.399,2.509,1.789,3.362,2.897
			c0.696,0.903,4.412-0.387,3.611-1.428c-1.232-1.599-2.733-3.097-4.816-3.392c-1.832-0.259-3.844,0.493-5.109,1.814
			c-2.363,2.467-1.137,6.749,0.814,9.006C508.958,429.097,512.637,427.748,511.806,426.786L511.806,426.786z"/>
	</g>
	<g>
		<path d="M510.568,440.018c0.068,3.657,4.561,3.886,7.09,2.595c1.391-0.711,2.654-1.83,2.879-3.459
			c0.263-1.9-0.992-3.64-2.246-4.92c-0.98-1-4.647,0.446-3.582,1.533c0.984,1.006,1.863,2.141,1.977,3.59
			c0.012,0.141-0.029,0.354-0.058,0.518c-0.049,0.266-0.131,0.447-0.172,0.524c-0.057,0.107-0.126,0.208-0.195,0.308
			c-0.224,0.324,0.207-0.202-0.063,0.084c-0.083,0.087-0.175,0.165-0.267,0.243c0.334-0.284,0.039-0.035-0.044,0.018
			c-0.176,0.102-0.137,0.085,0.118-0.051c-0.107,0.055-0.22,0.1-0.332,0.145c0.559-0.223,0.189-0.069,0.048-0.032
			c-0.422,0.109,0.485-0.074,0.057-0.018c-0.201,0.017-0.155,0.017,0.14,0c-0.115,0.004-0.231-0.004-0.345-0.012
			c0.393,0.027-0.217-0.094-0.077-0.037c-0.709-0.285-1.043-1.027-1.063-2.063C514.408,437.704,510.54,438.477,510.568,440.018
			L510.568,440.018z"/>
	</g>
	<g>
		<path d="M523.522,471.565c-2.893-7.038-3.234-22.271,7.885-20.883c6.315,0.788,11.868,3.975,18.396,3.637
			c2.116-0.109,3.04-2.775,0.395-2.639c-8.078,0.418-15.493-5.455-23.618-3.311c-9.997,2.639-10.008,16.719-6.92,24.23
			C520.329,474.23,524.157,473.11,523.522,471.565L523.522,471.565z"/>
	</g>
	<g>
		<path d="M612.438,441.281c0.56-3.909,1.102-7.838,2.269-11.621c0.657-2.131,2.156-5.621,4.51-6.432
			c1.826-0.629,3.435,1.819,4.063,3.143c1.287,2.711,1.191,5.948,0.87,8.848c-0.186,1.668,3.719,0.975,3.875-0.438
			c0.63-5.662-0.585-15.057-8.413-13.869c-9.022,1.368-10.058,13.877-11.049,20.807
			C608.326,443.363,612.235,442.697,612.438,441.281L612.438,441.281z"/>
	</g>
	<g>
		<path d="M624.065,431.258c0.549,15.657-6.723,26.679-20.633,33.429c-11.884,5.767-25.106,8.129-37.302,13.122
			c-2.447,1.002-0.285,3.211,1.738,2.383c13.479-5.52,28.127-7.964,40.986-15.023c13.113-7.2,19.654-19.279,19.132-34.176
			C627.914,428.903,624.002,429.458,624.065,431.258L624.065,431.258z"/>
	</g>
	<g>
		<path d="M541.942,452.86c8.326,2.227,16.777,3.411,25.4,2.852c6.017-0.389,12.147-1.975,17.993-3.406
			c9.528-2.333,24.383-6.115,28.085-16.588c0.387-1.094-3.432-0.598-3.842,0.563c-3.273,9.26-16.276,12.257-24.682,14.389
			c-13.468,3.418-26.256,4.105-39.84,0.47C544.003,450.857,540.537,452.484,541.942,452.86L541.942,452.86z"/>
	</g>
	<g>
		<path d="M518.872,470.052c1.269,5.416,4.894,6.468,9.155,9.354c4.786,3.241,8.722,7.57,12.067,12.244
			c6.548,9.15,9.976,20.264,12.687,31.055c1.358,5.407,2.763,10.948,3.514,16.473c0.992,7.303-0.138,15.27-0.081,22.649
			c0.116,14.932-3.447,29.68-5.657,44.368c-0.264,1.758,3.659,1.141,3.889-0.387c2.221-14.758,5.491-29.383,5.657-44.368
			c0.078-7.057,0.483-14.224,0.208-21.272c-0.206-5.287-1.822-10.662-3.016-15.799c-2.403-10.343-5.572-20.515-10.783-29.813
			c-2.627-4.688-5.981-8.908-9.841-12.635c-4.363-4.212-12.508-6.813-13.935-12.902
			C522.366,467.439,518.496,468.448,518.872,470.052L518.872,470.052z"/>
	</g>
	<g>
		<path d="M550.568,606.518c0.26,12.978,18.154,2.443,22.921-1.749c5.69-5.005,10.933-9.823,17.441-13.83
			c6.728-4.142,14.047-7.298,21.566-9.686c27.838-8.839,59.065-4.781,83.369,11.461c1.078,0.721,4.644-0.846,3.066-1.901
			c-21.661-14.476-48.216-19.083-73.738-14.739c-12.482,2.125-24.468,6.613-35.425,12.919c-5.579,3.211-11.254,7.067-15.797,11.651
			c-3.696,3.729-19.3,16.829-19.54,4.837C554.406,604.217,550.537,604.987,550.568,606.518L550.568,606.518z"/>
	</g>
	<g>
		<path d="M703.095,588.839c-0.962-24.449-20.447-42.454-34.507-60.597c-8.681-11.202-16.881-22.759-26.138-33.506
			c-7.86-9.125-16.553-18.964-27.447-24.477c-1.378-0.697-4.831,1.196-3.008,2.119c10.744,5.437,19.08,15.066,26.902,24.001
			c8.538,9.753,16.095,20.322,23.933,30.631c14.094,18.537,35.387,37.316,36.365,62.181
			C699.272,591.111,703.157,590.411,703.095,588.839L703.095,588.839z"/>
	</g>
	<g>
		<path d="M643.932,444.482c-0.826-4.244-2.046-8.414-1.794-12.782c0.147-2.557,2.203-6.205,5.219-4.536
			c1.482,0.82,2.244,2.761,2.79,4.244c2.474,6.728,2.18,16.818-1.011,23.293c-0.976,1.981,2.937,1.993,3.697,0.451
			c3.703-7.518,5.21-24.542-2.501-30.228c-3.318-2.447-9.216-0.452-10.951,3.069c-2.69,5.458-0.4,11.936,0.688,17.523
			C640.42,447.322,644.291,446.325,643.932,444.482L643.932,444.482z"/>
	</g>
	<g>
		<path d="M611.364,472.226c16.404,5.321,43.467-7.612,44.085-26.401c0.063-1.905-3.846-1.25-3.898,0.352
			c-0.534,16.23-23.385,28.311-37.915,23.599C612.113,469.28,609.077,471.483,611.364,472.226L611.364,472.226z"/>
	</g>
	<g>
		<path d="M618.281,456.916c9.817,0.835,20.965-3.657,25.637-12.708c0.437-0.847-3.275-0.503-3.836,0.584
			c-3.597,6.968-11.646,10.948-19.363,10.292C619.718,454.999,616.222,456.741,618.281,456.916L618.281,456.916z"/>
	</g>
	<g>
		<path d="M695.551,591.724c1.456,0.575,3.167,1.289,4.703,0.611c1.669-0.736,1.556-3.381,1.496-4.835
			c-0.034-0.838-1.238-1.031-1.474-0.199c-0.396,1.398-0.752,3.358-2.526,3.449c-0.354,0.018-0.606,0.22-0.724,0.551
			c-0.19,0.535,0.068,0.688,0.25,1.148c0.308-0.308,0.615-0.615,0.923-0.923c-0.203-0.035-0.383-0.085-0.57-0.174
			c-0.865-0.412-1.627,0.861-0.758,1.295c1.54,0.768,3.635,1.141,5.034-0.148c1.444-1.33,1.25-3.232,0.492-4.878
			c-0.404-0.877-1.697-0.114-1.295,0.758c0.462,1.001,0.71,2.327-0.302,3.09c-0.929,0.699-2.236,0.35-3.172-0.116
			c-0.253,0.432-0.505,0.863-0.758,1.295c0.302,0.143,0.601,0.267,0.93,0.326c0.497,0.087,1.154-0.337,0.923-0.923
			c-0.048-0.123-0.098-0.246-0.15-0.367c-0.155-0.257-0.188-0.251-0.1,0.016c-0.241,0.184-0.482,0.367-0.724,0.551
			c2.602-0.133,3.359-2.382,3.974-4.551c-0.491-0.066-0.982-0.133-1.474-0.199c0.04,0.97,0.287,2.954-0.754,3.54
			c-0.907,0.511-2.723-0.438-3.547-0.764C695.049,589.921,694.662,591.372,695.551,591.724L695.551,591.724z"/>
	</g>
	<g>
		<path d="M695.526,591.199c0.591,1.471,1.907,2.328,3.493,1.831c1.702-0.533,2.563-2.351,2.481-4.03
			c-0.047-0.963-1.547-0.967-1.5,0c0.048,0.984-0.251,1.916-1.12,2.457c-0.764,0.477-1.581,0.155-1.906-0.656
			C696.617,589.915,695.166,590.301,695.526,591.199L695.526,591.199z"/>
	</g>
	<g>
		<path d="M696.25,591.5c1.529,0.202,3.104-0.12,4.122-1.358c1.002-1.22,1.073-2.848,0.852-4.341
			c-0.143-0.954-1.588-0.547-1.447,0.398c0.152,1.024,0.098,2.197-0.588,3.032c-0.719,0.875-1.907,0.904-2.938,0.769
			C695.293,589.874,695.306,591.375,696.25,591.5L696.25,591.5z"/>
	</g>
</g>
<g id="Layer_5">
	<g>
		<path d="M482.231,267.167c-2.592-1.33-3.219-5.728-3.368-8.271c-0.236-4.042,2.266-7.898,4.655-10.889
			c5.122-6.413,12.852-10.722,19.974-14.491c8.094-4.284,16.608-8.25,25.393-10.872c7.991-2.386,16.259-3.754,24.32-5.877
			c2.285-0.602,1.871-2.132-0.41-1.531c-9.384,2.471-19.063,3.961-28.264,7.102c-9.645,3.292-19.123,7.909-27.987,12.918
			c-7.276,4.111-14.552,9.208-19.074,16.385c-2.854,4.53-4.255,14.174,1.632,17.194
			C480.037,269.314,483.611,267.875,482.231,267.167L482.231,267.167z"/>
	</g>
	<g>
		<path d="M476.068,265.018c2.009,6.488,6.714,11.306,10.835,16.52c5.03,6.364,8.946,13.868,12.689,21.031
			c8.236,15.765,14.105,32.603,19.888,49.382c5.795,16.813,11.23,33.621,15.996,50.758c2.293,8.243,4.751,16.425,6.476,24.81
			c1.775,8.637,3.216,17.31,6.116,25.665c0.64,1.844,4.492,0.776,3.863-1.035c-2.702-7.786-4.185-15.859-5.768-23.928
			c-1.642-8.366-4.028-16.501-6.311-24.708c-4.771-17.148-10.109-33.993-15.897-50.822c-5.484-15.946-10.982-31.971-18.439-47.125
			c-3.612-7.341-7.576-14.49-12.046-21.344c-4.39-6.73-11.113-12.411-13.539-20.24C479.356,262.123,475.497,263.175,476.068,265.018
			L476.068,265.018z"/>
	</g>
	<g>
		<path d="M551.037,216.948c21.065-2.508,42.445-4.699,63.664-3.063c10.258,0.791,20.44,2.425,30.633,3.781
			c4.183,0.557,8.36,1.063,12.568,1.362c3.979,0.283,7.921,0.825,10.629,4.029c0.773,0.915,4.466-0.427,3.605-1.445
			c-4.704-5.566-13.947-4.572-20.506-5.369c-11.513-1.399-22.956-3.279-34.517-4.278c-21.769-1.88-43.868,0.515-65.483,3.088
			C549.858,215.264,548.343,217.269,551.037,216.948L551.037,216.948z"/>
	</g>
	<g>
		<path d="M649.274,425.458c2.58-8.838,6.81-17.117,9.922-25.776c3.318-9.232,5.863-18.733,8.014-28.299
			c4.239-18.857,6.833-38.22,8.975-57.415c2.162-19.377,3.077-38.774,3.09-58.263c0.008-12.091,0.648-27.764-8.823-36.827
			c-1.08-1.033-4.736,0.464-3.57,1.579c9.86,9.435,8.428,26.186,8.526,38.636c0.152,19.109-1.198,38.217-3.317,57.199
			c-2.073,18.58-4.78,37.236-8.763,55.508c-1.959,8.99-4.45,17.857-7.408,26.567c-3.159,9.303-7.772,18.071-10.526,27.509
			C644.941,427.424,648.855,426.894,649.274,425.458L649.274,425.458z"/>
	</g>
	<g>
		<path d="M601.735,248.852c9.221,28.106,12.073,57.507,12.821,86.94c0.381,14.991,0.207,29.992,0.177,44.985
			c-0.029,14.567,1.973,29.46-1.17,43.822c-0.34,1.552,3.568,0.945,3.873-0.447c3.141-14.353,1.151-29.274,1.171-43.822
			c0.019-14.565,0.145-29.129-0.145-43.693c-0.596-30.036-3.455-60.143-12.863-88.82
			C605.126,246.375,601.28,247.465,601.735,248.852L601.735,248.852z"/>
	</g>
	<g>
		<path d="M601.068,247.852c1.299,5.397,5.081,9.979,8.278,14.382c4.288,5.905,7.387,11.979,10.477,18.585
			c7.318,15.646,13.644,31.604,17.33,48.519c3.643,16.709,4.84,33.868,5.327,50.925c0.236,8.252,0.248,16.51,0.254,24.765
			c0.003,4.2,0.068,8.38,0.31,12.574c0.165,2.855,0.03,5.247,1.666,7.639c1.288-0.345,2.576-0.689,3.864-1.035
			c-0.085-0.116-0.169-0.232-0.254-0.348c-0.729-1.001-4.229,0.533-3.863,1.035c0.084,0.116,0.169,0.232,0.253,0.348
			c0.709,0.974,4.242-0.482,3.864-1.035c-3.137-4.585-1.976-12.927-1.976-18.302c0-8.893-0.031-17.785-0.254-26.676
			c-0.428-17.095-1.846-34.163-5.327-50.925c-3.517-16.929-10.081-32.891-17.33-48.519c-2.848-6.139-5.684-11.917-9.632-17.419
			c-3.436-4.788-7.714-9.692-9.124-15.548C604.704,245.87,600.83,246.862,601.068,247.852L601.068,247.852z"/>
	</g>
	<g>
		<path d="M667.746,221.284c-1.441,3.583-0.502,7.65-0.031,11.362c0.629,4.958,1.155,9.866,1.021,14.872
			c-0.275,10.22-1.993,20.387-3.989,30.391c-3.958,19.845-9.292,39.414-13.571,59.194c-4.167,19.267-8.455,38.54-15.388,57.037
			c-2.226,5.936-4.816,11.73-7.099,17.646c-1.934,5.012-4.436,10.597-4.575,16.051c-0.024,0.939,3.829,0.314,3.863-1.035
			c0.145-5.643,3.009-11.58,5.005-16.753c2.354-6.1,4.998-12.079,7.294-18.202c6.922-18.468,10.973-37.893,15.133-57.121
			c4.149-19.183,9.233-38.159,13.18-57.384c1.954-9.522,3.398-19.146,3.928-28.857c0.242-4.44,0.009-8.798-0.48-13.213
			c-0.504-4.548-2.213-10.167-0.447-14.555C672,219.691,668.207,220.14,667.746,221.284L667.746,221.284z"/>
	</g>
	<g>
		<path d="M478.838,262.294c-1.424,0.809-2.184,1.136-2.121,2.88c0.034,0.935,0.919,1.218,1.751,1.141
			c4.717-0.439,8.757-2.928,13.358-3.932c5.705-1.246,11.608-2.012,17.378-2.897c11.193-1.717,22.458-2.978,33.636-4.781
			c11.224-1.81,22.599-3.05,33.939-3.837c8.763-0.608,19.979,0.872,28.05-3.161c2.372-1.185,0.23-3.023-1.658-2.079
			c-3.968,1.983-9.481,1.804-13.848,2.058c-5.23,0.304-10.465,0.385-15.688,0.828c-10.793,0.914-21.561,2.138-32.255,3.862
			c-10.556,1.702-21.204,2.883-31.779,4.481c-5.397,0.816-10.77,1.764-16.153,2.663c-4.97,0.83-9.655,3.707-14.583,4.166
			c0.584,0.38,1.168,0.76,1.752,1.141c-0.04-0.151-0.081-0.302-0.121-0.453C482.786,263.073,480.691,261.241,478.838,262.294
			L478.838,262.294z"/>
	</g>
	<g>
		<path d="M602.612,248.707c4.753-1.217,8.155-4.602,12.271-7.07c5.896-3.537,12.055-6.837,18.29-9.729
			c6.908-3.203,14.03-5.926,21.582-7.101c5.425-0.843,10.862,0.254,16.19-1.434c2.281-0.722,1.762-2.813-0.557-2.079
			c-5.407,1.713-11.382,0.648-16.97,1.517c-5.817,0.905-11.42,2.96-16.84,5.192c-5.65,2.327-11.07,5.11-16.416,8.059
			c-2.991,1.649-6.006,3.279-8.935,5.036c-3.114,1.868-5.523,4.595-9.173,5.53C599.712,247.228,600.278,249.305,602.612,248.707
			L602.612,248.707z"/>
	</g>
	<g>
		<path d="M518.823,311.249c12.667-2.868,25.636-4.195,38.407-6.503c13.749-2.485,26.966-7.277,40.929-8.648
			c0.944-0.092,4.273-1.619,1.682-1.526c-1.229,0.044-2.136,0.217-3.33,0.515c-2.264,0.566-1.939,1.726,0.313,1.163
			c0.445-0.051,0.891-0.101,1.336-0.152c0.56-0.509,1.121-1.018,1.682-1.526c-14.277,1.401-27.86,6.036-41.884,8.778
			c-13.097,2.561-26.416,3.787-39.446,6.737C516.229,310.603,516.569,311.759,518.823,311.249L518.823,311.249z"/>
	</g>
	<g>
		<path d="M597.402,296.185c5.374,16.525,4.664,34.945,4.664,52.116c0,2.961-0.003,5.853,0.29,8.797
			c0.475,4.776-7.189,5.183-10.66,5.854c-8.712,1.686-17.614,1.951-26.319,3.729c-6.996,1.429-20.988,7.288-26.497,0.74
			c-1.993-2.37-2.643-6.047-3.472-8.938c-1.2-4.182-2.738-8.261-3.995-12.428c-2.359-7.819-4.296-15.868-5.602-23.933
			c-0.613-3.792-1.047-10.716-5.278-12.405c-1.187-0.474-4.703,1.244-3.066,1.897c4.737,1.891,4.739,13.378,5.647,17.71
			c2.16,10.308,5.474,20.118,8.43,30.192c1.641,5.591,3.023,11.205,9.32,12.767c3.792,0.941,8.299-0.188,12.022-0.839
			c5.393-0.943,10.692-2.359,16.071-3.378c9.772-1.852,19.732-1.894,29.374-4.571c5.054-1.403,8.346-2.83,7.795-8.376
			c-0.958-9.633-0.193-19.625-0.525-29.318c-0.352-10.311-1.128-20.788-4.337-30.653
			C600.813,293.758,596.968,294.849,597.402,296.185L597.402,296.185z"/>
	</g>
	<g>
		<path d="M542.172,321.092c1.382,1.052,1.581,4.914,1.881,6.454c0.495,2.539,0.831,5.106,1.35,7.64
			c1.912,9.344,2.395,18.966,4.333,28.333c1.288-0.345,2.575-0.69,3.863-1.035c-0.423-1.343-0.91-2.657-1.333-4
			c-0.542-1.723-4.397-0.661-3.863,1.035c0.422,1.343,0.91,2.657,1.333,4c0.54,1.717,4.227,0.724,3.863-1.035
			c-2.034-9.831-2.788-19.837-4.596-29.694c-0.683-3.723-0.535-11.363-3.841-13.879
			C543.848,317.908,540.432,319.768,542.172,321.092L542.172,321.092z"/>
	</g>
	<g>
		<path d="M543.988,325.21c-6.932-0.737-15.013,8.36-9.168,14.348c5.008,5.13,14.51,3.446,20.383,1.144
			c5.736-2.247,10.486-9.423,4.679-14.526c-5.465-4.801-14.477-4.013-20.919-1.893c-2.335,0.768-1.631,3.553,0.742,2.772
			c3.849-1.267,7.868-1.676,11.884-1.097c4.623,0.666,9.254,5.297,5.729,9.833c-2.384,3.069-7.675,3.87-11.267,4.079
			c-2.951,0.172-6.308-0.618-8.419-2.78c-2.96-3.033,1.315-9.359,5.047-8.963C544.643,328.334,546.598,325.487,543.988,325.21
			L543.988,325.21z"/>
	</g>
	<g>
		<path d="M564.735,317.852c1.198,7.386,2.935,14.775,4.76,22.03c1.175,4.673,2.45,9.792,2.371,14.659
			c1.287-0.345,2.575-0.69,3.863-1.035c-0.111-0.21-0.154-0.439-0.131-0.689c-0.175-1.199-4.06-0.315-3.863,1.035
			c-0.025,0.251,0.019,0.48,0.131,0.689c0.597,1.252,3.842,0.267,3.863-1.035c0.07-4.297-0.983-8.845-1.956-12.986
			c-1.846-7.86-3.881-15.728-5.175-23.704C568.402,315.607,564.518,316.513,564.735,317.852L564.735,317.852z"/>
	</g>
	<g>
		<path d="M567.568,324.043c6.06-4.121,22.007-1.364,16.041,8.279c-3.45,5.578-11.053,8.488-16.51,11.638
			c-2.266,1.307,1.064,2.227,2.469,1.417c5.944-3.431,19.724-8.92,19.205-17.535c-0.651-10.819-17.363-9.508-23.674-5.216
			C562.928,324.103,566.196,324.976,567.568,324.043L567.568,324.043z"/>
	</g>
	<g>
		<path d="M624,448c6.568,0.124,14.753,2.497,19.295-3.743c1.141-1.567-1.464-3.061-2.59-1.514
			c-3.515,4.828-11.69,2.352-16.705,2.257C622.065,444.964,622.068,447.964,624,448L624,448z"/>
	</g>
	<g>
		<path d="M483.446,271.601c-0.955-2.421-1.029-6.151,1.953-7.155c1.823-0.614,1.041-3.512-0.798-2.893
			c-4.524,1.523-5.667,6.737-4.047,10.845C481.255,274.177,484.157,273.403,483.446,271.601L483.446,271.601z"/>
	</g>
	<g>
		<path d="M475.75,256.5c-1.158,9.715,9.512,7.691,15.652,6.213c1.88-0.453,1.083-3.345-0.798-2.893
			c-3.013,0.725-6.105,1.476-9.226,1.255c-2.688-0.19-2.894-2.35-2.628-4.576C478.978,254.581,475.976,254.604,475.75,256.5
			L475.75,256.5z"/>
	</g>
	<g>
		<path d="M417.47,391.697c2.032,1.883,3.849,3.704,6.498,4.693c0.908,0.339,1.296-1.111,0.398-1.447
			c-2.378-0.888-4.016-2.621-5.835-4.307C417.822,389.98,416.759,391.039,417.47,391.697L417.47,391.697z"/>
	</g>
	<g>
		<path d="M417.352,391.712c1.508,2.135,3.388,4.393,6.148,4.705c0.96,0.108,0.95-1.393,0-1.5c-2.13-0.241-3.708-2.343-4.853-3.963
			C418.094,390.171,416.793,390.92,417.352,391.712L417.352,391.712z"/>
	</g>
</g>
</svg>
