<?xml version="1.0" encoding="utf-8"?>
<!-- Generator: Adobe Illustrator 18.0.0, SVG Export Plug-In . SVG Version: 6.00 Build 0)  -->
<!DOCTYPE svg PUBLIC "-//W3C//DTD SVG 1.1 Basic//EN" "http://www.w3.org/Graphics/SVG/1.1/DTD/svg11-basic.dtd">
<svg version="1.1" baseProfile="basic" xmlns="http://www.w3.org/2000/svg" xmlns:xlink="http://www.w3.org/1999/xlink" x="0px"
	 y="0px" viewBox="0 0 1024 768" xml:space="preserve">
<g id="Layer_1" display="none">
</g>
<g id="Layer_2" display="none">
	<g display="inline">
		<path d="M403.961,186.037c-45.884-7.881-91.592,23.106-120.875,55.496c-33.53,37.086-47.502,87.975-40.177,137.219
			c7.714,51.861,38.831,99.134,79.556,131.304c20.009,15.806,43.027,27.48,67.47,34.66c25.863,7.598,53.34,9.148,80.158,8.374
			c53.53-1.546,109.657-16.215,153.354-48.074c36.607-26.69,60.539-66.527,64.764-111.8c4.533-48.573-13.109-97.779-44.841-134.345
			c-32.726-37.71-80.431-60.969-128.117-73.36c-33.064-8.591-69.183-11.93-102.386-2.249c-0.843,0.246-4.824,1.314-4.414,2.845
			c0.404,1.507,4.405,0.501,5.245,0.256c24.79-7.228,51.369-5.583,76.472-0.892c25.851,4.831,51.082,13.53,74.689,25.066
			c45.028,22.004,82.51,56.904,101.402,103.953c17.568,43.752,17.922,94.599-3.905,136.862
			c-23.685,45.86-70.278,73.795-118.65,87.417c-27.665,7.791-56.581,10.933-85.277,10.406c-27.641-0.507-54.842-4.688-80.519-15.218
			c-49.008-20.098-88.912-61.056-110.734-108.975c-22.286-48.939-21.852-104.642,2.436-152.725
			c10.316-20.423,26.784-38.012,44.281-52.48c18.238-15.081,40.662-28.327,64.642-30.641c5.837-0.563,11.731-0.291,17.505,0.701
			c2.244,0.385,4.733-0.242,6.757-1.214C403.485,188.293,406.212,186.424,403.961,186.037L403.961,186.037z"/>
	</g>
	<g display="inline">
		<path d="M457.565,344.39c-12.72-4.33-23.407,5.956-27.749,16.95c-4.833,12.236-5.034,27.63,2.9,38.638
			c9.077,12.594,28.416,12.863,41.62,7.746c11.554-4.477,16.826-15.52,15.847-27.379c-1.031-12.488-8.72-24.866-19.213-31.59
			c-12.81-8.208-28.167-4.217-38.985,5.278c-1.649,1.447-0.865,3.479,1.076,4.016c2.394,0.662,5.023-0.244,6.83-1.83
			c20.631-18.108,43.233,12.842,40.438,33.118c-1.828,13.255-15.041,17.083-26.775,14.459
			c-14.611-3.267-18.576-19.561-16.899-32.519c0.79-6.101,2.847-12.049,6.396-17.096c2.638-3.752,4.964-5.237,8.761-3.944
			C455.363,351.445,463.18,346.301,457.565,344.39L457.565,344.39z"/>
	</g>
</g>
<g id="Layer_4">
	<g>
		<path d="M422.399,220.578c-40.15,0.188-76.643,17.649-103.444,47.299c-26.854,29.709-42.885,68.457-50.119,107.507
			c-6.854,37-6.202,77.327,8.118,112.538c13.197,32.451,37.471,58.962,66.201,78.495c59.564,40.497,140.133,53.044,209.316,33.449
			c83.345-23.607,149.893-107.817,144.743-195.72c-2.885-49.24-29.689-92.045-65.405-124.567
			c-34.738-31.631-78.274-54.628-124.338-64.203c-34.038-7.075-69.533-5.894-102.367,5.924c-1.435,0.516-3.931,2.586-2.47,4.276
			c1.546,1.787,4.612,0.986,6.454,0.323c44.326-15.955,93.699-8.935,136.402,8.689c43.322,17.88,82.718,47.508,110.374,85.479
			c30.051,41.259,39.33,93.607,25.174,142.614c-7.126,24.67-20.082,47.59-36.208,67.475c-13.31,16.413-29.029,31.641-46.794,43.188
			c-60.339,39.218-142.847,36.539-207.368,9.566c-32.747-13.69-62.718-34.744-84.302-63.142
			c-22.503-29.607-31.901-65.357-31.872-102.195c0.058-74.834,37.587-168.841,117.732-187.941
			c8.675-2.067,17.659-2.971,26.567-3.012c2.248-0.01,5.088-0.655,6.344-2.754C426.298,221.923,424.157,220.57,422.399,220.578
			L422.399,220.578z"/>
	</g>
</g>
<g id="Layer_5">
	<g>
		<path d="M429.437,391.092c-7.662,11.632-6.96,29.637,2.892,39.825c10.634,10.996,33.169,4.809,41.703-6.013
			c8.469-10.739-0.841-24.401-9.836-31.155c-11.278-8.469-27.55-9.529-38.941-0.625c-4.009,3.134,5.652,2.057,7.487,0.623
			c7.856-6.141,18.742,0.09,25.186,5.681c6.912,5.997,12.773,16.293,7.793,25.198c-2.617,4.679-9.075,7.742-14.284,7.572
			c-5.962-0.195-10.732-4.487-13.573-9.403c-5.726-9.911-5.109-23.8,1.133-33.276c1.068-1.622-3.564-1.292-3.945-1.23
			C433.075,388.614,430.6,389.325,429.437,391.092L429.437,391.092z"/>
	</g>
	<g>
		<path d="M467.214,394.891c0.366-6.293,4.078-12.852,6.502-18.552c3.691-8.678,7.16-17.461,10.385-26.323
			c7.311-20.089,11.886-40.761,11.294-62.224c-0.085-3.098-7.663-0.478-8.685,0.567c-7.426,7.597-13.449,16.408-20.87,24
			c2.78,0.26,5.56,0.521,8.339,0.781c6.59-9.597,15.265-17.415,22.956-26.087c-3.105,0.413-6.209,0.826-9.314,1.24
			c4.443,12.22,8.897,25.428,18.077,35.006c2.274,2.372,11.437-1.171,8.983-3.73c-8.885-9.269-13.1-22.035-17.401-33.864
			c-1.238-3.405-7.832-0.431-9.314,1.24c-7.692,8.673-16.364,16.486-22.956,26.087c-2.549,3.712,6.763,2.394,8.339,0.781
			c7.426-7.597,13.449-16.408,20.87-24c-2.895,0.189-5.79,0.378-8.685,0.567c0.58,21.026-4.235,41.216-11.28,60.897
			c-3.177,8.875-6.695,17.649-10.385,26.323c-2.424,5.699-6.136,12.259-6.502,18.552
			C457.346,399.993,467.033,398.002,467.214,394.891L467.214,394.891z"/>
	</g>
	<g>
		<path d="M465.196,432.835c34.521,36.463,75.068,66.262,118.541,91.179c1.529-1.567,3.057-3.135,4.586-4.702
			c-18.557,2.944-38.193-4.85-55.276-11.237c-2.459-0.919-11.72,2.532-7.744,4.462c19.211,9.321,40.652,9.609,60.522,16.695
			c2.581-1.487,5.163-2.974,7.744-4.462c-11.788-3.701-19.627-20.093-18.884-31.821c0.232-3.67-9.44-1.653-9.628,1.323
			c-0.83,13.121,7.466,30.783,20.769,34.96c2.238,0.703,4.813,0.179,6.82-0.979c1.091-0.629,3.127-2.697,0.924-3.482
			c-19.858-7.081-41.358-7.396-60.522-16.695c-2.581,1.487-5.163,2.974-7.744,4.462c19.276,7.207,40.701,15.032,61.592,11.718
			c1.469-0.233,8.113-2.68,4.586-4.702c-43.043-24.671-83.112-54.291-117.285-90.386
			C472.023,426.872,462.869,430.377,465.196,432.835L465.196,432.835z"/>
	</g>
</g>
<g id="Layer_6">
	<g>
		<path fill="#FF8900" d="M334.696,492.109c-14.6-12.312-19.63-33.429-22.419-51.469c-2.981-19.276-3.365-39.801,0.799-58.936
			c9.693-44.542,37.411-91.588,82.124-107.72c51.466-18.568,111.4-11.145,157.06,18.541c20.466,13.306,38.875,30.551,51.664,51.466
			c14.291,23.372,18.638,49.866,20.871,76.765c2.384,28.722,1.647,60.454-9.553,87.458c-8.019,19.336-24.546,31.127-43.372,38.744
			c-9.839,3.981-20.008,7.055-30.125,10.229c-10.818,3.394-21.31,6.313-32.708,6.79c-22.46,0.941-44.766-6.296-63.702-18.09
			c-28.419-17.7-49.816-45.717-61.065-77.077c-6.097-16.997-8.957-35.436-8.748-53.468c0.224-19.332,6.567-38.037,16.359-54.561
			c3.954-6.673-9.938-3.9-12.482-2.949c-5.783,2.162-11.905,3.265-17.726,5.356c-6.832,2.455-12.691,6.701-17.554,12.027
			c-2.227,2.439,0.516,4.138,2.808,4.439c4.203,0.552,10.46-0.675,13.66-3.66c8.837-8.244,17.808-16.924,29.347-21.163
			c-4.42-0.193-8.84-0.386-13.26-0.578c0.042,9.295,0.706,19.119,7.296,26.303c3.963,4.32,22.24-2.559,18.059-7.117
			c-5.849-6.376-6-16.185-6.037-24.363c-0.02-4.375-11.665-1.164-13.26-0.578c-14.583,5.358-26.114,15.049-37.32,25.503
			c5.49,0.26,10.979,0.519,16.469,0.779c6.499-7.119,15.714-7.25,24.72-10.616c-4.161-0.983-8.321-1.966-12.482-2.949
			c-6.852,11.563-12.371,23.584-15.381,36.731c-2.915,12.731-3.042,26.014-1.817,38.96c2.265,23.934,9.943,46.755,22.555,67.213
			c24.57,39.856,66.062,67.268,113.295,69.362c24.86,1.102,48.347-7.137,71.586-14.855c20.538-6.82,41.002-15.699,56.161-31.627
			c17.914-18.823,22.365-46.755,24.032-71.657c1.009-15.083,0.496-30.217-0.92-45.256c-1.322-14.04-3.159-28.255-7.193-41.8
			c-14.408-48.368-57.882-84.956-103.986-102.059c-26.219-9.726-54.722-13.044-82.543-11.228
			c-27.713,1.809-56.878,7.966-81.352,21.492c-40.417,22.338-67.691,68.006-75.604,112.807c-3.413,19.323-2.719,39.766,0.413,59.065
			c2.917,17.969,8.803,38.655,23.275,50.859C321.283,503.143,338.988,495.728,334.696,492.109L334.696,492.109z"/>
	</g>
</g>
<g id="Layer_7">
</g>
<g id="Layer_3" display="none">
	<g display="inline">
		<path d="M314.914,280.816c17.966-38.825,66.314-48.329,104.727-51.507c20.817-1.722,41.953-2.236,62.361,2.814
			c21.921,5.425,42.04,16.941,58.595,32.189c63.773,58.736,64.678,179.938-16.454,223.939
			c-44.795,24.294-102.886,17.89-141.485-14.899c-37.836-32.141-49.072-89.672-26.153-133.776
			c13.857-26.667,45.594-48.857,75.657-34.389c2.845-1.152,5.69-2.305,8.535-3.457c-9.634-1.045-18.163-6.388-27.346-9.143
			c-10.407-3.122-21.305-3.438-32.08-3.442c-2.098,1.278-4.195,2.556-6.293,3.834c7.79,0.001,15.573,0.1,23.344,0.691
			c8.206,0.625,17.3,1.699,24.466,6.048c1.757,1.066,5.349,3.333,4.9,5.872c-0.359,2.029-3.454,3.167-5.022,3.97
			c-4.592,2.354-10.219,4.801-12.58,9.717c-0.649,1.351,8.356,0.672,9.516-1.742c3.496-7.279,26.314-10.698,13.396-20.321
			c-6.818-5.079-16.519-6.176-24.693-7.036c-8.979-0.944-18.014-1.032-27.033-1.033c-2.309,0-4.848,0.623-6.83,1.83
			c-1.53,0.932-1.32,2.003,0.537,2.004c10.382,0.004,20.335,0.634,30.416,3.273c9.35,2.447,17.595,8.085,27.346,9.143
			c1.916,0.208,3.821-0.166,5.629-0.81c0.265-0.094,4.443-1.908,2.906-2.647c-21.178-10.192-45.824-4.58-64.996,7.5
			c-20.062,12.64-32.738,33.211-38.256,55.961c-5.592,23.052-3.317,47.782,5.399,69.747c9.172,23.112,26.812,41.611,47.99,54.256
			c41.239,24.624,96.173,21.732,138.072,0.093c36.378-18.788,59.349-53.749,65.474-93.854c6.787-44.443-6.146-91.277-35.913-125.037
			c-14.73-16.706-33.564-29.58-54.351-37.505c-20.126-7.673-40.951-9.251-62.285-8.572c-26.707,0.849-53.588,4.183-79.016,12.668
			c-23.747,7.924-47.12,21.863-57.995,45.363C304.753,283.954,313.796,283.234,314.914,280.816L314.914,280.816z"/>
	</g>
	<g display="inline">
		<path d="M478.189,358.136c3.224-5.701,9.316-8.93,14.082-13.193c5.309-4.749,10.432-9.854,15.383-14.983
			c10.41-10.787,19.558-22.74,26.786-35.887c0.964-1.753-5.937-0.19-6.378-0.039c-10.229,3.491-20.065,7.986-30.024,12.161
			c-2.766,1.16-2.272,2.582,0.614,2.29c13.148-1.328,25.238-7.195,36.906-13.025c-2.499,0.134-4.997,0.269-7.496,0.403
			c-6.575,9.634-7.126,23.048-3.984,33.992c0.567,1.976,10.202-0.697,9.659-2.588c-3.092-10.771-2.64-23.718,3.828-33.195
			c1.058-1.551-6.842,0.077-7.496,0.403c-8.49,4.242-17.568,9.444-27.156,10.412c0.205,0.763,0.409,1.527,0.614,2.29
			c9.22-3.866,18.317-8.044,27.788-11.276c-2.126-0.013-4.252-0.026-6.378-0.039c-7.328,13.329-16.613,25.285-27.161,36.215
			c-4.888,5.065-10.025,10.024-15.267,14.712c-4.786,4.281-10.569,7.385-13.821,13.135c-0.803,1.419,3.465,0.793,3.81,0.728
			C474.097,360.352,477.28,359.744,478.189,358.136L478.189,358.136z"/>
	</g>
	<g display="inline">
		<path d="M454.545,411.107c5.818,18.462,11.329,37.019,17.187,55.469c2.555-1.457,5.11-2.914,7.666-4.37
			c-7.365-3.131-13.43-8.435-19.392-13.646c-2.096-1.832-10.227,0.485-8.587,3.954c6.613,13.988,21.965,19.983,34.667,27.147
			c2.662,1.501,6.788,0.4,8.34-2.235c5.691-9.659,12.083-18.91,17.188-28.906c1.063-2.083-0.917-3.588-2.853-3.718
			c-7.746-0.517-13.327,3.367-20.21,6.158c2.301,0.436,4.602,0.873,6.903,1.309c-3.476-8.873-5.925-18.235-8.584-27.373
			c-1.484-5.099-2.928-10.21-4.298-15.341c-0.487-1.823-0.956-3.65-1.394-5.485c-0.35-1.468-0.029-3.508-0.814-1.644
			c2.076-4.932-7.634-4.493-9.167-0.851c-0.936,2.224,0.381,5.379,0.933,7.565c1.376,5.45,2.925,10.858,4.478,16.259
			c2.827,9.834,5.45,19.919,9.187,29.458c1.066,2.721,4.769,2.175,6.903,1.309c3.949-1.601,8.207-5.073,12.602-4.78
			c-0.951-1.239-1.902-2.478-2.853-3.718c-5.104,9.996-11.496,19.248-17.188,28.906c2.78-0.745,5.56-1.49,8.34-2.235
			c-11.294-6.37-26.612-11.915-32.521-24.415c-2.862,1.318-5.724,2.636-8.587,3.954c6.576,5.749,13.133,11.035,21.233,14.479
			c2.296,0.976,8.76-0.923,7.666-4.37c-5.858-18.45-11.369-37.007-17.188-55.469C462.896,404.367,453.261,407.031,454.545,411.107
			L454.545,411.107z"/>
	</g>
	<g display="inline">
		<path d="M396.498,179.844c-14.307-6.895-8.254-34.056,8.368-32.629c6.074,0.521,9.003,7.799,10.432,12.771
			c1.965,6.833,2.078,14.255,0.888,21.232c-0.869,5.093,9.032,3.971,9.816-0.623c2.678-15.698-1.457-42.918-22.788-40.776
			c-11.471,1.152-20.929,9.066-23.811,20.09c-2.697,10.318,1.926,22.085,11.599,26.747
			C395.256,188.705,402.109,182.549,396.498,179.844L396.498,179.844z"/>
	</g>
	<g display="inline">
		<path d="M394.351,186.912c-11.914-7.64-20.9-20.202-22.077-34.542c-1.36-16.57,12.127-26.877,27.337-28.733
			c14.099-1.72,26.888,7.193,31.265,20.396c4.731,14.271-1.795,29.318-12.815,38.645c-1.478,1.251-1.197,2.675,0.797,2.973
			c2.214,0.332,5.104-0.369,6.83-1.83c12.83-10.86,20.237-27.652,14.231-44.149c-5.923-16.269-22.766-22.295-38.827-20.779
			c-17.22,1.625-36.503,11.828-38.419,30.661c-1.671,16.421,9.359,32.44,22.664,40.971
			C388.009,192.239,396.572,188.336,394.351,186.912L394.351,186.912z"/>
	</g>
</g>
</svg>
