<?xml version="1.0" encoding="utf-8"?>
<!-- Generator: Adobe Illustrator 18.0.0, SVG Export Plug-In . SVG Version: 6.00 Build 0)  -->
<!DOCTYPE svg PUBLIC "-//W3C//DTD SVG 1.1 Basic//EN" "http://www.w3.org/Graphics/SVG/1.1/DTD/svg11-basic.dtd">
<svg version="1.1" baseProfile="basic" xmlns="http://www.w3.org/2000/svg" xmlns:xlink="http://www.w3.org/1999/xlink" x="0px"
	 y="0px" viewBox="0 0 1200 700" xml:space="preserve">
<g id="Layer_1" display="none">
</g>
<g id="Layer_4">
	<g>
		<path fill="#FF8900" d="M602.232,100.419c-2.538,1.324,1.738,0.405-0.582,0.17c-1.64-0.166-3.169-1.096-4.477-2.032
			c-3.407-2.438-5.45-6.175-6.724-10.072c-2.519-7.703-0.752-17.87,6.794-22.101c3.196-1.792,8.288,2.85,10.424,5.453
			c3.666,4.469,4.876,11.835,3.33,17.29c-2.148,7.58-16.752,18.183-11.565,26.692c2.737,4.491,17.307-1.102,15.455-4.141
			c-3.315-5.44,4.099-12.477,6.974-16.633c4.691-6.784,6.469-13.517,4.122-21.625c-5.317-18.375-28.321-17.363-41.331-8.268
			c-10.361,7.243-13.614,20.375-7.929,31.672c6.832,13.576,22.775,13.114,34.749,6.87c1.694-0.883,5.037-3.791,1.633-4.994
			C609.709,97.501,605.268,98.835,602.232,100.419L602.232,100.419z"/>
	</g>
	<g>
		<path fill="#FF8900" d="M606.105,94.088c-8.959-0.623-10.601-9.117-8.215-16.482c0.568-1.754,1.668-3.415,2.748-4.896
			c-0.256,0.351,1.039-1.015,1.264-1.228c-0.191,0.18,0.496-0.297,0.539-0.317c-1.077,0.347-1.179,0.399-0.306,0.155
			c-0.55,0.185-1.112,0.253-1.688,0.205c0.766,0,0.05-0.191,1.137,0.339c2.219,1.083,3.781,3.118,5.212,5.064
			c3.085,4.199,17.504-0.094,14.861-5.251c-5.466-10.667-16.372-12.235-26.933-8.137c-2.313,0.897-6.286,4.167-3.929,6.925
			c2.438,2.854,7.411,1.7,10.339,0.564c-1.008,0.391,0.396,0.17,1.235,0.577c1.688,0.819,2.998,2.584,3.832,4.211
			c4.954-1.75,9.908-3.5,14.861-5.251c-10.009-13.624-29.123-9.976-36.822,4.143c-2.911,5.338-4.109,12.115-2.099,17.955
			c2.661,7.73,10.718,10.682,18.223,11.204c3.529,0.246,8.245-1.2,10.144-4.431C612.423,96.188,608.887,94.281,606.105,94.088
			L606.105,94.088z"/>
	</g>
	<g>
		<path fill="#FF8900" d="M509.627,480.992c-7.273-3.976-17.672-1.092-20.255,7.21c-1.695,5.448,0.005,12.668,4.389,16.426
			c15.08,12.926,42.593-11.685,25.635-25.096c-8.602-6.804-22.948,0.006-26.316,9.285c-2.244,6.182-0.154,14.152,5.557,17.861
			c5.783,3.755,13.668,0.603,18.238-3.543c3.472-3.149,5.51-8.106,6.503-12.58c1.462-6.587-0.47-13.147-7.268-15.46
			c-9.057-3.08-23.023,2.514-27,11.176c-3.35,7.298-1.105,17.735,4.955,23.037c9.251,8.093,21.924,1.375,26.515-8.368
			c3.541-7.516-12.036-6.602-14.608-1.141c-0.657,1.394-1.31,2.785-2.352,3.93c0.82-0.9-1.306,0.569,0.585-0.331
			c1.37-0.652,2.887-0.91,4.35-0.58c-1.482-0.334,0.933,0.572-0.432-0.237c-1.265-0.75,0.438,0.543-0.678-0.542
			c-0.884-0.86-1.731-1.977-2.287-3.079c-1.137-2.254-1.957-5.015-1.987-7.548c-0.016-1.379,0.222-2.739,0.578-4.065
			c0.205-0.765,1.445-2.149,0.912-1.723c0.549-0.439,1.251-0.613,1.914-0.81c2.213-0.66-1.542,0.136,0.513-0.14
			c1.925-0.258-1.523-0.129,0.229-0.004c-1.633-0.117-0.454-0.069,0.055,0.104c-1.429-0.485-0.39-0.086-0.012,0.183
			c-0.51-0.363,0.166,0.377,0.357,0.879c1.203,3.163,0.057,7.489-1.281,10.306c-0.423,0.891-0.936,1.733-1.487,2.549
			c1.127-1.667-2.21,1.973-0.018,0.152c-0.474,0.393-1.672,0.951,0.446-0.154c-1.159,0.604,2.479-0.641,2.465-0.64
			c1.203-0.141,2.125,0.044,3.205,0.517c-1.266-0.554,0.104,0.315-0.542-0.333c-1.592-1.597-2.869-4.453-2.865-6.705
			c0.003-1.561,0.487-3.321,1.479-4.549c0.222-0.229,0.443-0.458,0.665-0.687c-0.906,0.767-1.991,1.096-3.254,0.989
			c-0.085-0.001,1.182,0.979,1.625,1.535c2.015,2.526,0.331,6.516-1.138,8.799c-0.993,1.542-1.155,0.356,1.154,0.423
			c0.058,0.002-0.751-0.333-1.591-1.297c-1.452-1.663-2.188-4.282-2.211-6.456c-0.007-0.635,0.073-1.266,0.156-1.893
			c0.001-0.003,0.491-1.807,0.134-0.882c0.148-0.386,1.05-1.471,0.111-0.394c-2.065,1.827-4.56,2.505-7.486,2.033
			c-0.536-0.306-0.448-0.261,0.264,0.134c3.37,1.843,7.975,0.938,11.022-1.156C510.874,486.542,512.984,482.826,509.627,480.992
			L509.627,480.992z"/>
	</g>
	<g>
		<path fill="#FF8900" d="M612.758,435.299c-6.762,4.173-10.775,13.154-11.314,20.847c-0.713,10.203,7.39,15.266,16.857,14.497
			c10.319-0.838,16.982-9.397,15.971-19.427c-0.924-9.155-7.691-17.52-17.467-17.659c-12.033-0.172-20.601,10.092-17.537,21.819
			c3.123,11.956,18.018,15.504,26.449,6.608c7.205-7.602,6.135-20.548-3.01-26.149c-9.764-5.982-21.813,2.885-22.336,13.254
			c-0.622,12.313,13.219,17.689,23.092,12.912c10.411-5.038,11.928-17.857,5.658-26.612c-7.138-9.967-22.992-4.712-25.963,6.025
			c-2.457,8.882,2.586,21.55,12.655,22.765c8.63,1.042,17.349-4.552,20.282-12.674c3.005-8.317-1.187-16.7-9.72-19.323
			c-9.409-2.894-18.083,3.68-20.305,12.563c-1.899,7.593,1.987,15.828,10.126,17.002c0.246,0.036,0.493,0.071,0.739,0.106
			c3.58,0.517,8.384-1.286,10.088-4.642c1.778-3.504-1.56-5.714-4.621-6.155c1.235,0.178,0.256,0.286-0.214-0.683
			c-0.552-1.138-0.852-2.547-0.865-3.798c-0.014-1.278,0.149-2.744,0.594-3.936c-0.04,0.106,1.025-1.899,0.485-1.155
			c0.822-1.134-0.729,0.36-1.915,0.751c-3.129,1.031-2.367-0.334-0.441,1.791c0.802,0.885,1.44,2.211,1.506,3.423
			c0.133,2.446-1.309,5.545-2.279,6.341c-1.283,1.053,0.119-0.021,0.583-0.163c1.338-0.405,1.792-0.354,2.705,0.1
			c-1.421-0.706-2.272-2.386-2.884-3.763c-1.078-2.432-1.64-4.983-1.405-7.628c0.095-1.062,0.431-1.816,0.901-2.746
			c0.586-1.162-8.17-0.564-4.914,1.66c3.834,2.619,3.75,8.612,1.858,12.197c-0.584,1.106-1.558,0.269,2.143-0.341
			c1.507-0.249,0.25-0.412-0.653-1.297c-1.337-1.31-1.653-3.274-1.563-5.053c0.042-0.832,0.235-1.634,0.545-2.395
			c1.278-3.144,1.869,2.142-5.25,0.471c1.804,0.423,2.872,3.777,3.288,5.259c0.534,1.901,0.252,4.088-0.484,5.883
			c0.277-0.676-0.625,1.203-0.591,1.175c1.888-1.592,5.226-0.079,3.912-1.339c-2.865-2.748-4.775-8.704-2.052-12.182
			c0.735-0.938-4.524,0.31-2.627,0.858c0.608,0.176,1.813,1.008,2.18,1.346c1.18,1.083,2.015,2.511,2.613,3.975
			c1.205,2.942,1.783,6.764,0.578,9.788c-0.573,1.438,0.27,0.294,1.554,0.308c-1.191-0.013-1.323-0.371-2.022-1.384
			c-3.169-4.599,2.079-14.674,5.202-16.602c2.712-1.674,3.991-5.643,0.924-7.642C620.409,432.056,615.913,433.352,612.758,435.299
			L612.758,435.299z"/>
	</g>
	<g>
		<path fill="#FF8900" d="M580.401,607.307c-9.506,0.19-17.021,5.315-19.575,14.479c-2.016,7.233-1.703,16.685,2.388,23.148
			c5.652,8.932,19.286,5.844,26.55,0.848c6.919-4.758,12.751-14.765,9.573-23.254c-7.67-20.487-47.743-4.109-35.344,16.711
			c4.826,8.104,16.783,6.39,23.656,2.106c7.922-4.939,9.761-14.889,4.702-22.681c-5.191-7.997-19.582-0.665-24.042,4.43
			c-5.379,6.147-5.055,17.036,3.616,20.061c9.466,3.302,21.839-4.148,22.347-14.246c0.661-13.124-13.752-15.535-23.167-10.7
			c-8.861,4.551-11.527,14.679-4.789,22.292c5.897,6.665,16.972,3.151,23.152-1.007c5.695-3.831,8.384-11.132,8.458-17.714
			c0.091-8.145-6.627-13.241-13.987-14.714c-7.799-1.561-17.057,1.964-22.056,8.032c-4.263,5.175-5.193,12.685-4.341,19.112
			c2.404,18.145,26.252,19.278,35.95,6.085c4.327-5.887,4.83-13.929,0.778-19.991c-5.022-7.514-17.442-6.236-24.249-2.537
			c-13.02,7.074-11.675,26.92,4.108,28.894c3.665,0.459,8.01-0.623,10.928-2.928c2.419-1.911,1.885-4.313-1.261-4.707
			c-7.235-0.905-8.441-9.5-6.208-15.164c0.172-0.438,1.616-2.406,1.142-2.094c-3.372,2.221-4.739-0.18-1.543,1.758
			c3.471,2.104,4.692,6.435,4.351,10.271c-0.289,3.251-1.654,6.794-4.265,8.852c2.281-1.798,5.341-0.379,1.664-2.021
			c-1.378-0.616-2.72-2.156-3.51-3.409c-3.805-6.032-3.359-14.402-0.414-20.643c0.503-1.067,1.308-2.089,2.204-2.84
			c-0.678,0.568-3.687,0.731-2.553,1.036c3.644,0.984,6.156,3.751,7.262,7.26c0.964,3.056,0.494,6.241-0.444,9.229
			c-0.726,2.313-3.044,5.72-3.871,6.201c1.581-0.921,3.837-1.467,5.644-1.001c-0.614-0.158-0.845-0.305-1.362-0.675
			c-1.499-1.07-2.548-2.696-3.35-4.313c-1.053-2.126-0.848-4.447-0.194-6.633c0.301-1.008,0.864-1.779,1.5-2.594
			c2.034-1.688,0.098-1.328-5.806,1.077c0.667,0.256,1.238,0.654,1.712,1.194c3.388,2.958,4.004,8.509,1.634,12.233
			c-2.188,3.44-1.646-3.541,6.188-0.808c-0.867-0.303-1.864-1.796-2.285-2.46c-1.239-1.96-1.402-4.032-0.92-6.236
			c0.424-1.938,1.45-3.527,2.735-4.995c0.567-0.649-8.382-0.389-6.247,1.056c1.018,0.689,1.441,1.834,1.872,2.92
			c1.026,2.581,1.212,5.484,0.667,8.18c-0.768,3.797-4.11,3.859,1.373,2.726c1.248-0.259,2.18,0.288,0.777-0.259
			c-0.85-0.33-1.518-1.2-2.094-1.864c-1.842-2.125-2.398-5.998-2.101-8.659c0.152-1.36,0.638-2.838,1.341-4.014
			c0.406-0.678,2.516-2.257,1.037-1.575c-2.46,1.135-2.909,0.021-0.588,0.95c1.358,0.543,2.415,1.77,3.365,2.824
			c3.824,4.242,2.016,10.827-0.69,15.128c-0.708,1.126-1.585,2.213-2.572,3.105c-2.313,2.091-0.147-0.767,2.246-0.074
			c-2-0.578-3.229-2.392-4.086-4.158c-2.062-4.253-2.424-9.536-2.037-14.17c0.211-2.535,0.8-5.023,1.669-7.41
			c0.348-0.955,0.804-1.796,1.38-2.626c1.319-1.898-1.376,0.76-4.276,0.817c3.423-0.068,7.998-1.21,10.252-4.026
			C586.668,608.276,582.465,607.265,580.401,607.307L580.401,607.307z"/>
	</g>
	<g>
		<path fill="#FF8900" d="M672.278,568.042c-2.436,7.904-0.922,17.286,5.448,22.974c6.795,6.067,17.574,4.967,23.819-1.42
			c6.926-7.083,6.889-21.275-0.489-27.91c-9.526-8.568-23.968-0.01-27.661,10.219c-2.856,7.915,1.362,18.199,8.296,22.474
			c8.605,5.307,21.751,0.331,26.16-8.22c3.64-7.058,2.051-16.533-2.946-22.508c-6.558-7.84-18.691-5.679-25.693,0.116
			c-6.063,5.019-6.375,15.039-4.417,21.969c2.519,8.914,11.034,13.345,19.935,10.932c8.829-2.394,14.058-9.565,13.819-18.644
			c-0.223-8.507-4.6-16.06-13.501-17.407c-9.374-1.42-18.358,4.422-20.551,13.566c-1.836,7.659,1.812,16.404,9.423,19.102
			c6.795,2.408,17.555,1.285,22.31-4.733c3.594-4.551,2.975-9.951,0.698-14.995c-5.236-11.603-18.808-21.17-30.33-10.624
			c-5.717,5.231-5.246,15.259-1.477,21.226c6.342,10.042,20.587,9.519,28.771,2.5c7.515-6.445,2.583-18.372-2.156-24.815
			c-6.248-8.492-18.972-9.102-26.169-1.34c-5.607,6.048-5.978,17.581-0.702,23.919c6.05,7.27,19.956,3.92,24.477-3.255
			c4.788-7.599-0.494-18.646-9.371-19.166c-12.748-0.749-20.3,11.917-13.706,22.631c3.305,5.371,9.142,5.93,14.871,4.805
			c5.041-0.99,11.281-5.136,10.085-10.927c-1.006-4.87-6.998-7.27-11.393-6.771c-7.004,0.793-11.667,5.068-11.626,12.153
			c0.031,5.271,7.703,4.563,10.977,2.94c2.794-1.385,5.441-3.048,7.487-5.445c6.141-7.197-8.783-7.875-12.619-3.381
			c-0.331,0.389-0.926,1.148-1.282,1.324c3.659,0.98,7.317,1.96,10.977,2.94c-0.008-1.208,0.042-2.325,0.237-3.517
			c0.594-3.633-12.825,0.412-9.071,2.555c0.329,0.188,0.81,1.102,0.974,1.894c-0.319-1.546,1.66-2.269,2.865-2.688
			c4.565-1.581,4.718,1.119,3.166-0.356c-1.328-1.263-1.843-3.03-2.266-4.752c-0.384-1.56-0.323-3.021-0.024-4.586
			c0.398-2.082-3.868,1.994-6.445,0.695c1.285,0.648,2.218,4.225,2.149,6.209c-0.026,0.752-0.564,2.657-0.268,2.281
			c1.073-1.361,3.611-1.727,5.3-1.446c-0.684-0.114-0.834-0.131-1.225-0.503c-2.864-2.728-2.538-8.113-1.827-11.6
			c0.179-0.873,0.458-1.547,0.853-2.334c1.269-2.523,1.835,0.725-4.058,0.674c0.349,0.003,2.258,2.099,2.69,2.577
			c3.125,3.458,4.863,8.159,5.333,12.743c0.076,0.748-0.146,1.581-0.292,2.306c-0.437,2.168-3.919-0.133,3.121-0.255
			c-1.528,0.026-3.159-1.626-4.147-2.611c-3.323-3.315-3.287-7.459-2.216-11.716c0.142-0.56,1.427-2.399,0.627-1.528
			c-1.094,1.192-3.276,1.654-4.661,1.89c-0.035,0.006-2.994-0.375-1.627-0.057c1.447,0.339-1.111-0.573,0.313,0.118
			c0.471,0.228,0.909,0.52,1.346,0.805c0.537,0.35,1.586,1.32,2.461,2.247c3.004,3.181,6.174,8.575,6.25,12.371
			c0.012,0.603-0.563,2.776-0.191,1.945c-0.576,1.289,0.894-0.815-0.084,0.222c0.685-0.729,1.607-0.993,2.518-1.303
			c-1.821,0.62,1.776-0.157-0.382,0.022c1.519-0.127-1.123-0.153-1.166-0.157c-0.994-0.096-2.162-1.893-2.671-2.608
			c-1.814-2.547-1.818-6.322-1.285-9.246c0.197-1.082,0.66-2.427,1.315-3.183c-0.495,0.571-2.631,1.154-2.987,0.984
			c5.486,2.609,5.619,12.74,3.193,17.28c-0.807,1.51,0.899-0.236,2.393-0.182c0.288,0.011-1.226-1.213-1.592-1.64
			c-2.221-2.579-2.819-6.434-3.065-9.704c-0.191-2.541,0.311-6.453,2.002-8.438c1.007-1.184-1.843,1.117-2.848,0.69
			c1.441,0.612,2.354,1.774,3.255,3.003c1.989,2.712,2.643,6.683,2.44,9.959c-0.101,1.632-0.489,3.217-1.236,4.665
			c-1.207,2.342-2.013,0.397,1.156,0.522c-2.555-0.101-4.563-5.733-5.128-7.601c-1.073-3.545-0.979-7.506,1.158-10.607
			c1.958-2.842-4.225-1.091-2.467,0.49c0.897,0.807,1.577,1.917,2.092,2.992c1.256,2.626,1.43,5.511,1.083,8.345
			c-0.261,2.129-0.804,4.133-1.864,5.992c-0.515,0.9-1.528,1.002,0.867-0.278c0.623-0.333,2.454-0.798,3.429-0.573
			c-6.675-1.541-7.077-13.465-5.414-18.858C689.738,560.188,674.067,562.239,672.278,568.042L672.278,568.042z"/>
	</g>
</g>
<g id="Layer_5">
	<g>
		<path fill="#FF8900" d="M448.711,230.999c1.148-0.731,1.96-1.804,3.108-2.535c-0.571,0.068-1.142,0.136-1.712,0.205
			c2.484,3.44,2.493,6.414-0.968,9.214c0.571-0.068,1.142-0.136,1.712-0.205c-1.896-3.373-5.196-6.144-9.253-5.203
			c-4.727,1.096-2.473,6.382-0.693,9.074c0.337,0.51,2.12-0.234,1.932-0.518c-1.201-1.816-3.682-5.832-1.293-7.748
			c1.018-0.816,3.176,0.482,4.004,1.017c1.463,0.946,2.532,2.4,3.372,3.895c0.252,0.45,1.427,0.026,1.712-0.205
			c3.621-2.93,4.196-5.977,1.406-9.84c-0.324-0.449-1.361-0.019-1.712,0.205c-1.148,0.731-1.96,1.804-3.108,2.535
			C446.386,231.419,448.337,231.236,448.711,230.999L448.711,230.999z"/>
	</g>
	<g>
		<path fill="#FF8900" d="M446.708,242.081c1.176,1.439,1.859,3.292,2.328,5.072c0.187,0.71,2.119,0.195,1.932-0.518
			c-0.492-1.869-1.234-3.813-2.469-5.325C448.056,240.77,446.2,241.46,446.708,242.081L446.708,242.081z"/>
	</g>
	<g>
		<path fill="#FF8900" d="M446.552,249.629c1.277,6.331,6.473,7.749,12.015,5.487c2.163-0.882,6.56-3.842,2.708-5.782
			c-2.232-1.124-5.752-1.457-7.949-0.074c-3.461,2.178,1.334,5.85,3.101,7.144c0.185-0.422,0.37-0.845,0.554-1.268
			c-1.892,0.514-4.301,1.192-4.932,3.302c-0.58,1.94,0.923,4.392,1.536,6.155c0.318,0.917,2.245,0.384,1.932-0.518
			c-0.468-1.35-1.033-2.668-1.438-4.039c-0.698-2.361,1.372-2.996,3.275-3.513c0.506-0.137,1.172-0.814,0.554-1.268
			c-0.78-0.572-5.192-3.602-3.484-4.934c1.121-0.874,3.475-0.427,4.697-0.073c2.912,0.844,1.301,2.265-0.717,3.333
			c-4.705,2.491-8.868,0.744-9.92-4.471C448.295,248.174,446.36,248.677,446.552,249.629L446.552,249.629z"/>
	</g>
	<g>
		<path fill="#FF8900" d="M473.761,271.878c-4.885,0.193-9.593,1.763-14.44,2.287c-0.97,0.104-1.58,1.285-0.245,1.141
			c4.849-0.523,9.558-2.094,14.44-2.287C474.506,272.98,475.092,271.826,473.761,271.878L473.761,271.878z"/>
	</g>
	<g>
		<path fill="#FF8900" d="M468.674,268.85c2.376,1.166,4.164,3.582,4.155,6.297c-0.015,4.682-5.617-0.754-6.793-1.978
			c-0.597,0.254-1.195,0.508-1.792,0.763c1.631,1.571,1.684,3.775,2.694,5.674c0.121-0.186,0.242-0.371,0.364-0.557
			c-3.888,2.195-6.663-1.661-8.116-4.801c-0.316-0.685-2.208-0.08-1.932,0.518c2.222,4.806,6.178,7.744,11.251,4.879
			c0.136-0.077,0.474-0.351,0.364-0.557c-1.053-1.982-1.137-4.285-2.833-5.919c-0.485-0.468-2.323,0.211-1.792,0.763
			c2.117,2.203,7.113,6.727,9.96,2.878c2.29-3.097-1.335-7.602-3.996-8.907C469.63,267.619,467.859,268.45,468.674,268.85
			L468.674,268.85z"/>
	</g>
	<g>
		<path fill="#FF8900" d="M464.112,285.558c4.339,0.438,8.6,1.442,12.925,1.994c-0.105-0.394-0.211-0.788-0.317-1.182
			c-2.614,1.679-5.028,3.929-7.973,5.013c-1.143,0.42-0.808,1.8,0.366,1.368c3.315-1.22,5.957-3.573,8.899-5.461
			c0.59-0.379,0.313-1.101-0.317-1.182c-4.325-0.551-8.586-1.556-12.925-1.993C463.799,284.017,462.807,285.426,464.112,285.558
			L464.112,285.558z"/>
	</g>
	<g>
		<path fill="#FF8900" d="M479.351,298.546c1.099-0.078,2.183-0.332,3.156-0.856c1.933-1.042,0.563-2.729-0.587-3.775
			c-2.319-2.112-5.64-3.066-8.389-1.105c-1.903,1.358-3.329,4.17-2.161,6.435c1.576,3.053,6.503,1.018,8.639-0.009
			c-0.445-0.102-0.891-0.203-1.337-0.305c-1.382,0.977-2.956,1.996-3.586,3.642c-0.648,1.69,1.316,3.634,2.287,4.726
			c0.383,0.431,2.215-0.248,1.807-0.708c-0.953-1.073-1.953-2.153-2.236-3.6c-0.333-1.702,2.121-3.075,3.245-3.87
			c0.877-0.621-1.016-0.459-1.337-0.305c-1.715,0.825-4.508,1.93-5.656-0.296c-0.628-1.217-0.211-2.744,0.374-3.884
			c0.951-1.853,2.583-2.314,4.438-1.507c1.377,0.599,5.632,4.227,2.136,4.474C479.541,297.647,478.063,298.637,479.351,298.546
			L479.351,298.546z"/>
	</g>
	<g>
		<path fill="#FF8900" d="M491.054,309.938c-0.788-6.343-7.87-4.022-11.427-1.558c-0.067,0.046-0.281,0.241-0.207,0.358
			c1.814,2.879,5.32,2.489,8.273,1.982c-0.202-0.184-0.403-0.369-0.605-0.553c-2.359,1.656-9.755,5.081-9.069-0.607
			c0.078-0.65-1.853-0.271-1.92,0.287c-0.874,7.246,9.735,2.462,12.506,0.518c0.617-0.433-0.254-0.613-0.605-0.553
			c-1.603,0.275-3.184,0.51-4.77,0.022c-1.368-0.421-1.882-1.482-0.435-2.276c3.122-1.714,5.895-0.57,6.326,2.896
			C489.188,310.984,491.132,310.567,491.054,309.938L491.054,309.938z"/>
	</g>
	<g>
		<path fill="#FF8900" d="M491.46,313.506c-2.057,0.603-6.097,2.105-5.969,4.879c0.146,3.171,5.237,2.546,7.178,2.177
			c-0.164-0.304-0.328-0.607-0.492-0.911c-1.727,1.344-2.841,3.32-4.676,4.572c-1.084,0.74,0.563,1.107,1.222,0.658
			c1.845-1.26,2.954-3.231,4.676-4.572c0.61-0.475,0.25-1.052-0.492-0.911c-1.513,0.287-4.715,0.934-5.426-1.045
			c-0.738-2.053,2.989-3.408,4.264-3.782C492.901,314.232,492.625,313.164,491.46,313.506L491.46,313.506z"/>
	</g>
	<g>
		<path fill="#FF8900" d="M498.265,325.37c-3.333,0.949-6.708,0.895-9.805,2.629c0.438,0.071,0.875,0.143,1.312,0.214
			c2.607-2.093,5.136-1.869,8.173-2.086c-0.182-0.087-0.364-0.174-0.546-0.261c-1.2,1.947-2.419,3.883-3.851,5.67
			c-0.188,0.235,0.014,0.355,0.26,0.367c2.413,0.12,4.746,0.442,7.141-0.007c-0.192-0.149-0.385-0.298-0.577-0.448
			c-2.647,1.766-4.819,4.353-6.845,6.779c-0.428,0.513,1.446,0.267,1.759-0.107c1.946-2.331,4.039-4.868,6.579-6.563
			c0.617-0.412-0.257-0.508-0.577-0.448c-1.494,0.28-2.926,0.185-4.425,0.063c-1.624-0.132-0.961-0.483-0.233-1.497
			c0.956-1.333,1.819-2.734,2.68-4.13c0.161-0.261-0.457-0.267-0.546-0.261c-3.932,0.282-7.27,0.237-10.485,2.819
			c-0.796,0.639,1.005,0.386,1.312,0.214c2.745-1.538,5.894-1.433,8.853-2.276C499.568,325.723,499.395,325.049,498.265,325.37
			L498.265,325.37z"/>
	</g>
	<g>
		<path fill="#FF8900" d="M504.086,337.268c-2.007,0.558-8.77,3.13-7.012,6.08c2.336,3.921,8.004,3.049,11.344,1.125
			c1.175-0.677,0.13-1.457-0.842-1.088c-2.768,1.051-4.822,3.315-6.378,5.766c-0.564,0.887,1.407,0.876,1.84,0.194
			c1.317-2.073,3.042-3.984,5.38-4.873c-0.281-0.363-0.561-0.725-0.842-1.088c-2.589,1.492-6.394,2.231-8.489-0.469
			c-1.008-1.3,0.537-1.923,1.516-2.567c1.165-0.765,2.478-1.436,3.823-1.81C505.61,338.21,505.273,336.938,504.086,337.268
			L504.086,337.268z"/>
	</g>
	<g>
		<path fill="#FF8900" d="M511.587,347.68c-2.864,1.729-6.034,2.948-8.986,4.52c-1.146,0.61-4.138,2.71-1.016,2.742
			c0.77,0.008,2.042-1.15,0.733-1.164c-0.544-0.006-0.33,0.23-0.187,0.094c0.308-0.289,0.732-0.492,1.093-0.702
			c1.056-0.614,2.167-1.136,3.265-1.669c2.113-1.027,4.3-1.963,6.314-3.179C513.925,347.645,512.248,347.281,511.587,347.68
			L511.587,347.68z"/>
	</g>
	<g>
		<path fill="#FF8900" d="M506.692,348.922c3.222,1.775,3.837,4.637,2.668,7.962c0.58,0.611,0.629,0.736,0.148,0.374
			c-0.165-0.142-0.321-0.293-0.467-0.454c-0.465-0.48-0.849-1.045-1.23-1.591c-0.74-1.059-1.383-2.184-2.059-3.284
			c-0.355-0.578-2.231,0.055-1.789,0.773c1.177,1.916,3.412,7.272,6.414,5.536c1.422-0.822,1.612-4.018,1.531-5.44
			c-0.128-2.244-1.846-3.829-3.686-4.843C507.637,347.633,505.866,348.466,506.692,348.922L506.692,348.922z"/>
	</g>
	<g>
		<path fill="#FF8900" d="M517.331,363.972c0.477-1.393,0.48-2.93-1.028-3.605c-1.447-0.646-3.403-0.07-4.72,0.617
			c-1.442,0.753-2.532,2.064-2.561,3.735c-0.046,2.65,2.777,4.758,4.711,6.055c0.494,0.331,2.186-0.443,1.811-0.695
			c-2.356-1.579-6.794-5.512-3.37-8.345c0.731-0.604,1.65-0.9,2.56-0.549c1.259,0.487,1.023,2.092,0.682,3.089
			C515.248,364.764,517.144,364.518,517.331,363.972L517.331,363.972z"/>
	</g>
	<g>
		<path fill="#FF8900" d="M521.779,370.732c-2.505,0.869-4.72,2.492-7.393,2.824c-1.045,0.13-1.522,1.455-0.182,1.375
			c3.024-0.181,5.853,1.006,8.84,1.19c0.48,0.03,1.995-0.69,1.086-1.233c-1.818-1.085-3.824-2.05-5.984-1.998
			c-0.443,0.011-0.973,0.309-1.068,0.767c-0.419,2.021-0.234,3.895,0.22,5.894c0.198,0.872,2.132,0.367,1.932-0.518
			c-0.426-1.879-0.591-3.635-0.197-5.534c-0.356,0.256-0.712,0.512-1.068,0.767c1.642-0.039,3.305,0.902,4.671,1.719
			c0.362-0.411,0.724-0.822,1.086-1.233c-3.163-0.196-6.128-1.388-9.336-1.196c-0.06,0.458-0.121,0.917-0.182,1.375
			c2.932-0.364,5.189-1.969,7.918-2.916C523.27,371.618,522.953,370.325,521.779,370.732L521.779,370.732z"/>
	</g>
	<g>
		<path fill="#FF8900" d="M529.805,386.783c0.228-1.642-1.26-3.234-2.558-4.013c-2.276-1.366-4.834-1.219-7.196-0.141
			c-1.246,0.569-1.764,0.861-1.761,2.185c0.003,1.24,0.79,2.352,1.676,3.136c2.037,1.804,5.14,1.343,7.438,0.439
			c-0.319-0.198-0.638-0.396-0.956-0.594c-1.185,0.767-3.653,1.822-4.254,3.243c-0.48,1.135,1.332,2.215,2.002,2.827
			c0.468,0.428,2.27-0.303,1.801-0.73c-0.604-0.552-1.681-1.209-1.954-2.021c-0.28-0.834,3.092-2.515,3.581-2.83
			c1.032-0.668-0.395-0.814-0.957-0.594c-2.052,0.807-4.037,0.529-5.542-1.099c-0.482-0.521-0.699-1.186-0.852-1.857
			c-0.315-1.387,1.031-1.749,2.122-1.943c2.062-0.367,5.828,1.792,5.485,4.261C527.784,387.747,529.721,387.384,529.805,386.783
			L529.805,386.783z"/>
	</g>
	<g>
		<path fill="#FF8900" d="M525.601,396.84c-3.726,6.795,9.192,6.163,12.568,4.813c0.094-0.038,0.762-0.318,0.617-0.533
			c-1.542-2.292-4.382-4.425-7.122-2.5c-3.273,2.298,0.908,4.374,3.131,4.69c0.016-0.204,0.031-0.407,0.046-0.611
			c-1.722,0.865-3.521,1.858-4.117,3.81c-0.693,2.266,2.41,4.113,3.906,4.981c0.512,0.298,2.153-0.49,1.813-0.688
			c-1.414-0.821-2.714-1.651-3.559-3.098c-1.274-2.18,1.547-3.874,3.098-4.652c0.362-0.182,0.587-0.534,0.046-0.611
			c-1.422-0.202-3.849-0.767-3.577-2.697c0.401-2.85,4.004,1.298,4.406,1.895c0.206-0.178,0.412-0.355,0.617-0.533
			c-3.081,1.232-13.064,1.091-9.958-4.575C527.708,396.175,525.884,396.321,525.601,396.84L525.601,396.84z"/>
	</g>
</g>
<g id="Layer_2">
	<g>
		<path d="M400.502,579.685c5.641-0.261,10.754-2.254,15.82-4.626c6.8-3.183,13.407-6.613,20.309-9.595
			c14.729-6.362,29.357-12.954,43.993-19.525c29.5-13.245,59.081-26.165,89.249-37.823c59.915-23.151,118.742-48.991,178.099-73.512
			c33.883-13.997,67.961-27.535,102.458-39.95c1.259-0.453,0.127-1.314-0.813-0.977c-60.521,21.781-119.676,47.073-178.94,72.011
			c-59.334,24.967-119.695,47.453-178.469,73.719c-15.289,6.832-30.543,13.742-45.87,20.491c-7.263,3.198-14.691,6.115-21.809,9.626
			c-7.6,3.75-15.118,8.508-23.813,8.909C399.685,578.481,399.176,579.745,400.502,579.685L400.502,579.685z"/>
	</g>
	<g>
		<path d="M427.057,624.879c-0.482,0.436-0.974,0.852-1.466,1.274c-0.318,0.274-0.197,0.646,0.197,0.734
			c0.546,0.122,1.003-0.084,1.512-0.266c2.696-0.964,5.496-1.558,8.183-2.562c6.317-2.358,12.255-5.493,18.128-8.784
			c6.189-3.466,12.257-7.137,18.623-10.277c7.498-3.7,15.385-6.749,23.058-10.071c30.24-13.096,60.555-26.017,90.949-38.752
			c57.962-24.285,116.91-45.587,175.645-67.877c26.745-10.149,53.305-20.806,79.37-32.6c12.532-5.67,25.093-11.483,37.22-17.983
			c11.888-6.371,23.47-13.525,35.94-18.728c1.241-0.518,0.112-1.236-0.781-0.863c-12.131,5.061-23.439,11.966-34.977,18.208
			c-14.061,7.608-28.704,14.271-43.288,20.802c-28.382,12.709-57.379,23.994-86.488,34.912
			c-29.11,10.917-58.372,21.426-87.424,32.499c-29.856,11.38-59.318,23.736-88.766,36.128
			c-27.331,11.501-54.592,23.169-81.801,34.958c-11.665,5.055-23.012,10.146-34.044,16.475c-5.786,3.318-11.593,6.588-17.688,9.313
			c-3.252,1.453-6.619,2.584-10.075,3.434c-0.743,0.182-1.807,0.628-2.565,0.907c1.293-0.476,0.551,0.889,2.101-0.513
			C429.467,624.481,427.555,624.429,427.057,624.879L427.057,624.879z"/>
	</g>
	<g>
		<path fill="#FF8900" d="M422.371,216.167c25.493,49.205,52.685,97.565,75.786,147.975c11.222,24.489,22.772,48.822,34.792,72.931
			c6.262,12.559,12.67,25.044,19.216,37.458c3.225,6.115,6.499,12.205,9.804,18.278c1.22,2.24,2.309,4.419,3.958,6.361
			c0.317,0.372,3.826,4.736,3.808,4.763c-0.716,1.005,1.1,1.31,1.62,0.58c0.975-1.366-2.21-4.373-2.935-5.304
			c-3.697-4.746-6.297-10.208-9.153-15.519c-6.618-12.303-13.049-24.706-19.367-37.166c-13.288-26.205-25.952-52.725-38.226-79.418
			c-23.76-51.671-51.386-101.327-77.534-151.795C423.737,214.538,421.899,215.256,422.371,216.167L422.371,216.167z"/>
	</g>
	<g>
		<path fill="#FF8900" d="M578.578,526.099c2.775,8.979,7.767,16.921,12.774,24.798c0.505,0.796,2.332,0.02,1.761-0.879
			c-4.935-7.764-9.866-15.583-12.604-24.436C580.217,524.633,578.287,525.158,578.578,526.099L578.578,526.099z"/>
	</g>
	<g>
		<path fill="#FF8900" d="M605.81,514.716c4.608,8.305,9.011,17.15,15.821,23.911c0.341,0.338,2.085-0.384,1.824-0.643
			c-6.763-6.715-11.138-15.538-15.714-23.786C607.491,513.746,605.674,514.471,605.81,514.716L605.81,514.716z"/>
	</g>
	<g>
		<path fill="#FF8900" d="M607.959,576.95c5.799,12.617,15.892,22.479,22.996,34.299c0.386,0.642,2.251-0.021,1.781-0.803
			c-7.046-11.724-17.095-21.501-22.846-34.014C609.541,575.672,607.64,576.256,607.959,576.95L607.959,576.95z"/>
	</g>
	<g>
		<path fill="#FF8900" d="M640.269,562.335c7.347,13.063,19.418,22.48,27.987,34.652c0.354,0.502,2.226-0.133,1.799-0.738
			c-8.516-12.096-20.555-21.452-27.854-34.432C641.85,561.193,639.995,561.85,640.269,562.335L640.269,562.335z"/>
	</g>
	<g>
		<path fill="#FF8900" d="M438.825,207.445c15.701,22.431,28.998,46.383,42.552,70.137c14.26,24.99,30.433,48.858,43.892,74.294
			c13.231,25.004,24.433,51.021,35.787,76.91c5.311,12.109,10.054,24.928,16.48,36.491c2.915,5.243,6.38,10.101,9.888,14.958
			c3.095,4.285,4.324,10.09,8.479,13.598c0.576,0.486,2.387-0.284,1.784-0.793c-3.727-3.147-5.46-8.31-7.802-12.48
			c-2.86-5.092-6.814-9.589-9.776-14.656c-7.175-12.275-12.156-26.314-17.862-39.324c-11.359-25.9-22.675-51.84-35.91-76.854
			c-12.93-24.438-28.533-47.351-42.264-71.342c-13.89-24.269-27.409-48.795-43.463-71.731
			C440.185,206.047,438.322,206.726,438.825,207.445L438.825,207.445z"/>
	</g>
	<g>
		<path d="M492.193,493.091c0.276,14.689,18.373,20.164,29.652,13.545c9.747-5.72,11.568-22.017,1.949-28.547
			c-7.508-5.098-18.745-4.271-26.49-0.222c-10.483,5.482-8.46,16.101-1.896,24.012c0.362,0.438,2.207-0.226,1.807-0.707
			c-5.536-6.674-8.638-15.779-0.532-21.784c6.563-4.861,16.767-4.943,23.899-1.411c8.929,4.422,9.004,15.122,4.956,23.056
			c-7.454,14.607-31.129,6.624-31.413-8.459C494.116,492.101,492.181,492.439,492.193,493.091L492.193,493.091z"/>
	</g>
	<g>
		<path d="M505.123,498.651c0.097-3.847,0.29-7.691,0.386-11.538c-0.624,0.201-1.248,0.402-1.872,0.603
			c2.833,2.732,5.476,5.651,8.307,8.385c0.325,0.313,1.773-0.029,1.863-0.499c0.786-4.123,0.275-7.97-0.99-11.95
			c-0.624,0.201-1.248,0.402-1.872,0.604c2.515,2.777,5.539,4.894,8.615,7c0.483,0.33,2.172-0.443,1.813-0.689
			c-3.077-2.105-6.101-4.222-8.615-7c-0.294-0.324-2.029,0.11-1.872,0.603c1.246,3.92,1.788,7.655,1.009,11.743
			c0.621-0.167,1.242-0.333,1.863-0.499c-2.832-2.734-5.474-5.653-8.307-8.387c-0.362-0.349-1.858,0.062-1.872,0.604
			c-0.096,3.848-0.29,7.691-0.386,11.538C503.182,499.563,505.108,499.275,505.123,498.651L505.123,498.651z"/>
	</g>
	<g>
		<path d="M601.901,443.991c-7.215,11.945,5.423,20.178,16.297,20.911c11.33,0.765,21.987-7.212,23.213-18.822
			c1.055-9.992-9.444-15.473-17.953-15.971c-9.417-0.551-18.11,4.716-20.172,14.189c-0.12,0.55,1.798,0.233,1.914-0.305
			c2.108-9.683,10.628-14.17,20.102-12.671c7.36,1.165,14.159,6.531,14.223,14.396c0.041,4.974-3.102,9.946-6.326,13.455
			c-4.614,5.02-12.208,5.569-18.469,4.18c-9.488-2.107-16.54-10.355-10.915-19.668C604.021,443.347,602.211,443.478,601.901,443.991
			L601.901,443.991z"/>
	</g>
	<g>
		<path d="M611.2,444.714c1.577,5.286,2.669,10.662,3.691,16.078c0.644-0.173,1.288-0.345,1.932-0.518
			c-1.85-4.843-3.904-10.184-2.345-15.384c-0.602,0.103-1.206,0.204-1.81,0.307c1.873,2.496,4.58,3.893,6.833,5.987
			c0.47,0.435,1.703,0.046,1.722-0.64c0.1-3.847,0.287-7.691,0.387-11.538c-0.621,0.166-1.242,0.333-1.863,0.499
			c2.015,3.878,4.614,7.352,6.999,11.001c0.504,0.771,2.335,0.006,1.764-0.869c-2.385-3.649-4.984-7.123-6.999-11.001
			c-0.352-0.678-1.845-0.222-1.863,0.499c-0.099,3.847-0.286,7.691-0.387,11.538c0.574-0.213,1.148-0.426,1.722-0.64
			c-2.147-1.994-4.762-3.324-6.55-5.706c-0.398-0.531-1.612-0.352-1.81,0.307c-1.656,5.52,0.29,10.975,2.269,16.157
			c0.345,0.903,2.113,0.443,1.932-0.518c-1.022-5.416-2.114-10.792-3.691-16.078C612.854,443.266,610.924,443.79,611.2,444.714
			L611.2,444.714z"/>
	</g>
	<g>
		<path d="M562.018,629.768c-1.562,13.068,11.523,21.166,23.388,19.219c11.122-1.826,18.913-15.574,13.488-25.916
			c-4.661-8.888-16.127-11.496-25.29-9.456c-11.356,2.528-15.409,12.867-12.42,23.41c0.246,0.869,2.177,0.347,1.932-0.518
			c-2.675-9.436,0.114-18.523,10.158-21.436c7.953-2.308,17.911,0.228,22.831,7.1c6.415,8.962,0.126,22.667-9.931,25.307
			c-11.221,2.945-23.62-6-22.201-17.867C564.088,628.641,562.119,628.92,562.018,629.768L562.018,629.768z"/>
	</g>
	<g>
		<path d="M572.953,626.426c-0.149,4.793,0.758,9.472,2.77,13.831c0.291,0.632,2.104,0.172,1.932-0.517
			c-1.164-4.667-2.177-9.25-1.923-14.095c-0.644,0.126-1.288,0.253-1.932,0.38c1.56,2.964,4.266,4.419,6.607,6.659
			c0.463,0.443,1.865,0.059,1.863-0.637c-0.009-3.195,0.347-6.275-0.077-9.462c-0.621,0.212-1.242,0.424-1.863,0.637
			c2.934,3.662,5.827,7.369,8.384,11.309c0.35,0.539,2.227-0.089,1.794-0.756c-2.557-3.939-5.45-7.646-8.384-11.309
			c-0.379-0.474-1.952-0.029-1.863,0.637c0.421,3.17,0.068,6.286,0.077,9.462c0.621-0.212,1.242-0.424,1.863-0.637
			c-2.262-2.163-4.957-3.547-6.47-6.421c-0.292-0.555-1.897-0.267-1.932,0.38c-0.258,4.93,0.736,9.611,1.923,14.37
			c0.644-0.173,1.288-0.345,1.932-0.517c-1.966-4.261-2.916-8.862-2.77-13.556C574.91,625.384,572.973,625.788,572.953,626.426
			L572.953,626.426z"/>
	</g>
	<g>
		<path d="M677.284,569.024c-4.136,13.032,6.661,26.797,20.428,24.745c9.358-1.394,19.527-13.203,16.651-22.885
			c-2.363-7.953-12.707-11.596-20.203-11.153c-8.396,0.496-15.248,5.104-16.429,13.838c-0.028,0.208,1.854,0.056,1.932-0.517
			c2.225-16.46,26.646-16.13,32.546-2.265c3.51,8.247-4.67,18.011-11.486,21.449c-7.259,3.662-15.37-1.647-19.396-7.403
			c-3.317-4.743-3.858-10.741-2.14-16.158C679.299,568.322,677.435,568.546,677.284,569.024L677.284,569.024z"/>
	</g>
	<g>
		<path d="M686.655,572.648c0.515,5.443,2.868,10.391,4.536,15.539c0.644-0.173,1.288-0.345,1.932-0.518
			c-2.511-4.888-4.802-9.625-3.849-15.267c-0.621,0.166-1.242,0.332-1.863,0.499c2.388,2.286,5.25,3.998,7.229,6.693
			c0.339,0.461,1.857-0.062,1.868-0.617c0.074-3.832-0.066-7.454-1.152-11.154c-0.643,0.173-1.288,0.345-1.932,0.517
			c2.713,5.014,6.439,9.374,9.152,14.387c0.318,0.588,2.171-0.076,1.932-0.518c-2.713-5.014-6.44-9.374-9.152-14.387
			c-0.287-0.53-2.102-0.066-1.932,0.517c1.085,3.7,1.227,7.322,1.152,11.154c0.623-0.206,1.245-0.411,1.868-0.617
			c-1.98-2.695-4.842-4.406-7.23-6.693c-0.357-0.342-1.773-0.032-1.863,0.499c-0.962,5.696,1.284,10.53,3.839,15.504
			c0.279,0.544,2.115,0.047,1.932-0.518c-1.668-5.148-4.021-10.096-4.536-15.539C688.537,571.599,686.594,571.997,686.655,572.648
			L686.655,572.648z"/>
	</g>
	<g>
		<path d="M338.658,481.034c6.014,0.453,12.434-3.538,17.511-6.22c7.534-3.98,14.681-8.743,22.383-12.396
			c11.871-5.63,24.651-9.555,36.787-14.594c12.02-4.99,23.688-10.784,34.457-18.123c-0.507,0.001-1.014,0.002-1.52,0.002
			c8.245,14.657,10.979,31.568,18.992,46.366c2.179,4.024,4.401,8.005,6.301,12.174c0.702,1.538,1.273,3.125,1.83,4.72
			c0.658,1.883-4.985,3.354-6.047,3.805c-8.787,3.729-17.585,7.428-26.303,11.313c-15.831,7.055-30.968,15.3-47.06,21.793
			c-14.443,5.828-29.11,11.497-42.012,20.379c-1.082,0.745,0.517,1.347,1.268,0.83c17.398-11.978,37.944-18.118,57.088-26.631
			c10.674-4.746,20.887-10.495,31.556-15.291c11.044-4.965,22.251-9.564,33.382-14.33c0.28-0.119,0.652-0.45,0.546-0.799
			c-3.513-11.492-10.945-21.244-15.064-32.509c-4.024-11.004-6.92-22.375-12.703-32.654c-0.277-0.494-1.179-0.229-1.52,0.002
			c-20.479,13.958-44.088,21.672-66.897,30.84c-7.316,2.94-13.98,7.132-20.825,11.008c-5.845,3.311-14.411,9.494-21.465,8.963
			C338.433,479.614,337.349,480.935,338.658,481.034L338.658,481.034z"/>
	</g>
	<g>
		<path d="M378.181,490.978c0.829-0.803,4.11-3.736,3.128-0.664c-0.57,1.783-0.818,3.558-1.569,5.296
			c-0.175,0.403,1.603,0.005,1.826-0.247c0.897-1.017,2.449-3.155,3.453-1.23c0.53,1.017,0.495,2.341,0.435,3.448
			c-0.109,2.041-1.356,7.853-4.314,6.146c-0.481-0.278-2.061,0.516-1.821,0.654c4.713,2.722,7.583-3.126,8.032-6.909
			c0.194-1.644,0.212-4.522-1.796-5.06c-2.206-0.593-4.485,1.684-5.736,3.102c0.608-0.082,1.217-0.164,1.826-0.247
			c1.047-2.422,1.338-5.039,2.385-7.462c0.112-0.258-0.424-0.221-0.533-0.212c-3.049,0.246-4.887,1.431-7.064,3.536
			C376.028,491.522,377.852,491.298,378.181,490.978L378.181,490.978z"/>
	</g>
	<g>
		<path d="M393.535,484.598c-4.038-0.354-4.927,5.726-5.125,8.541c-0.225,3.195,2.167,9.968,6.545,8.012
			c4.385-1.959,2.568-6.956-0.858-8.779c-1.587-0.845-3.464-0.321-4.808,0.681c-1.998,1.489-1.694,4.696-1.024,6.723
			c0.218,0.661,2.139,0.109,1.932-0.518c-0.466-1.411-0.624-2.679-0.325-4.159c0.604-2.992,3.135-1.752,4.692-0.361
			c1.653,1.477,1.15,7.059-1.598,4.994c-2.294-1.723-2.767-4.853-2.582-7.478c0.067-0.952,0.878-6.719,2.392-6.586
			C393.496,485.728,394.837,484.712,393.535,484.598L393.535,484.598z"/>
	</g>
	<g>
		<path d="M399.412,478.835c-0.509,9.116-1.346,18.247-1.003,27.385c0.036,0.966,1.98,0.621,1.95-0.174
			c-0.343-9.138,0.494-18.269,1.003-27.385C401.415,477.708,399.457,478.025,399.412,478.835L399.412,478.835z"/>
	</g>
	<g>
		<path d="M405.645,485.34c0.479-1.151,2.016-4.918,3.881-3.959c1.45,0.745,1.831,3.15,1.77,4.562
			c-0.152,3.518-3.268,7.505-6.013,9.432c-0.445,0.313,0.598,0.256,0.684,0.242c5.63-0.889,9.839-5.239,15.13-7.06
			c1.308-0.451,0.061-0.63-0.653-0.385c-1.761,0.606-3.411,1.391-5.041,2.288c-2.534,1.393-5.576,2.772-7.915,4.415
			c2.936-2.061,5.2-5.965,5.74-9.45c0.366-2.361-1.309-5.536-4.002-5.032c-2.832,0.53-4.427,2.764-5.482,5.303
			C403.627,485.975,405.447,485.815,405.645,485.34L405.645,485.34z"/>
	</g>
	<g>
		<path d="M420.345,476.393c1.653,3.796,2.636,7.844,3.923,11.77c0.294,0.896,2.221,0.365,1.932-0.518
			c-1.286-3.926-2.27-7.974-3.923-11.77C421.898,475.006,419.982,475.56,420.345,476.393L420.345,476.393z"/>
	</g>
	<g>
		<path d="M588.316,366.315c4.558,0.491,9.211-2.144,13.227-3.938c8.854-3.956,17.799-7.723,26.675-11.631
			c17.759-7.821,35.179-16.178,52.494-24.925c32.595-16.466,65.846-31.913,96.523-51.86c0.813-0.529-1.132-0.301-1.484-0.072
			c-28.555,18.567-59.367,33.251-89.779,48.455c-15.481,7.739-30.859,15.554-46.639,22.681c-8.158,3.685-16.361,7.27-24.565,10.852
			c-3.941,1.722-7.886,3.434-11.838,5.133c-3.937,1.693-8.952,4.977-13.364,4.501C589.141,365.464,587.339,366.209,588.316,366.315
			L588.316,366.315z"/>
	</g>
	<g>
		<path d="M586.661,365.991c12.29,14.52,16.672,34.344,29.896,48.271c4.85,5.108,10.329,7.11,17.134,4.729
			c4.753-1.664,9.076-4.195,13.339-6.844c5.516-3.428,10.955-6.418,16.899-9.089c13.654-6.133,27.74-11.25,41.387-17.384
			c14.113-6.343,28.106-12.953,42.019-19.724c27.358-13.315,54.343-27.388,81.146-41.782c1.148-0.617-0.552-0.987-1.215-0.632
			c-24.956,13.402-50.079,26.493-75.496,39.002c-25.616,12.605-51.602,23.918-77.893,35.001c-6.579,2.773-13.101,5.678-19.561,8.718
			c-3.788,1.782-7.264,4.516-10.834,6.692c-4.982,3.039-11.21,6.793-17.281,5.832c-4.038-0.64-7.566-4.825-10.065-7.747
			c-11.686-13.665-16.106-32.136-27.688-45.817C587.993,364.677,586.141,365.377,586.661,365.991L586.661,365.991z"/>
	</g>
	<g>
		<path d="M495.975,215.922c6.242,4.341,10.12,12.324,13.888,18.706c4.964,8.409,10.263,16.575,15.686,24.697
			c6.275,9.399,12.709,18.69,18.917,28.134c6.718,10.22,12.442,20.891,18.573,31.457c4.393,7.57,8.65,15.89,13.893,22.905
			c2.659,3.558,8.72,1.508,12.124,0.569c12.89-3.556,26.2-11.954,36.533-20.336c1.019-0.827-0.53-1.507-1.285-0.895
			c-10.42,8.453-23.596,16.578-36.591,20.163c-2.718,0.75-6.831,2.077-9.013-0.356c-2.029-2.262-3.276-5.531-4.872-8.098
			c-5.784-9.298-11.382-18.676-16.586-28.315c-10.168-18.833-23.418-36.034-35.111-53.931c-4.415-6.758-8.553-13.636-12.705-20.558
			c-3.232-5.387-6.689-11.597-11.961-15.264C496.751,214.305,495.063,215.288,495.975,215.922L495.975,215.922z"/>
	</g>
	<g>
		<path d="M495.67,215.042c15.913-5.632,31.112-12.997,46.619-19.618c2.338-0.999,2.619-0.471,3.81,1.665
			c1.2,2.151,2.386,4.311,3.571,6.471c2.081,3.793,4.14,7.598,6.2,11.402c4.427,8.171,8.858,16.339,13.426,24.433
			c8.214,14.553,17.024,28.616,27.276,41.825c10.331,13.31,21.398,26.293,28.636,41.643c0.408,0.867,2.321,0.308,1.932-0.518
			c-10.226-21.687-27.715-38.624-40.784-58.483c-14.945-22.711-27.012-47.169-40.292-70.853c-0.245-0.437-0.958-0.307-1.316-0.158
			c-16.511,6.875-32.567,14.853-49.445,20.826C494.154,214.085,494.493,215.459,495.67,215.042L495.67,215.042z"/>
	</g>
	<g>
		<path d="M658.527,364.347c0.178-2.031,1.496-3.317,3.26-4.256c5.018-2.669,3.638,3.244,3.163,5.286
			c-0.832,3.579-2.69,6.848-3.594,10.419c-0.223,0.88,1.607,0.3,1.876-0.064c2.153-2.915,5.011-4.842,8.26-6.37
			c1.211-0.569,0.107-1.311-0.789-0.889c-3.654,1.719-6.861,3.891-9.283,7.169c0.625-0.022,1.25-0.042,1.876-0.064
			c1.407-5.561,5.139-10.843,3.69-16.767c-0.039-0.161-0.23-0.278-0.384-0.301c-3.997-0.577-9.604,1.381-10.015,6.052
			C656.514,365.412,658.465,365.058,658.527,364.347L658.527,364.347z"/>
	</g>
	<g>
		<path d="M670.668,354.163c0.018,0.034,0.036,0.067,0.055,0.102c0.2,0.376,1.016,0.219,1.293,0.075
			c1.697-0.879,2.99-2.51,4.548-3.604c-0.51-0.139-1.019-0.277-1.528-0.416c-1.048,2.422-1.339,5.038-2.386,7.461
			c-0.401,0.93,1.331,0.726,1.7,0.275c2.785-3.396,6.803-3.763,8.234,0.893c0.533,1.735,0.121,3.561-0.748,5.097
			c-0.489,0.864-6.263,5.235-6.567,3.282c-0.359,0.291-0.718,0.581-1.077,0.871c0.319,0.019,0.635,0.067,0.944,0.147
			c0.709,0.153,2.29-0.916,1.152-1.162c-0.622-0.135-1.235-0.279-1.874-0.208c-0.42,0.047-1.162,0.325-1.077,0.87
			c0.491,3.148,6.887-0.436,7.952-1.167c2.422-1.66,3.66-4.412,3.411-7.3c-0.214-2.474-1.985-4.626-4.351-5.29
			c-2.993-0.84-5.824,1.397-7.58,3.537c0.567,0.092,1.134,0.184,1.7,0.275c1.047-2.423,1.338-5.038,2.386-7.461
			c0.384-0.888-1.13-0.696-1.528-0.416c-1.395,0.98-2.624,2.595-4.115,3.367c0.431,0.024,0.862,0.05,1.293,0.074
			c-0.018-0.033-0.036-0.067-0.054-0.102C672.107,352.722,670.239,353.359,670.668,354.163L670.668,354.163z"/>
	</g>
	<g>
		<path d="M688.057,344.101c0.915,8.857,1.793,17.712,2.075,26.616c0.01,0.311,1.948,0.01,1.932-0.518
			c-0.282-8.904-1.16-17.759-2.075-26.616C689.952,343.235,688.005,343.603,688.057,344.101L688.057,344.101z"/>
	</g>
	<g>
		<path d="M697.212,338.871c0.207,6.274,0.666,12.468-0.527,18.681c-0.024,0.127,0.029,0.174,0.158,0.202
			c5.066,1.129,8.499-6.027,8.916-9.938c0.029-0.27-1.837-0.038-1.918,0.429c-0.921,5.265-0.064,10.35,0.907,15.55
			c0.075,0.404,2.021-0.044,1.932-0.518c-0.96-5.138-1.847-10.155-0.935-15.373c-0.639,0.143-1.278,0.286-1.918,0.429
			c-0.304,2.841-1.031,4.753-2.937,6.891c-3.236,3.632-2.014,0.584-1.723-1.539c0.693-5.049,0.142-10.265-0.024-15.332
			C699.133,338.022,697.194,338.33,697.212,338.871L697.212,338.871z"/>
	</g>
	<g>
		<path d="M710.233,337.488c1.354-1.847,2.943-3.867,5.023-4.923c-0.45-0.099-0.901-0.198-1.352-0.297
			c-0.934,4.181-1.935,8.299-3.464,12.308c-0.275,0.72,1.603,0.332,1.868-0.087c0.787-1.239,2.791-5.128,4.028-2.553
			c0.866,1.802,0.783,4.171,0.69,6.103c-0.102,2.127-0.486,4.279-1.244,6.273c-1.068,2.811-2.298,1.152-3.403-0.773
			c-0.325-0.567-2.205,0.045-1.791,0.766c1.133,1.975,3.112,4.061,5.424,2.29c2.416-1.85,2.76-6.027,2.949-8.789
			c0.156-2.287,0.398-6.501-1.935-7.867c-2.653-1.552-5.496,2.878-6.521,4.492c0.623-0.029,1.245-0.058,1.868-0.087
			c1.53-4.009,2.53-8.128,3.464-12.309c0.143-0.635-1.087-0.433-1.353-0.297c-2.514,1.276-4.406,3.443-6.055,5.692
			C707.898,338.154,709.852,338.009,710.233,337.488L710.233,337.488z"/>
	</g>
	<g>
		<path d="M544.286,246.416c-3.362,2.389-5.753,5.998-8.06,9.351c-0.165,0.24,0.47,0.221,0.534,0.215
			c1.942-0.185,4.014,0.886,5.856,1.372c0.349,0.092,1.646-0.09,1.747-0.544c0.257-1.154,0.513-2.308,0.769-3.462
			c0.115-0.517-1.621,0.022-1.827,0.245c-2.834,3.069-5.06,6.395-6.695,10.25c-0.136,0.321,1.696,0.15,1.905-0.342
			c1.603-3.779,3.75-7.037,6.538-10.057c-0.609,0.082-1.218,0.164-1.827,0.245c-0.256,1.154-0.513,2.308-0.77,3.462
			c0.583-0.181,1.165-0.362,1.747-0.544c-1.277-0.337-2.523-0.764-3.787-1.146c-0.856-0.259-2.406,0.138-1.727-0.849
			c2.011-2.923,4.147-6.065,7.075-8.145C546.555,245.907,544.622,246.178,544.286,246.416L544.286,246.416z"/>
	</g>
	<g>
		<path d="M550.225,251.606c-2.661,5.126-6.418,9.566-9.079,14.692c-0.169,0.324,1.647,0.18,1.909-0.325
			c2.661-5.126,6.418-9.566,9.079-14.692C552.302,250.956,550.486,251.101,550.225,251.606L550.225,251.606z"/>
	</g>
	<g>
		<path d="M554.496,261.755c-1.208,2.57-2.507,5.474-4.497,7.532c-0.787,0.814,0.905,1.035,1.418,0.61
			c2.094-1.734,4.473-2.888,6.77-4.307c0.908-0.561-0.109-1.152-0.781-0.966c-1.898,0.528-3.86,1.331-4.704,3.245
			c-0.869,1.971,0.432,4.26,1.432,5.903c0.402,0.661,2.264-0.016,1.779-0.811c-1.876-3.081-2.278-6.024,1.808-7.16
			c-0.261-0.322-0.521-0.644-0.781-0.966c-2.307,1.425-4.667,2.566-6.77,4.307c0.473,0.204,0.945,0.407,1.418,0.61
			c2.093-2.165,3.466-5.151,4.735-7.852C556.767,260.958,554.819,261.067,554.496,261.755L554.496,261.755z"/>
	</g>
	<g>
		<path d="M567.364,262.632c-2.099,5.506-5.787,10.179-8.476,15.386c-0.446,0.865,1.498,0.689,1.81,0.084
			c2.743-5.311,6.462-10.072,8.603-15.69C569.566,261.718,567.622,261.955,567.364,262.632L567.364,262.632z"/>
	</g>
	<g>
		<path d="M583.533,141.549c6.076,8.331,11.058,17.477,16.33,26.33c2.734,4.59,6.685,13.947,12.577,15.153
			c6.357,1.301,13.8-3.396,18.99-6.357c7.089-4.044,13.661-9.31,21.1-12.699c0.234-0.107,0.703-0.459,0.55-0.786
			c-6.782-14.46-15.02-28.308-25.231-40.62c-0.363-0.438-1.116-0.258-1.518,0.011c-12.69,8.492-27.317,13.367-40.712,20.566
			c-1.163,0.625-0.107,1.559,0.833,1.054c13.543-7.278,28.309-12.226,41.141-20.814c-0.506,0.004-1.013,0.007-1.519,0.011
			c4.898,5.905,9.292,12.159,13.369,18.654c1.215,1.935,11.85,21.054,11.631,21.154c-8.687,3.958-16.26,10.309-24.723,14.742
			c-3.679,1.926-10.158,5.519-14.357,3.372c-3.387-1.732-5.931-7.128-7.861-10.183c-6.364-10.071-11.794-20.774-18.826-30.415
			C584.822,140.056,582.972,140.78,583.533,141.549L583.533,141.549z"/>
	</g>
	<g>
		<path fill="#FF8900" d="M505.025,154.422c2.752-6.623,13.483-7.537,19.555-8.33c7.912-1.034,16.069-1.267,24.022-0.566
			c1.39,0.123,4.879-1.015,3.77-2.957c-2.783-4.873-7.026-8.239-11.153-11.924c-1.655,0.886-3.31,1.772-4.964,2.658
			c4.964,3.371,9.269,7.502,13.681,11.542c0.282-0.724,0.564-1.449,0.845-2.173c-5.026,3.325-10.366,7.915-8.988,14.542
			c0.46,2.212,6.273,0.741,5.796-1.553c-1.063-5.113,3.016-8.453,6.861-10.996c0.572-0.378,1.634-1.451,0.845-2.173
			c-4.659-4.266-9.232-8.595-14.471-12.153c-1.431-0.972-6.74,1.073-4.964,2.658c4.126,3.685,8.37,7.052,11.153,11.924
			c1.257-0.986,2.514-1.971,3.77-2.957c-9.6-0.846-19.49-0.371-29,1.115c-7.27,1.136-18.963,3.279-22.198,11.06
			C498.434,156.91,504.227,156.34,505.025,154.422L505.025,154.422z"/>
	</g>
	<g>
		<path fill="#FF8900" d="M678.549,149.523c18.858-12.086,46.486-5.078,62.194,9.251c1.197,1.092,6.467-1.094,5.447-2.024
			c-18.76-17.113-50.398-21.449-72.116-7.53C671.591,150.811,677.44,150.233,678.549,149.523L678.549,149.523z"/>
	</g>
	<g>
		<path fill="#FF8900" d="M677.286,147.852c1.792-4.285,5.144-6.734,9.131-8.856c-1.498-0.305-2.996-0.609-4.494-0.914
			c-1.9,2.269-8.99,8.548-7.047,12.27c0.707,1.355,2.246,2.15,3.466,2.976c2.648,1.793,4.951,3.919,7.047,6.331
			c1.316,1.515,6.862-0.563,5.383-2.266c-2.95-3.395-6.623-5.421-9.853-8.394c-2.39-2.2,5.232-9.407,6.398-10.8
			c1.812-2.164-3.782-1.293-4.494-0.914c-5.012,2.669-9.1,5.959-11.332,11.297C670.723,150.421,676.494,149.746,677.286,147.852
			L677.286,147.852z"/>
	</g>
	<g>
		<path fill="#FF8900" d="M647.12,184.452c14.001,9.803,9.045,29.825,6.013,43.725c-0.313,1.433,5.356,0.485,5.727-0.985
			c0-0.001,0-0.002,0.001-0.004c0.346-1.374-5.348-0.521-5.727,0.984c0,0.001,0,0.003-0.001,0.004
			c1.909-0.328,3.817-0.656,5.727-0.985c3.119-14.301,8.1-34.676-6.288-44.749C651.197,181.48,646.19,183.801,647.12,184.452
			L647.12,184.452z"/>
	</g>
	<g>
		<path fill="#FF8900" d="M645.102,185.993c-0.132,3.345-0.638,6.655-0.771,10c-0.066,1.675,5.299,0.099,5.779-1.197
			c1.563-4.207,2.012-8.684,1.401-13.126c-1.57,0.733-3.142,1.466-4.713,2.199c5.346,0.515,10.978,0.995,15.571,4.041
			c1.569,1.041,6.718-1.289,5.412-2.154c-5.174-3.432-11.307-4.149-17.353-4.732c-1.134-0.109-4.963,0.38-4.713,2.199
			c0.581,4.234,0.116,8.41-1.37,12.414c1.926-0.399,3.853-0.798,5.779-1.197c0.133-3.345,0.639-6.655,0.77-10.001
			C650.954,183.022,645.184,183.942,645.102,185.993L645.102,185.993z"/>
	</g>
	<g>
		<path d="M545.406,579.148c0.375-3.68,6.734-4.859,9.63-4.827c-0.28-0.276-0.56-0.552-0.84-0.828
			c-1.4,3.011-2.131,6.341-4.117,9.055c0.578,0.135,1.156,0.269,1.734,0.404c1.125-2.837,3.203-5.525,6.411-3.589
			c2.221,1.34,3.09,4.152,2.981,6.591c-0.161,3.585-3.106,6.063-6.487,6.487c-1.794,0.225-6.063-0.46-5.773-3.06
			c0.111-1.002-1.86-0.739-1.958,0.142c-0.382,3.443,4.361,4.33,6.872,4.381c4.507,0.091,8.266-3.105,9.212-7.391
			c0.825-3.734-1.471-7.796-5.015-9.07c-3.881-1.395-6.826,2.089-8.091,5.28c-0.397,1.001,1.309,0.986,1.734,0.404
			c2.08-2.844,2.88-6.252,4.346-9.406c0.273-0.586-0.391-0.823-0.84-0.828c-3.739-0.042-11.278,1.711-11.756,6.399
			C543.345,580.296,545.316,580.031,545.406,579.148L545.406,579.148z"/>
	</g>
	<g>
		<path d="M567.975,583.702c3.498-1.729,5.654-4.705,7.248-8.196c0.055-0.122-0.059-0.151-0.151-0.176
			c-2.24-0.58-5.513-0.753-7.208,1.208c-1.492,1.726-0.923,4.335,0.135,6.127c1.17,1.982,3.082,2.76,5.286,2.196
			c3.661-0.937,5.127-5.244,6.093-8.433c0.097-0.32-1.761-0.101-1.9,0.359c-0.475,1.567-2.24,7.814-4.708,7.549
			c-1.719-0.185-2.892-2.008-3.456-3.464c-0.581-1.502-0.705-3.528,0.516-4.754c0.617-0.618,3.676-0.652,3.211,0.364
			c-1.308,2.865-3.282,5.604-6.162,7.029C565.739,584.076,567.555,583.91,567.975,583.702L567.975,583.702z"/>
	</g>
	<g>
		<path d="M580.386,570.252c0.027,3.545,1.279,6.918,1.307,10.463c0.034,0.083,0.095,0.136,0.184,0.159
			c0.231,0.051,0.462,0.102,0.693,0.153c0.276,0.061,1.994-0.098,1.748-0.677c-1.465-3.449-1.883-7.354-0.468-10.89
			c-0.621,0.167-1.242,0.333-1.863,0.499c3.325,2.371,5.888,5.579,8.091,8.985c0.358,0.554,2.163-0.161,1.932-0.518
			c-2.245-3.471-4.824-6.754-8.215-9.171c-0.441-0.315-1.654-0.021-1.863,0.499c-1.437,3.592-1.037,7.602,0.454,11.112
			c0.583-0.226,1.165-0.451,1.748-0.677c-0.804-0.178-0.515-0.752-0.562-1.523c-0.061-0.997-0.268-1.99-0.454-2.97
			c-0.38-1.991-0.785-3.929-0.801-5.965C582.314,569.279,580.381,569.606,580.386,570.252L580.386,570.252z"/>
	</g>
	<g>
		<path d="M592.483,574.16c4.316-1.602,6.713-5.41,7.061-9.924c0.011-0.138-0.026-0.244-0.18-0.284
			c-2.52-0.654-5.582-0.543-7.264,1.743c-1.527,2.075-1.096,5.184-0.193,7.408c0.852,2.101,2.562,3.96,4.975,3.861
			c3.613-0.147,5.744-3.776,7.122-6.65c0.223-0.464-1.652-0.273-1.92,0.285c-0.9,1.877-3.086,6.644-5.875,5.019
			c-1.798-1.048-2.671-3.35-3.025-5.287c-0.341-1.87-0.168-4.561,1.698-5.605c0.498-0.279,1.164-0.216,1.704-0.162
			c1.395,0.137,0.911,1.326,0.683,2.354c-0.659,2.964-2.637,5.538-5.507,6.603C590.482,573.996,591.672,574.461,592.483,574.16
			L592.483,574.16z"/>
	</g>
	<g>
		<path d="M602.002,561.253c0.703,2.91,1.271,5.775,2.462,8.54c0.296,0.686,2.17,0.168,1.932-0.518
			c-0.871-2.511-1.052-5.183-1.922-7.693c-0.62,0.215-1.24,0.43-1.86,0.645c1.529,2.537,4.316,4.704,7.275,2.815
			c2.729-1.742,3.689-5.1,2.893-8.151c-0.2-0.767-1.749-0.143-1.934,0.372c-1.481,4.125-0.267,7.991,2.765,11.042
			c0.501,0.505,2.333-0.225,1.789-0.771c-2.909-2.93-4.039-6.54-2.618-10.497c-0.645,0.124-1.289,0.248-1.934,0.372
			c0.516,1.974,0.274,3.854-0.762,5.612c-1.885,3.195-4.454,0.477-5.686-1.565c-0.316-0.525-2.086-0.005-1.86,0.645
			c0.87,2.511,1.051,5.183,1.922,7.693c0.643-0.173,1.288-0.345,1.932-0.518c-1.19-2.765-1.759-5.63-2.462-8.54
			C603.762,560.023,601.826,560.528,602.002,561.253L602.002,561.253z"/>
	</g>
	<g>
		<path d="M617.167,555.077c-2.149,4.204-1.836,8.335,3.493,8.962c0.251,0.029,1.754-0.204,1.583-0.686
			c-0.52-1.461-0.476-2.638-0.566-4.119c-0.07-1.131-2.666-1.685-3.382-1.943c-0.524,0.265-1.05,0.53-1.574,0.795
			c5.671,1.004,9.373-2.738,10.666-8.017c0.126-0.516-1.746-0.174-1.912,0.316c-1.295,3.821,0.535,6.637,2.144,10.025
			c0.249,0.525,2.116-0.129,1.932-0.518c-1.575-3.316-3.448-6.031-2.164-9.823c-0.638,0.106-1.274,0.211-1.912,0.316
			c-0.856,3.49-2.74,7.691-7.18,6.905c-0.375-0.066-2.283,0.538-1.574,0.795c0.872,0.316,2.962,0.665,3.035,1.85
			c0.088,1.422,0.057,2.532,0.556,3.936c0.527-0.229,1.056-0.457,1.583-0.686c-5.017-0.591-4.659-4.818-2.815-8.425
			C619.262,554.403,617.432,554.56,617.167,555.077L617.167,555.077z"/>
	</g>
	<g>
		<path d="M631.071,547.924c-1.177,3.787-1.19,10.454,4.607,9.352c6.306-1.199,8.512-8.784,8.577-14.282
			c0.012-1.004-1.805-0.641-1.953,0.162c-0.828,4.478,0.6,8.405,3.318,11.954c0.514,0.67,2.359-0.071,1.773-0.836
			c-2.592-3.381-3.928-7.015-3.139-11.28c-0.651,0.054-1.302,0.108-1.953,0.162c-0.055,4.55-1.285,10.373-5.838,12.534
			c-5.009,2.377-4.178-5.554-3.44-7.928C633.295,546.892,631.32,547.121,631.071,547.924L631.071,547.924z"/>
	</g>
	<g>
		<path d="M639.092,545.904c-1.219-1.166,0.45-3.297,1.099-4.381c0.515-0.859-1.445-0.759-1.822-0.129
			c-0.828,1.382-2.604,3.834-1.058,5.313C637.869,547.241,639.698,546.484,639.092,545.904L639.092,545.904z"/>
	</g>
	<g>
		<path d="M657.851,537.223c0.006-0.013,0.012-0.025,0.017-0.038c-0.581,0.185-1.162,0.369-1.743,0.554
			c-0.226-0.082,0.055,0.734,0.104,1.012c0.169,0.927,0.309,1.86,0.453,2.791c0.268,1.724,0.467,3.478,0.863,5.179
			c0.111,0.478,1.955,0.009,1.932-0.518c-0.132-2.955,0.325-6.97,2.975-8.849c0.863-0.611,1.852,0.885,2.159,1.486
			c0.806,1.573,0.815,3.546,0.78,5.265c-0.008,0.367,1.92,0.086,1.932-0.518c0.064-3.18-0.683-8.467-5.103-6.957
			c-3.989,1.363-4.838,6.439-4.675,10.09c0.644-0.173,1.288-0.345,1.932-0.518c-0.427-1.828-0.637-3.719-0.925-5.571
			c-0.095-0.615-0.138-3.421-0.852-3.681c-0.431-0.157-1.545,0.086-1.743,0.554c-0.006,0.013-0.012,0.025-0.017,0.039
			C655.772,537.935,657.63,537.743,657.851,537.223L657.851,537.223z"/>
	</g>
	<g>
		<path d="M670.016,529.767c-0.477,5.947,0.066,11.983,2.684,17.415c0.267,0.554,2.135-0.097,1.932-0.517
			c-2.579-5.353-3.17-11.331-2.699-17.2C671.981,528.843,670.058,529.248,670.016,529.767L670.016,529.767z"/>
	</g>
	<g>
		<path d="M669.112,535.593c0.882-1.19,2.119-2.529,3.735-2.361c1.119,0.116,2.035,1.161,2.461,2.123
			c1.616,3.649-2.13,5.993-5.178,6.63c-1.198,0.251-0.878,1.353,0.297,1.107c3.831-0.801,9.071-4.116,6.591-8.711
			c-0.8-1.482-2.298-2.39-3.985-2.395c-2.439-0.009-4.362,1.637-5.739,3.495C666.728,536.245,668.693,536.158,669.112,535.593
			L669.112,535.593z"/>
	</g>
	<g>
		<path d="M679.729,537.931c0.62,0,2.091-0.94,0.793-0.94C679.902,536.991,678.432,537.931,679.729,537.931L679.729,537.931z"/>
	</g>
	<g>
		<path d="M596.03,108.124c4.86,4.942,8.6,10.719,12.307,16.54c0.323,0.507,1.746,0.01,1.863-0.499
			c1.554-6.778,3.592-13.494,3.079-20.521c-0.045-0.623-1.985-0.217-1.932,0.518c0.506,6.934-1.547,13.568-3.079,20.249
			c0.621-0.166,1.242-0.332,1.863-0.499c-3.708-5.821-7.447-11.598-12.307-16.54C597.353,106.892,595.523,107.609,596.03,108.124
			L596.03,108.124z"/>
	</g>
	<g>
		<path d="M598.256,105.794c-11.87-0.481-23.016-7.184-26.042-19.179c-3.492-13.845,8.799-25.428,20.829-29.361
			c11.843-3.871,25.621-0.206,29.992,12.329c1.726,4.952,1.262,10.058,0.232,15.078c-0.618,3.012-3.437,15.804-8.318,14.673
			c-0.976-0.227-1.931,1.152-0.656,1.447c9.199,2.133,12.368-19.912,11.835-25.521c-1.454-15.312-14.23-22.711-28.737-20.489
			c-13.772,2.11-27.781,13.316-27.647,28.135c0.133,14.679,14.549,23.797,27.855,24.336
			C598.561,107.28,599.562,105.847,598.256,105.794L598.256,105.794z"/>
	</g>
	<g>
		<path d="M608.045,61.913c2.513-4.979,10.288-13.135,16.294-9.269c0.523,0.337,2.228-0.442,1.805-0.714
			c-7.317-4.711-16.927,4.141-20.019,10.267C605.896,62.65,607.765,62.469,608.045,61.913L608.045,61.913z"/>
	</g>
	<g>
		<path d="M614.849,53.495c8.697,4.42,18.616,6.133,25.898-1.599c0.524-0.557-1.396-0.396-1.783,0.015
			c-6.433,6.829-15.139,4.479-22.563,0.706C615.892,52.357,614.105,53.118,614.849,53.495L614.849,53.495z"/>
	</g>
	<g>
		<path d="M616.853,51.771c4.1-10.14,19.4-13.829,25.117-3.14c0.393,0.735,2.241,0.038,1.771-0.839
			c-6.376-11.921-24.217-7.384-28.731,3.78C614.602,52.588,616.543,52.539,616.853,51.771L616.853,51.771z"/>
	</g>
	<g>
		<path d="M598.074,77.584c-6.453-0.074-8.521,5.442-5.229,10.719c3.96,6.348,11.687,6.987,17.523,2.738
			c5.923-4.313,5.503-12.904-0.628-16.726c-5.144-3.207-13.041-1.854-15.237,4.17c-0.236,0.648,1.697,0.401,1.932-0.242
			c2.146-5.889,9.256-5.257,13.358-1.842c4.003,3.332,3.642,9.555,0.352,13.167c-4.009,4.402-10.506,3.957-14.293-0.298
			c-2.634-2.959-4.946-10.663,1.472-10.59C598.048,78.688,599.381,77.599,598.074,77.584L598.074,77.584z"/>
	</g>
	<g>
		<path d="M395.246,308.229c4.722,13.719,14.629,24.875,22.353,36.936c8.519,13.303,14.787,27.899,23.649,41.014
			c0.292,0.432,0.918,0.316,1.318,0.165c11.705-4.409,22.899-10.427,32.6-18.361c0.185-0.15,0.435-0.46,0.318-0.726
			c-10.666-24.433-24.347-48.905-40.675-70.032c-3.479-4.503-6.956-7.544-12.732-5.316c-10.289,3.968-21.91,8.918-30.282,16.208
			c-0.989,0.861,0.539,1.593,1.295,0.934c7.676-6.683,17.694-10.419,26.831-14.673c3.346-1.558,6.421-2.799,9.578-0.255
			c3.466,2.794,5.969,7.203,8.438,10.82c12.895,18.895,24.696,38.647,34.148,59.5c1.394,3.075,0.359,3.8-2.045,5.609
			c-2.658,2.001-5.478,3.787-8.32,5.509c-4.451,2.694-9.129,5.003-13.88,7.113c-1.295,0.575-4.668,2.87-5.805,1.188
			c-1.642-2.43-3.162-4.941-4.667-7.457c-2.735-4.573-5.257-9.273-7.789-13.96c-4.901-9.072-9.884-17.956-15.781-26.426
			c-6.245-8.97-13.025-17.869-16.619-28.31C396.862,306.795,394.936,307.328,395.246,308.229L395.246,308.229z"/>
	</g>
	<g>
		<path d="M414.94,311.019c-0.128,0.39,5.023-0.045,5.049-0.045c-0.073-0.272-0.146-0.545-0.219-0.818
			c-1.892,1.263-3.596,2.753-5.706,3.659c-0.287,0.123-0.919,0.581-0.391,0.85c2.6,1.327,3.532,3.901,1.046,5.904
			c-3.047,2.456-4.772-1.849-4.926-4.241c-0.04-0.614-1.979-0.214-1.932,0.518c0.135,2.096,0.714,4.364,2.854,5.207
			c1.463,0.577,3.315,0.171,4.638-0.582c3.633-2.068,3.583-5.831-0.141-7.732c-0.13,0.283-0.261,0.567-0.391,0.85
			c2.278-0.979,4.099-2.515,6.143-3.878c0.487-0.325,0.454-0.841-0.219-0.818c-0.718,0.025-5.916-0.137-6.014,1.359
			c-0.01,0.152,0.035,0.281,0.195,0.338c0.69,0.249,1.702-0.084,1.944-0.82C417.086,310.116,415.15,310.379,414.94,311.019
			L414.94,311.019z"/>
	</g>
	<g>
		<path d="M431.089,316.439c-3.228-1.114-6.536-0.841-9.371,1.119c-2.765,1.912-3.936,5.518-4.807,8.61
			c-0.788,2.796-0.215,5.972,3.358,4.539c2.126-0.853,4.785-2.973,5.459-5.261c1.057-3.585-5.904-0.943-6.93-0.527
			c-1.236,0.501-0.13,1.418,0.826,1.03c0.487-0.198,4.927-2.208,4.112-0.234c-0.626,1.518-2.229,2.888-3.636,3.659
			c-1.853,1.015-1.74-0.936-1.482-2.357c0.388-2.146,1.26-4.365,2.282-6.277c1.843-3.448,5.568-4.28,9.052-3.078
			C430.708,317.922,432.227,316.831,431.089,316.439L431.089,316.439z"/>
	</g>
	<g>
		<path d="M433.722,324.958c-2.819,2.973-5.61,5.956-7.965,9.317c0.611,0.056,1.221,0.11,1.832,0.166
			c2.341-3.808,5.358-6.792,9.098-9.229c-0.534-0.102-1.068-0.203-1.603-0.305c-0.891,4.009-1.783,8.017-2.673,12.026
			c-0.197,0.886,1.772,0.618,1.949-0.177c0.019-0.085,0.038-0.171,0.057-0.257c0.197-0.886-1.772-0.618-1.949,0.177
			c-0.019,0.086-0.038,0.171-0.057,0.257c0.65-0.059,1.299-0.118,1.949-0.177c0.89-4.009,1.782-8.018,2.673-12.026
			c0.185-0.833-1.281-0.514-1.603-0.305c-3.972,2.586-7.189,5.808-9.674,9.849c-0.559,0.909,1.417,0.759,1.832,0.166
			c2.275-3.248,5.007-6.121,7.729-8.991C436.142,324.581,434.269,324.381,433.722,324.958L433.722,324.958z"/>
	</g>
	<g>
		<path d="M426.313,330.577c2.085,0.464,4.706,0.786,6.464,2.083c0.554,0.409,2.328-0.364,1.794-0.758
			c-1.969-1.453-4.742-1.86-7.076-2.379C426.876,329.386,425.213,330.332,426.313,330.577L426.313,330.577z"/>
	</g>
	<g>
		<path d="M444.029,338.357c-2.563-3.007-6.942-1.764-8.361,1.697c-0.585,1.428-0.321,3.097,0.85,4.139
			c1.9,1.691,5.026,1.454,7.339,1.118c0.952-0.138,1.579-1.327,0.247-1.133c-2.706,0.394-7.67,0.177-6.661-3.857
			c0.249-0.994,0.955-2.02,1.903-2.455c1.026-0.471,2.2,0.45,2.895,1.265C442.698,339.668,444.55,338.968,444.029,338.357
			L444.029,338.357z"/>
	</g>
	<g>
		<path d="M450.229,338.421c-0.722,3.247-1.441,6.495-2.043,9.766c-0.195,1.06-1.135,3.868-0.098,4.754
			c0.702,0.6,2.353-0.414,1.477-1.162c-0.225-0.192,0.692-4.295,0.839-5.068c0.537-2.816,1.168-5.614,1.79-8.412
			C452.415,337.298,450.432,337.51,450.229,338.421L450.229,338.421z"/>
	</g>
	<g>
		<path d="M268.749,380.25c34.508-15.193,68.83-31.063,103.776-45.224c-0.453-0.061-0.906-0.122-1.359-0.183
			c6.356,13.029,13.845,25.448,20.884,38.11c1.203,2.164,2.376,4.344,3.542,6.528c1.418,2.658,0.036,2.104-2.197,2.909
			c-3.481,1.257-6.914,2.647-10.332,4.065c-6.836,2.837-13.533,6.002-20.194,9.224c-13.228,6.397-26.129,13.355-39.951,18.423
			c-13.549,4.969-27.443,8.9-40.575,14.96c-1.216,0.56-0.109,1.297,0.787,0.883c13.665-6.305,28.165-10.408,42.267-15.579
			c14.953-5.483,28.913-13.371,43.268-20.207c7.239-3.447,14.579-6.672,22.05-9.582c1.973-0.768,5.835-1.347,7.351-2.797
			c1.221-1.168-0.946-3.573-1.432-4.485c-7.687-14.414-16.368-28.276-23.536-42.969c-0.238-0.488-0.956-0.346-1.359-0.183
			c-34.946,14.161-69.269,30.03-103.776,45.225C266.734,379.907,267.851,380.647,268.749,380.25L268.749,380.25z"/>
	</g>
	<g>
		<path d="M320.4,375.173c1.267-2.069,4.922-3.586,7.088-4.509c-0.44-0.057-0.879-0.113-1.319-0.169
			c-1.135,2.655-1.495,5.448-3.16,7.879c0.616-0.056,1.231-0.111,1.847-0.168c3.332-6.194,4.678,3.462,4.459,6.135
			c-0.176,2.151-0.961,4.359-2.576,5.842c-2.592,2.379-6.152,0.193-7.952-1.629c-1.462-1.481-1.621-3.525-0.855-5.348
			c0.206-0.488-1.683-0.274-1.919,0.289c-2.084,4.956,3.084,8.364,7.478,8.488c4.373,0.123,6.92-3.321,7.648-7.212
			c0.539-2.883,0.391-8.015-2.446-9.77c-2.466-1.526-4.823,1.758-5.756,3.493c-0.249,0.463,1.579,0.225,1.847-0.168
			c1.712-2.5,2.13-5.374,3.303-8.121c0.226-0.527-1.176-0.229-1.319-0.169c-2.445,1.043-6.686,2.801-8.145,5.183
			C318.206,375.902,320.119,375.631,320.4,375.173L320.4,375.173z"/>
	</g>
	<g>
		<path d="M332.239,366.148c0.352,5.303,1.075,10.632,0.088,15.909c-0.088,0.468,1.114,0.125,1.29,0.061
			c1.861-0.685,3.415-1.894,4.939-3.139c2.36-1.929,1.942-3.64,0.614-6.425c-0.206-0.433-1.997,0.044-1.932,0.518
			c0.573,4.157,0.479,8.363,0.846,12.539c0.033,0.376,1.978,0.015,1.932-0.517c-0.367-4.176-0.273-8.382-0.846-12.539
			c-0.644,0.173-1.288,0.345-1.932,0.518c0.436,0.916,1.733,3.887,0.823,4.89c-1.327,1.463-3.252,3.014-5.118,3.699
			c0.43,0.021,0.86,0.041,1.29,0.061c0.999-5.34,0.294-10.72-0.063-16.091C334.146,365.266,332.203,365.607,332.239,366.148
			L332.239,366.148z"/>
	</g>
	<g>
		<path d="M411.299,596.718c5.888-0.523,11.035-2.913,16.212-5.636c6.929-3.643,13.941-6.901,21.187-9.873
			c14.514-5.951,29.117-11.477,43.412-17.959c29.524-13.387,58.776-27.075,89.047-38.725c14.949-5.753,29.936-11.411,44.674-17.691
			c14.941-6.368,29.62-13.344,44.565-19.716c29.809-12.707,60.028-24.42,90.168-36.309c19.63-7.743,39.369-15.343,58.682-23.854
			c9.229-4.068,18.264-8.575,26.996-13.625c8.275-4.786,16.337-9.724,25.192-13.399c1.22-0.507,0.142-1.613-0.871-1.193
			c-13.225,5.49-24.999,13.71-37.724,20.191c-13.724,6.99-28.088,12.648-42.352,18.417c-30.058,12.157-60.34,23.749-90.395,35.911
			c-30.031,12.152-59.265,26.162-89.307,38.243c-29.969,12.051-60.052,23.31-89.443,36.768
			c-18.032,8.257-35.926,16.933-54.379,24.221c-9.284,3.667-18.625,7.174-27.77,11.182c-8.99,3.941-17.762,10.691-27.74,11.579
			C410.354,595.348,409.985,596.835,411.299,596.718L411.299,596.718z"/>
	</g>
	<g>
		<path d="M444.503,645.536c10.905,0.912,21.586-7.321,31.066-11.686c14.39-6.625,28.782-13.246,43.376-19.415
			c14.611-6.177,29.576-11.451,44.213-17.571c14.498-6.063,28.804-12.575,43.123-19.045
			c58.282-26.334,118.344-48.428,176.641-74.786c27.002-12.208,53.31-26.03,80.601-37.564c25.147-10.63,50.976-20.276,73.22-36.468
			c1.063-0.773-0.511-1.445-1.281-0.885c-23.494,17.101-51.032,26.884-77.523,38.222c-28.619,12.249-56.283,26.801-84.709,39.53
			c-58.304,26.111-118.167,48.41-176.39,74.688c-25.385,11.458-51.289,21.305-76.979,31.995
			c-12.911,5.373-25.637,11.187-38.342,17.026c-5.547,2.55-11.169,4.97-16.577,7.808c-6.073,3.188-12.642,7.342-19.77,6.746
			C444.226,644.051,443.195,645.427,444.503,645.536L444.503,645.536z"/>
	</g>
	<g>
		<path fill="#FF8900" d="M648.284,423.009c1.712,3.441,4.089,6.596,6.174,9.814c1.509,2.327,2.983,4.678,4.338,7.099
			c0.546,0.976,2.497,3.849,1.809,5.071c-0.436,0.772,1.496,0.537,1.791,0.014c1.307-2.317-2.414-6.944-3.532-8.794
			c-2.777-4.595-6.254-8.91-8.648-13.722C649.897,421.852,648.021,422.48,648.284,423.009L648.284,423.009z"/>
	</g>
	<g>
		<path fill="#FF8900" d="M649.111,423.261c1.604-0.186,3.076-0.594,4.52-1.344c1.3-0.674,2.552-1.438,3.878-2.06
			c3.205-1.507,4.858,3.535,5.665,5.279c1.768,3.821,2.986,7.9,4.36,11.872c0.512,1.479,0.735,3.605,1.858,4.758
			c0.331,0.34,1.163,0.121,1.492-0.106c0.069-0.049,0.139-0.097,0.209-0.146c1.073-0.745-0.604-0.934-1.188-0.529
			c-0.069,0.048-0.139,0.097-0.209,0.145c0.498-0.035,0.995-0.07,1.492-0.107c-1.764-1.81-2.489-6.757-3.265-9.025
			c-1.414-4.136-2.789-8.849-5.612-12.273c-3.19-3.868-9.712,2.145-12.924,2.515C648.471,422.346,647.769,423.415,649.111,423.261
			L649.111,423.261z"/>
	</g>
	<g>
		<path fill="#FF8900" d="M672.934,434.935c3.506-0.799,6.936-4.201,7.185-7.91c0.308-4.6-5.993-1.676-7.599-0.129
			c-5.688,5.482,6.199,15.531,9.657,7.226c0.435-1.043-1.512-1.065-1.854-0.244c-1.09,2.618-3.197,2.26-5.094,0.629
			c-1.796-1.545-2.977-4.445-1.474-6.557c0.756-1.061,2.293-1.896,3.585-2.008c0.973-0.084,0.836,1.31,0.734,1.893
			c-0.46,2.653-2.934,5.143-5.509,5.729C671.352,433.842,671.732,435.209,672.934,434.935L672.934,434.935z"/>
	</g>
	<g>
		<path fill="#FF8900" d="M681.034,421.009c1.196,7.764,5.13,15.259,9,22c0.278,0.485,2.094,0.01,1.932-0.518
			c-0.113-0.325-0.197-0.659-0.25-1c-0.109-0.519-2.05-0.043-1.932,0.518c0.053,0.341,0.137,0.675,0.25,1
			c0.643-0.173,1.288-0.345,1.932-0.518c-3.869-6.741-7.804-14.236-9-22C682.889,419.99,680.944,420.424,681.034,421.009
			L681.034,421.009z"/>
	</g>
	<g>
		<path fill="#FF8900" d="M684.22,425.144c1.107-3.736,5.68-1.199,6.232,1.549c0.292,1.453-0.557,2.873-1.507,3.886
			c-0.435,0.464-0.943,0.847-1.474,1.194c-0.219,0.145-0.449,0.266-0.686,0.379c-0.108,0.052-0.22,0.098-0.333,0.139
			c-0.315,0.052-0.228,0.118,0.263,0.201c-0.339-0.726-2.234-0.131-1.932,0.518c0.631,1.352,3.146-0.102,3.911-0.569
			c1.879-1.15,3.813-3.256,3.737-5.599c-0.17-5.278-8.617-6.663-10.152-1.484C682.055,426.116,684.01,425.851,684.22,425.144
			L684.22,425.144z"/>
	</g>
	<g>
		<path fill="#FF8900" d="M693.038,421.388c-1.304,3.155,1.137,6.142,4.362,6.29c4.066,0.188,5.836-4.301,5.041-7.709
			c-0.656-2.812-3.566-4.258-6.267-3.665c-3.38,0.743-4.078,3.772-2.891,6.705c0.247,0.609,2.146,0.014,1.932-0.518
			c-0.629-1.554-1.266-4.687,1.006-5.304c1.914-0.52,3.691,1.47,4.219,3.054c0.631,1.898,0.183,6.878-2.724,6.387
			c-2.535-0.429-3.657-3.333-2.755-5.516C695.182,420.581,693.28,420.804,693.038,421.388L693.038,421.388z"/>
	</g>
	<g>
		<path fill="#FF8900" d="M701.534,413.009c0.096,2.111,0.904,4.113,1.666,6.06c0.446,1.142,0.925,2.271,1.385,3.407
			c0.32,0.791,0.534,2.322,1.264,2.802c0.483,0.316,1.642,0.083,1.863-0.499c0.126-0.332,0.031-0.689,0.004-1.037
			c-0.043-0.551-1.984-0.158-1.932,0.518c0.04,0.264,0.042,0.527,0.004,0.791c0.621-0.166,1.242-0.332,1.863-0.499
			c-0.579-0.38-0.89-1.977-1.135-2.593c-0.452-1.139-0.929-2.268-1.385-3.407c-0.775-1.934-1.571-3.957-1.666-6.06
			C703.441,411.954,701.503,412.325,701.534,413.009L701.534,413.009z"/>
	</g>
	<g>
		<path fill="#FF8900" d="M703.731,414.688c0.211-1.261,2.315-1.275,3.194-1.199c-0.214-0.16-0.428-0.319-0.642-0.48
			c0.694,2.43-0.922,3.685-2.685,5.014c0.434,0.318,0.867,0.637,1.301,0.955c1.453-1.165,4.329-2.832,5.979-1.109
			c2.194,2.292-0.995,8.512-3.89,5.803c-0.669-0.626-2.319,0.371-1.479,1.158c1.503,1.405,3.775,1.272,5.395,0.071
			c2.055-1.524,2.825-3.635,2.507-6.146c-0.648-5.108-7.392-2.671-9.813-0.731c-1.032,0.827,0.506,1.554,1.301,0.955
			c2.241-1.69,4.177-3.474,3.315-6.486c-0.079-0.276-0.365-0.456-0.642-0.48c-2.083-0.182-5.385,0.289-5.806,2.801
			C701.598,415.832,703.578,415.606,703.731,414.688L703.731,414.688z"/>
	</g>
	<g>
		<path fill="#FF8900" d="M712.788,411.637c-0.443,4.4,4.211,8.576,8.435,6.297c2.85-1.538,3.93-4.446,2.215-7.277
			c-1.376-2.271-4.053-4.081-6.766-4.03c-3.521,0.067-4.598,3.078-4.388,6.133c0.037,0.546,1.979,0.16,1.932-0.518
			c-0.102-1.492-0.061-4.846,2.193-4.598c1.911,0.211,3.656,1.631,4.792,3.099c1.216,1.57,1.658,3.695,0.442,5.386
			c-2.889,4.016-7.268-1.435-6.932-4.765C714.782,410.665,712.848,411.051,712.788,411.637L712.788,411.637z"/>
	</g>
	<g>
		<path fill="#FF8900" d="M717.034,545.759c3.645,7.716,6.266,16.036,11.076,23.148c0.439,0.649,2.298-0.046,1.779-0.813
			c-4.746-7.016-7.327-15.239-10.924-22.853C718.599,544.465,716.697,545.047,717.034,545.759L717.034,545.759z"/>
	</g>
	<g>
		<path fill="#FF8900" d="M719.466,544.491c-0.367-0.945,5.182-2.833,5.723-2.99c3.026-0.879,4.158,4.815,4.812,6.732
			c1.746,5.12,3.567,10.175,6.617,14.699c0.51,0.755,2.344-0.007,1.766-0.865c-2.771-4.11-4.618-8.714-6.138-13.404
			c-0.85-2.622-1.76-6.855-4.254-8.484c-2.039-1.331-11.494,2.161-10.457,4.83C717.884,545.909,719.807,545.367,719.466,544.491
			L719.466,544.491z"/>
	</g>
	<g>
		<path fill="#FF8900" d="M740.397,555.706c3.02-1.579,7.563-4.648,6.836-8.615c-0.261-1.419-1.907-1.445-2.997-1.213
			c-1.78,0.381-3.256,1.981-4.031,3.539c-1.438,2.887,0.159,6.251,3.056,7.393c3.215,1.267,6.054-0.863,6.96-3.915
			c0.227-0.77-1.729-0.505-1.941,0.209c-0.65,2.195-2.081,3.536-4.3,2.335c-1.797-0.973-2.623-3.068-2.258-5.015
			c0.231-1.231,1.066-2.342,2.055-3.072c1.487-1.1,1.672,0.61,1.503,1.752c-0.365,2.481-3.638,4.623-5.677,5.689
			C738.424,555.41,739.503,556.174,740.397,555.706L740.397,555.706z"/>
	</g>
	<g>
		<path fill="#FF8900" d="M748.034,541.009c3.934,7.032,6.964,14.523,11,21.5c0.216,0.373,2.027-0.136,1.932-0.518
			c-0.083-0.333-0.167-0.667-0.25-1c-0.095-0.381-2.031,0.121-1.932,0.518c0.083,0.333,0.167,0.667,0.25,1
			c0.643-0.173,1.288-0.345,1.932-0.518c-4.036-6.977-7.066-14.468-11-21.5C749.717,540.046,747.904,540.776,748.034,541.009
			L748.034,541.009z"/>
	</g>
	<g>
		<path fill="#FF8900" d="M751.885,544.716c0.777-1.137,1.679-2.001,3.115-1.642c1.251,0.313,2.345,1.242,3.041,2.305
			c0.63,0.962,0.922,2.154,0.619,3.277c-0.477,1.768-2.396,2.396-4,2.662c-0.834,0.139-1.669,1.086-0.32,0.863
			c2.22-0.368,4.698-1.103,5.94-3.136c0.904-1.479,0.331-3.297-0.588-4.601c-2.395-3.395-7.336-2.938-9.576,0.339
			C749.688,545.409,751.592,545.146,751.885,544.716L751.885,544.716z"/>
	</g>
	<g>
		<path fill="#FF8900" d="M760.105,540.748c-1.04,1.189-0.201,2.866,0.629,3.911c1.238,1.562,3.163,2.074,5.054,1.657
			c2.456-0.541,5.979-4.148,4.477-6.852c-2.011-3.618-11.602-3.026-8.98,2.045c0.324,0.627,2.192-0.014,1.932-0.518
			c-0.586-1.133-0.775-2.658,0.751-2.857c1.447-0.188,3.149,0.439,4.117,1.518c1.5,1.674-0.1,3.81-1.38,5.016
			c-1.375,1.295-2.833,0.672-4.007-0.557c-0.728-0.763-1.654-2.387-0.803-3.359c0.311-0.354-0.263-0.518-0.511-0.518
			C760.927,540.232,760.413,540.398,760.105,540.748L760.105,540.748z"/>
	</g>
	<g>
		<path fill="#FF8900" d="M768.784,531.759c1.409,3.713,2.46,7.885,4.823,11.137c0.433,0.595,2.295-0.089,1.785-0.791
			c-2.293-3.155-3.308-7.256-4.677-10.863C770.431,530.49,768.516,531.052,768.784,531.759L768.784,531.759z"/>
	</g>
	<g>
		<path fill="#FF8900" d="M769.91,533.81c0.744-1.292,2.248-2.317,3.556-1.074c1.493,1.419-0.804,3.412-1.833,4.161
			c0.469,0.189,0.938,0.378,1.406,0.567c1.793-1.491,4.664-2.191,5.682,0.538c1.111,2.975-2.566,3.547-4.613,3.383
			c-0.828-0.066-2.024,1.126-0.715,1.23c2.999,0.24,8.808-0.985,7.196-5.304c-1.525-4.087-6.738-2.264-9.128-0.275
			c-0.851,0.707,0.9,0.936,1.406,0.567c1.866-1.356,4.627-4.382,1.685-6.206c-2.298-1.425-5.278,0.237-6.463,2.293
			C767.592,534.555,769.549,534.437,769.91,533.81L769.91,533.81z"/>
	</g>
	<g>
		<path fill="#FF8900" d="M779.284,533.009c0.538,7.033,11.708,5.849,11.432-1.018c-0.276-6.869-12.195-6.669-12.432,0.268
			c-0.012,0.345,1.911,0.08,1.932-0.518c0.088-2.576,1.66-4.399,4.353-3.856c2.145,0.433,3.746,2.107,4.167,4.222
			c0.491,2.47-1.096,5.228-3.837,4.779c-2.223-0.363-3.519-2.268-3.683-4.396C781.185,532.088,779.241,532.446,779.284,533.009
			L779.284,533.009z"/>
	</g>
	<g>
		<path fill="#FF8900" d="M597.696,142.436c-0.372,2.972-1.076,5.821-2,8.667c-0.221,0.679,1.117,0.472,1.371,0.364
			c1.209-0.515,2.498-0.843,3.748-1.245c0.259-0.083,0.822-0.299,0.822-0.656c0-0.778,0-1.556,0-2.333
			c0-0.904-1.814-0.509-1.941,0.204c-0.535,2.985-0.076,6.027-0.667,9c-0.166,0.833,1.795,0.534,1.941-0.204
			c0.591-2.974,0.133-6.015,0.667-9c-0.647,0.068-1.294,0.136-1.941,0.204c0,0.778,0,1.556,0,2.333
			c0.274-0.219,0.548-0.438,0.822-0.656c-1.42,0.457-2.877,0.837-4.251,1.421c0.457,0.121,0.914,0.243,1.371,0.364
			c0.924-2.846,1.629-5.695,2-8.667C599.746,141.368,597.789,141.696,597.696,142.436L597.696,142.436z"/>
	</g>
	<g>
		<path fill="#FF8900" d="M603.699,141.447c0,5,0,10,0,15c0,0.844,1.936,0.441,1.936-0.228c0-5,0-10,0-15
			C605.635,140.376,603.699,140.778,603.699,141.447L603.699,141.447z"/>
	</g>
	<g>
		<path fill="#FF8900" d="M607.706,147.805c-0.434,2.415-0.345,4.902-0.667,7.333c0.642-0.132,1.284-0.264,1.927-0.396
			c-0.239-1.826,0.207-3.561,1.797-4.627c0.836-0.561-0.935-0.619-1.348-0.346c-1.179,0.78-2.324,1.817-1.771,3.35
			c0.523,1.444,2.386,2.138,3.752,2.362c0.54,0.089,2.267-0.786,1.207-0.96c-2.105-0.346-4.638-2.555-2.018-4.288
			c-0.449-0.115-0.899-0.23-1.348-0.346c-1.838,1.232-2.483,3.232-2.203,5.373c0.074,0.568,1.86,0.108,1.927-0.396
			c0.322-2.432,0.234-4.918,0.667-7.333C609.746,146.873,607.811,147.215,607.706,147.805L607.706,147.805z"/>
	</g>
	<g>
		<path fill="#FF8900" d="M614.902,143.642c-2.308-2.788,2.085-1.582,3.337-0.567c1.644,1.332,2.131,3.901,1.319,5.758
			c-1.261,2.882-5.351,4.005-5.853,7.309c-0.062,0.405,0.571,0.348,0.81,0.322c1.408-0.155,2.852,0.359,4.213,0.676
			c0.528,0.123,2.262-0.7,1.211-0.944c-1.8-0.419-3.273-0.862-5.121-0.658c0.27,0.107,0.539,0.215,0.81,0.322
			c0.375-2.47,3.202-3.987,4.774-5.718c2.046-2.253,1.747-4.739,0.167-7.165c-1.932-2.967-10.899-2.757-7.472,1.383
			C613.471,144.809,615.318,144.145,614.902,143.642L614.902,143.642z"/>
	</g>
	<g>
		<path fill="#FF8900" d="M627.304,151.227c0.313-0.874,0.698-1.654-0.345-2.165c-0.864-0.423-1.971-0.474-2.779,0.089
			c-1.14,0.794-1.25,2.466-1.198,3.722c0.059,1.412,0.597,3.044,1.956,3.695c2.009,0.962,4.324-0.498,5.848-1.705
			c0.342-0.271,0.171-0.666-0.204-0.76c-0.487-0.122-0.988,0.067-1.366,0.366c-0.827,0.656-2.012,1.602-3.07,0.935
			c-0.785-0.495-1.057-1.64-1.18-2.486c-0.127-0.876-0.09-1.919,0.266-2.743c0.063-0.146,0.147-0.282,0.24-0.411
			c0.028-0.039-0.81,0.114-0.373,0.199c0.996,0.192,0.51,0.797,0.267,1.477C625.105,152.164,627.056,151.921,627.304,151.227
			L627.304,151.227z"/>
	</g>
	<g>
		<path fill="#FF8900" d="M637.975,145.58c-0.014-1.579-0.213-3.039-1.803-3.75c-0.898-0.402-1.869-0.482-2.69,0.142
			c-1.698,1.292-0.148,5.006,0.338,6.558c0.716,2.288,1.071,4.986,0.556,7.345c-0.258,0.481-0.063,0.462,0.583-0.058
			c-0.315-0.283-0.543-0.694-0.769-1.044c-0.91-1.404-0.766-2.708,0.005-4.123c1.058-1.945,2.967-3.293,4.056-5.231
			c0.513-0.911-1.449-0.852-1.832-0.169c-1.72,3.058-6.226,5.642-4.384,9.677c0.69,1.513,3.357,3.826,4.215,1.025
			c0.682-2.229,0.277-5.162-0.321-7.373c-0.291-1.073-0.656-2.118-0.909-3.202c-0.171-0.732-0.292-1.481-0.252-2.233
			c0.021-0.408-0.354-0.703,0.767,0.32c0.526,0.479,0.486,1.678,0.492,2.291C636.033,146.715,637.981,146.376,637.975,145.58
			L637.975,145.58z"/>
	</g>
</g>
<g id="Layer_3">
</g>
</svg>
