<?xml version="1.0" encoding="utf-8"?>
<!-- Generator: Adobe Illustrator 18.0.0, SVG Export Plug-In . SVG Version: 6.00 Build 0)  -->
<!DOCTYPE svg PUBLIC "-//W3C//DTD SVG 1.1 Basic//EN" "http://www.w3.org/Graphics/SVG/1.1/DTD/svg11-basic.dtd">
<svg version="1.1" baseProfile="basic" xmlns="http://www.w3.org/2000/svg" xmlns:xlink="http://www.w3.org/1999/xlink" x="0px"
	 y="0px" viewBox="0 0 1200 700" xml:space="preserve">
<g id="Layer_1" display="none">
</g>
<g id="Layer_4" display="none">
</g>
<g id="Layer_3">
	<g>
		<path fill="#FF8900" d="M444.375,300.803c11.387-2.696,25.794-5.047,38.435-7.029c7.149-1.121,11.226-1.409,17.429-2.827
			c2.104-0.481,4.201-0.969,6.295-1.484c3.22-0.793-0.81,0.116-1.376,0.201c-2.077,0.309,0.1,0.491,1.02,2.02
			c2.217,3.686-0.199,9.386-1.67,12.842c-1.828,4.292-4.535,8.017-7.437,11.63c-5.937,7.391-13.707,13.535-21.635,18.657
			c-18.116,11.706-35.72,18.197-55.558,24.609c-0.847,0.274-7.132,2.228-4.048,1.289c-2.534,0.771-5.076,1.516-7.621,2.252
			c-2.43,0.703-4.866,1.384-7.304,2.059c-1.169,0.323-2.339,0.641-3.51,0.959c-0.185,0.05-4.313,1.017-2.137,0.56
			c-5.265,1.105-11.163,1.476-16.949,2.219c-8.974,1.153-17.673,3.067-26.301,5.789c-1.444,0.455-14.975,7.011-7.171,7.875
			c26.457,2.93,53.278-10.664,72.567-27.792c8.265-7.339,15.866-15.767,21.558-25.257c6.495-10.827,10.434-23.001,15.803-34.383
			c-9.577,2.207-19.153,4.414-28.729,6.621c5.94,17.727-5.233,36.122-17.094,48.63c-6.801,7.173-14.629,13.374-23.166,18.212
			c-1.022,0.579-2.066,1.12-3.108,1.661c2.103-1.09-1.249,0.545-1.371,0.6c-0.503,0.228-4.016,1.629-0.761,0.38
			c-1.008,0.387-2.033,0.727-3.059,1.065c4.016-1.326,0.637-0.242-0.198-0.029c5.978-1.521-2.729,0.292,2.574-0.502
			c-0.499,0.074-3.695,0.318-0.667,0.151c-1.2,0.066-2.402,0.025-3.601-0.037c-6.353,3.612-12.705,7.226-19.058,10.838
			c22.491-0.099,44.749-3.534,66.238-10.157c17.647-5.439,33.381-14.043,49.312-23.14c13.035-7.444,26.019-15.228,37.711-24.687
			c9.665-7.818,20.405-18.259,21.111-31.458c-9.659,2.588-19.318,5.176-28.978,7.765c4.168,9.33,0.902,18.594-5.458,25.229
			c-1.926,2.009-4.054,3.82-6.229,5.55c-1.165,0.927-2.371,1.801-3.582,2.665c-0.071,0.051-2.566,1.736-1.003,0.706
			c-0.792,0.522-1.597,1.024-2.402,1.526c-2.788,1.741-5.664,3.341-8.565,4.886c-0.599,0.319-5.068,2.562-2.705,1.402
			c-1.874,0.92-3.769,1.797-5.669,2.663c-3.211,1.463-6.463,2.836-9.729,4.171c-0.656,0.267-1.312,0.531-1.97,0.793
			c-3.359,1.347,2.78-1.063-0.591,0.237c-1.965,0.758-3.941,1.489-5.919,2.214c-6.59,2.412-13.254,4.624-19.948,6.729
			c-0.594,0.186-1.189,0.371-1.784,0.556c-3.207,0.996,3.492-1.06,0.335-0.102c-1.387,0.422-2.777,0.835-4.167,1.247
			c-2.765,0.818-5.538,1.613-8.313,2.398c-3.859,1.092-7.731,2.141-11.593,3.225c-4.08,1.145-8.649,2.503-12.009,5.225
			c-2.061,1.67-1.744,3.471,1.022,3.817c37.135,4.655,72.464-13.975,101.479-35.169c19.255-14.065,48.169-30.058,46.285-57.662
			c-9.659,2.588-19.318,5.176-28.978,7.765c2.461,25.343-16.42,43.68-36.329,54.767c-1.349,0.751-2.719,1.464-4.09,2.173
			c-1.265,0.641-1.384,0.702-0.355,0.181c-0.701,0.34-1.405,0.675-2.111,1.004c-3.185,1.501-6.43,2.872-9.697,4.183
			c3.087-1.239-1.577,0.58-2.119,0.78c-1.46,0.537-2.931,1.046-4.403,1.55c-1.461,0.501-2.932,0.975-4.404,1.444
			c-1.639,0.512-1.465,0.461,0.522-0.153c-1.09,0.329-2.185,0.642-3.279,0.955c-2.856,0.815-5.733,1.555-8.619,2.258
			c-1.654,0.393-1.413,0.34,0.722-0.156c-0.694,0.157-1.39,0.311-2.085,0.461c-1.699,0.371-3.404,0.71-5.111,1.041
			c-1.319,0.255-2.643,0.488-3.966,0.718c-0.645,0.109-1.291,0.217-1.937,0.32c3.773-0.615,0.526-0.084-0.208,0.021
			c-2.629,0.373-5.27,0.667-7.915,0.907c2.6,0.829,5.202,1.657,7.803,2.486c8.987-11.847,21.895-19.912,31.216-31.511
			c8.145-10.136,10.113-25.073,20.757-33.152c6.327-4.802-8.747-3.468-10.147-3.235c-4.255,0.709-8.51,1.419-12.766,2.128
			c1.771,1.995,3.542,3.99,5.313,5.984c1.544-0.623,1.797-0.724,0.758-0.302c0.949-0.356,1.902-0.705,2.857-1.045
			c2.47-0.893,4.97-1.702,7.473-2.494c-1.238,0.383-0.954,0.306,0.852-0.232c1.584-0.462,3.177-0.888,4.771-1.314
			c2.897-0.775,4.247-1.084,5.845-1.435c8.923-1.96,16.947-3.181,26.395-3.249c-1.571-0.893-3.141-1.787-4.712-2.681
			c-3.704,7.482-8.919,13.372-15.412,18.553c-5.497,4.386-13.016,8.707-17.735,10.919c-13.179,6.176-30.026,11.741-38.484,24.429
			c-1.701,2.552,3.74,2.713,4.712,2.681c17.98-0.599,35.176-10.077,49.077-20.906c7.199-5.608,23.125-18.899,13.947-28.725
			c-6.882-7.37-21.471-3.307-29.283-0.71c-9.028,3-15.799,8.083-21.106,15.902c-8.166,12.028-11.296,26.538-18.765,38.851
			c-2.429,4.004,10.437,2.153,11.366,1.94c15.626-3.587,27.808-10.867,38.643-22.547c7.715-8.316,15.881-18.384,18.898-29.551
			c0.989-3.661-5.904-2.696-7.803-2.486c-6.394,0.707-14.332,2.508-19.46,6.668c-1.576,1.278-3.378,2.258-4.965,3.546
			c-3.68,2.986,0.875,3.992,3.493,3.975c7.076-0.046,14.237-2.317,20.491-5.49c3.176-1.612,5.785-1.853,9.967-2.99
			c6.771-1.84,13.533-3.968,19.884-6.981c1.644-0.78,10.426-5.735,3.812-6.566c-5.767-0.725-11.559-0.863-17.365-0.867
			c-1.567,2.678-3.133,5.355-4.7,8.033c5.472-1.829,10.919-3.774,16.126-6.273c0.816-0.392,9.043-4.139,5.514-6.055
			c-3.856-2.093-10.906-0.167-14.715,0.967c-6.198,1.845-12.233,3.96-17.75,7.399c-4.457,2.779-4.169,5.384,1.433,5.348
			c6.682-0.043,14.776-1.927,20.491-5.49c2.453-1.38,1.737-1.278-2.147,0.307c-3.067-1.696-6.134-3.392-9.201-5.087
			c-3.122,1.499-5.878,2.477-9.407,3.656c-2.904,0.97-7.671,2.512-9.412,5.352c-1.598,2.608,3.643,2.68,4.712,2.681
			c4.169,0.003,8.284,0.031,12.423,0.551c1.271-2.189,2.541-4.378,3.811-6.566c-3.737,1.773-6.848,2.357-12.229,3.856
			c-8.039,2.24-15.725,5.091-23.169,8.869c7.995-0.505,15.989-1.01,23.984-1.515c1.576-1.278,3.377-2.258,4.965-3.546
			c-9.087,1.394-18.175,2.788-27.263,4.182c-2.36,8.738-8.064,16.578-13.648,23.536c-3.183,3.967-6.693,7.612-10.496,10.986
			c-1.767,1.567-3.641,3.005-5.57,4.365c1.081-0.762-1.751,0.97-1.548,0.857c2.343-1.316,5.503-1.917,7.951-2.479
			c3.789,0.647,7.578,1.294,11.366,1.941c5.61-9.248,8.722-20.043,13.545-29.717c2.342-4.698,5.035-9.891,8.636-13.708
			c0.764-0.809,1.608-1.532,2.474-2.228c0.891-0.653,0.846-0.627-0.136,0.078c-4.698,2.848-10.646,4.338-16.105,3.826
			c1.266,0.119,3.385,1.322,4.854,2.682c6.123,5.665-5.93,16.465-9.53,19.601c-4.5,3.919-7.984,6.304-12.311,8.9
			c-1.033,0.62-2.087,1.206-3.143,1.785c-3.138,1.72,1.417-0.582-1.625,0.819c-3.393,1.561,2.193-0.749,0.12,0.009
			c-1.483,0.501-0.778,0.291,2.115-0.628c2.527-0.731,5.188-1.102,7.813-1.19c1.57,0.894,3.141,1.787,4.712,2.681
			c3.402-5.103,8.861-7.986,14.186-10.72c5.607-2.877,14.101-6.414,20.64-9.767c14.62-7.495,29.375-18.406,36.805-33.415
			c1.321-2.668-3.372-2.69-4.712-2.681c-28.735,0.205-57.844,7.632-84.383,18.298c-1.317,0.529-6.935,2.821-6.301,5.188
			c0.849,3.168,9.849,1.09,11.614,0.796c4.255-0.71,8.51-1.419,12.766-2.128c-3.383-1.079-6.765-2.157-10.147-3.235
			c-11.485,8.717-14.158,23.21-22.22,34.46c-8.956,12.497-22.865,20.499-32.19,32.792c-2.449,3.228,7.203,2.541,7.803,2.486
			c31.651-2.874,63.722-12.392,91.823-27.178c23.983-12.62,48.299-33.791,45.415-63.489c-0.426-4.391-29.451,0.834-28.978,7.765
			c1.553,22.763-19.842,35.371-35.823,47.164c-10.518,7.761-20.929,15.425-32.474,21.625c-2.569,1.38-5.237,2.551-7.92,3.688
			c1.502-0.636-3.542,1.277-2.898,1.053c-4.983,1.74,2.535-0.628-2.536,0.732c2.46-0.66-2.724,0.512-2.547,0.479
			c1.155-0.209-0.91,0.116-1.494,0.152c-3.06,0.186-6.061,0.031-9.096-0.349c-3.662,3.014-7.324,6.028-10.986,9.042
			c27.127-7.61,54.281-15.466,79.935-27.293c18.261-8.419,58.16-27.598,46.307-54.129c-1.742-3.9-12.905-0.595-15.502,0.1
			c-3.192,0.856-13.234,3.149-13.475,7.664c-0.572,10.695-9.522,19.289-17.185,25.76c-9.667,8.165-20.607,14.695-31.529,21.01
			c-10.869,6.283-21.962,13.223-33.461,17.352c-7.195,2.583-12.636,3.771-21.133,5.162c-7.226,1.183-15.416,1.523-23.028,1.557
			c-6.864,0.03-14.526,2.099-20.491,5.49c-0.921,0.523-3.972,2.151-3.527,3.81c0.456,1.702,3.883,1.482,4.96,1.537
			c13.965,0.728,28.482-3.742,41.145-9.254c12.047-5.245,23.213-12.73,32.875-21.606c15.036-13.814,31.722-36.217,24.465-57.874
			c-1.054-3.145-9.688-1.167-11.614-0.796c-4.317,0.831-14.899,2.718-17.115,7.417c-8.335,17.669-14.153,35.723-27.872,50.22
			c-5.768,6.095-12.254,11.854-19.274,16.473c-1.684,1.108-3.428,2.121-5.182,3.113c-0.575,0.325-4.718,2.233-3.207,1.652
			c-1.722,0.584-1.801,0.636-0.237,0.156c-1.748,0.462-1.802,0.477-0.164,0.046c2.708-0.541-0.55-0.12-1.512-0.227
			c-2.39,2.625-4.781,5.25-7.171,7.875c-2.862,0.902,3.003-0.463,3.769-0.568c3.443-0.476,6.904-0.826,10.355-1.232
			c8.397-0.989,16.631-2.532,24.791-4.748c11.521-3.129,22.972-6.553,34.296-10.332c24.199-8.075,48.051-18.159,69.14-32.663
			c9.01-6.196,17.242-13.702,23.798-22.476c4.267-5.71,12.869-20.198,5.338-26.4c-4.245-3.496-11.287-2.713-16.31-1.966
			c-4.172,0.62-8.236,1.513-12.336,2.509c-4.071,0.988,3.061-0.61-0.82,0.191c4.523-0.934-4.963,0.757-5.829,0.89
			c-15.479,2.376-30.958,4.779-46.262,8.126c-3.09,0.676-6.17,1.404-9.248,2.132c-2.055,0.487-14.51,3.804-13.476,7.664
			C429.928,304.841,442.305,301.293,444.375,300.803L444.375,300.803z"/>
	</g>
	<g>
		<path fill="#FF8900" d="M216.171,421.05c133.663-0.032,267.188-6.363,400.778-9.878c23.878-0.628,47.758-1.15,71.64-1.534
			c11.947-0.191,23.895-0.339,35.842-0.449c2.476-0.021,2.655-0.023,0.539-0.005c1.328-0.011,2.656-0.021,3.984-0.029
			c3.319-0.023,6.64-0.041,9.96-0.058c6.641-0.032,13.282-0.045,19.924-0.047c10.774-7.143,21.55-14.288,32.324-21.432
			c-67.46,0.021-134.893,1.924-202.298,4.521c-66.162,2.549-132.308,6.299-198.513,7.467c-36.215,0.64-72.442,0.92-108.625,2.724
			c-5.345,0.266-43.788,8.741-34.343,19.399c7.607,8.585,22.971,8.9,33.415,10.344c-6.468-0.894,2.293,0.344,3.975,0.563
			c1.932,0.251,3.869,0.468,5.805,0.685c3.857,0.433,7.724,0.771,11.592,1.087c8.29,0.678,16.602,1.08,24.912,1.426
			c33.639,1.399,67.342,1.249,101,0.812c65.806-0.856,131.566-3.491,197.382-4.162c11.484-0.117,16.902-0.158,30.135-0.232
			c11.852-0.066,23.705-0.102,35.558-0.113c23.005-0.023,46.011,0.064,69.015,0.247c10.614,0.084,21.218-2.146,30.787-6.838
			c4.713-2.31,16.909-10.66,5.921-13.94c-20.074-5.994-41.383-5.537-62.109-5.357c-1.133,0.011-2.265,0.021-3.398,0.032
			c2.631-0.02,2.768-0.021,0.412-0.005c-2.381,0.016-4.763,0.01-7.144,0.01c-5.803,0-11.606,0-17.408,0c-11.036,0-22.072,0-33.108,0
			c-44.596,0-89.18-0.269-133.732,2.045c-10.955,0.568-25.495,4.229-33.551,12.229c-8.288,8.229,7.237,9.365,12.099,9.112
			c20.565-1.067,41.147-1.695,61.738-1.92c2.461-0.023,2.598-0.024,0.41-0.004c1.299-0.009,2.599-0.015,3.899-0.021
			c2.604-0.012,5.208-0.011,7.813-0.011c5.234,0,10.468,0,15.701,0c11.1,0,22.199,0,33.299,0c20.332,0,40.668,0.13,60.999-0.034
			c3.506-0.028,7.012-0.06,10.518-0.092c-5.241,0.049,2.261,0.001,3.179,0c4.639-0.003,9.275,0.089,13.91,0.281
			c10.723,0.446,15.196,0.817,25.382,3.858c12.236-6.926,24.472-13.852,36.708-20.778c-66.961-0.531-133.929-0.203-200.881,0.942
			c-32.903,0.563-65.78,1.646-98.674,2.525c-16.436,0.439-32.875,0.765-49.315,0.955c-1.969,0.023-3.938,0.041-5.907,0.06
			c4.377-0.041-2.113,0.012-2.436,0.014c-3.932,0.024-7.865,0.035-11.797,0.04c-8.504,0.011-17.007-0.037-25.511-0.128
			c-21.169-0.227-42.367-0.751-63.48-2.385c-5.165-0.399-10.318-0.925-15.462-1.531c-2.42-0.328-2.58-0.327-0.478,0.004
			c-1.81-0.273-3.621-0.543-5.433-0.807c-1.547-0.227-3.101-0.418-4.651-0.626c-1.858-0.262-1.662-0.228,0.589,0.098
			c-0.863-0.138-1.725-0.287-2.583-0.448c-1.711-0.311-3.397-0.726-5.075-1.18c-0.807-0.229-1.604-0.487-2.393-0.772
			c1.186,0.588,1.12,0.552-0.2-0.108c-1.628-0.817-2.993-1.979-4.192-3.333c-11.448,6.467-22.895,12.934-34.343,19.399
			c32.893-1.639,65.825-2.033,98.75-2.559c33.031-0.525,66.016-1.697,99.02-3.092c66.271-2.8,132.541-5.754,198.851-7.501
			c17.232-0.454,34.466-0.814,51.701-1.079c19.728-0.303,30.512-0.385,50.242-0.391c12.182-0.004,25.207-2.682,35.517-9.517
			c2.139-1.418,6.66-4.566,5.76-7.929c-0.872-3.254-6.428-3.987-8.952-3.986c-133.795,0.032-267.451,6.354-401.173,9.878
			c-23.825,0.627-47.653,1.15-71.484,1.534c-11.912,0.191-23.825,0.339-35.738,0.449c-2.474,0.021-2.647,0.023-0.521,0.005
			c-1.324,0.011-2.647,0.021-3.971,0.029c-3.309,0.023-6.618,0.041-9.927,0.058c-6.618,0.032-13.236,0.045-19.854,0.047
			c-12.181,0.003-25.208,2.682-35.517,9.517c-2.139,1.418-6.661,4.566-5.76,7.929C208.091,420.317,213.647,421.051,216.171,421.05
			L216.171,421.05z"/>
	</g>
	<g>
		<path d="M567.001,302.393c-3.864,5.854-7.274,12.044-10.536,18.247c-3.865,7.35-8.155,15.373-9.424,23.679
			c-2.148,14.059,25.204,10.033,32.705,9.355c7.914-0.714,15.813-1.889,23.607-3.43c6.422-1.27,14.073-2.6,18.417-7.964
			c2.81-3.471,4.112-8.322,5.761-12.389c2.564-6.322,4.774-12.856,5.229-19.704c0.523-7.862-1.163-14.346-9.766-14.635
			c-9.096-0.307-18.258-0.198-27.362-0.281c-9.356-0.085-19.042,0.189-27.714,4.1c-3.71,1.673-0.248,3.013,2.167,1.924
			c13.034-5.879,29.871-2.803,43.78-2.863c3.471-0.015,8.549-1.039,11.17,1.812c3.055,3.325,2.05,11.532,1.452,15.336
			c-0.971,6.182-3.46,12.14-5.829,17.891c-1.633,3.962-2.912,8.994-6.886,11.278c-5.76,3.312-14.737,3.784-21.2,4.739
			c-8.723,1.289-17.562,2.21-26.388,2.001c-5.043-0.12-13.913-0.426-13.458-7.333c0.505-7.687,5.048-15.613,8.448-22.328
			c3.38-6.676,7.036-13.303,11.161-19.553C573.655,300.271,567.904,301.024,567.001,302.393L567.001,302.393z"/>
	</g>
	<g>
		<path d="M666.266,297.47c-4.488,10.238-10.201,19.866-13.238,30.706c-2.303,8.218-1.854,15.789,6.802,18.983
			c8.876,3.276,19.627,2.518,28.872,1.854c8.191-0.589,17.166-1.43,24.848-4.561c3.717-1.516,0.371-4.045-2.43-2.903
			c-6.344,2.586-13.903,3.06-20.647,3.647c-8.646,0.752-18.028,1.155-26.446-1.319c-8.707-2.56-6.561-11.783-4.472-18.655
			c2.915-9.595,8.177-18.222,12.181-27.356C672.979,295.025,667.157,295.435,666.266,297.47L666.266,297.47z"/>
	</g>
	<g>
		<path d="M670.938,297.998c13.947-6.903,31.476-3.665,46.459-3.587c3.282,0.017,4.472-4.134,0.539-4.154
			c-16.27-0.084-34.383-3.09-49.541,4.413C664.84,296.429,668.031,299.437,670.938,297.998L670.938,297.998z"/>
	</g>
</g>
<g id="Layer_2">
	<g>
		<path d="M232.615,405.006c0.552,10.794,6.304,19.178,15.191,25.05c10.697,7.068,23.415,8.047,35.824,9.239
			c31.886,3.062,64.003,2.015,95.96,0.939c65.887-2.218,131.837-3.254,197.742-4.912c61.413-1.545,122.841-2.783,184.276-2.497
			c3.41,0.016,4.361-4.491,0.443-4.51c-66.07-0.307-132.128,1.156-198.172,2.851c-65.817,1.689-131.65,2.962-197.456,5.002
			c-26.308,0.815-52.652,1.11-78.901-1.148c-11.127-0.957-22.31-1.717-32.434-6.787c-9.19-4.602-16.049-13.136-16.583-23.595
			C238.343,401.451,232.473,402.236,232.615,405.006L232.615,405.006z"/>
	</g>
	<g>
		<path d="M235.912,405.682c6.808,1.868,12.818,1.915,19.864,1.802c8.589-0.137,17.178-0.293,25.767-0.46
			c16.536-0.321,33.07-0.701,49.604-1.118c33.113-0.836,66.221-1.856,99.325-2.973c66.159-2.232,132.303-4.891,198.451-7.418
			c8.573-0.328,17.145-0.652,25.718-0.974c2.125-0.08,6.16-3.42,2.258-3.274c-132.271,4.968-264.528,10.725-396.883,12.911
			c-7.158,0.118-13.609,0.271-20.551-1.634C237.634,402.043,232.638,404.784,235.912,405.682L235.912,405.682z"/>
	</g>
	<g>
		<path d="M241.046,403.532c-5.299-6.498,5.746-17.205,9.777-21.607c6.748-7.37,13.718-14.794,21.095-21.518
			c19.156-17.463,42.371-29.118,66.607-37.801c59.437-21.293,121.873-32.685,184.382-40.265
			c90.418-10.964,181.534-19.96,272.692-20.029c3.346-0.003,4.417-4.341,0.488-4.338c-65.867,0.05-131.592,5.007-197.083,11.71
			c-63.311,6.481-126.827,13.106-188.893,27.646c-23.036,5.397-45.771,12.03-68.172,19.636
			c-18.255,6.198-35.959,13.848-52.263,24.202c-15.014,9.535-26.993,21.807-39.348,34.4c-5.959,6.073-22.409,20.945-14.581,30.546
			C237.454,408.205,242.955,405.874,241.046,403.532L241.046,403.532z"/>
	</g>
	<g>
		<path d="M521.185,279.158c3.803-3.815,7.116-8.004,11.059-11.683c4.082-3.809,8.609-7.114,13.276-10.162
			c9.369-6.119,19.771-10.567,30.092-14.79c3.797-1.553,0.228-2.589-2.091-1.641c-10.737,4.393-21.301,9.108-31.198,15.197
			c-10.417,6.408-17.917,14.804-26.431,23.345C514.498,280.824,520.121,280.226,521.185,279.158L521.185,279.158z"/>
	</g>
	<g>
		<path d="M535.979,264.088c17.392,7.405,36.762,3.434,53.321-4.272c17.061-7.939,32.74-20.721,43.331-36.318
			c1.699-2.502-4.21-2.356-5.49-0.471c-17.464,25.716-56.11,50.894-87.745,37.424C537.194,259.513,532.651,262.671,535.979,264.088
			L535.979,264.088z"/>
	</g>
	<g>
		<path d="M542.713,257.238c-5.615-22.243,15.313-33.766,33.426-39.327c18.639-5.722,38.789-8.006,58.255-8.044
			c1.973-0.004,6.236-3.004,2.332-2.996c-21.718,0.043-44.287,2.758-64.93,9.646c-18.818,6.279-40.724,19.116-34.879,42.273
			C537.373,260.597,543.177,259.073,542.713,257.238L542.713,257.238z"/>
	</g>
	<g>
		<path d="M262.292,368.488c34.704,13.567,73.489,16.883,110.381,13.48c37.644-3.472,76.202-14.736,106.256-38.407
			c9.378-7.386,17.672-16.12,24.493-25.914c3.48-4.996,6.484-10.32,9.1-15.814c1.31-2.751,2.458-5.574,3.533-8.422
			c0.991-2.626,1.98-10.011,4.972-11.083c3.86-1.383,0.258-2.677-2.139-1.818c-4.133,1.481-5.646,4.953-6.987,8.9
			c-1.663,4.895-3.392,9.649-5.618,14.326c-4.078,8.565-9.428,16.458-15.577,23.664c-12.372,14.5-28.402,25.413-45.526,33.543
			c-36.266,17.22-78.545,21.819-118.205,18.438c-20.454-1.745-40.843-5.915-59.991-13.4
			C265.502,365.4,260.212,367.676,262.292,368.488L262.292,368.488z"/>
	</g>
	<g>
		<path d="M331.489,381.95c25.744-2.64,51.392-10.402,72.642-25.513c21.728-15.449,35.319-38.61,37.874-65.157
			c0.088-0.92-5.62-0.275-5.796,1.553c-2.392,24.862-14.699,46.599-34.477,61.781c-19.359,14.861-43.737,22.389-67.773,24.854
			C332.382,379.629,327.669,382.342,331.489,381.95L331.489,381.95z"/>
	</g>
	<g>
		<path d="M162.15,446.397c46.375-0.06,92.634-4.195,139.007-4.255c2.447-0.003,6.061-3.722,2.14-3.717
			c-46.376,0.06-92.634,4.195-139.007,4.255C161.842,442.684,158.229,446.402,162.15,446.397L162.15,446.397z"/>
	</g>
	<g>
		<path d="M653.212,206.975c19.411-2.655,39.32-2.127,58.865-2.128c1.123,0,1.467-1.467,0.158-1.467
			c-19.546,0.001-39.455-0.527-58.865,2.128C652.286,205.656,651.902,207.154,653.212,206.975L653.212,206.975z"/>
	</g>
	<g>
		<path d="M648.952,225.399c10.657-0.08,21.259-1.338,31.915-1.418c1.111-0.009,1.477-1.446,0.166-1.437
			c-10.657,0.081-21.259,1.338-31.915,1.419C648.007,223.971,647.641,225.409,648.952,225.399L648.952,225.399z"/>
	</g>
	<g>
		<path d="M635.898,238.011c4.59-0.001,9.173-0.016,13.72-0.72c0.937-0.145,1.587-1.312,0.254-1.105
			c-4.386,0.68-8.803,0.697-13.232,0.698C635.897,236.883,634.592,238.011,635.898,238.011L635.898,238.011z"/>
	</g>
	<g>
		<path d="M166.971,461.461c133.058-0.03,265.992-6.376,399.023-7.991c86.386-1.049,172.854,0.565,259.133-4.774
			c1.702-0.105,6.285-2.878,2.428-2.639c-65.792,4.071-131.727,4.129-197.618,4.362c-66.403,0.235-132.767,1.66-199.144,3.444
			c-87.116,2.343-174.238,4.939-261.394,4.959C167.656,458.822,163.094,461.462,166.971,461.461L166.971,461.461z"/>
	</g>
	<g>
		<path d="M764.961,291.146c34.044-0.013,68.084-0.695,102.128-0.709c0.669,0,2.076-1.015,0.773-1.015
			c-34.044,0.013-68.084,0.695-102.128,0.709C765.065,290.131,763.658,291.146,764.961,291.146L764.961,291.146z"/>
	</g>
	<g>
		<path d="M743.702,322.418c23.17-0.019,46.333-0.69,69.503-0.709c0.757,0,2.045-1.149,0.738-1.147
			c-23.17,0.019-46.334,0.69-69.503,0.709C743.684,321.271,742.396,322.419,743.702,322.418L743.702,322.418z"/>
	</g>
	<g>
		<path d="M705.683,391.326c33.333,0,66.667,0,100,0c1.09,0,1.494-1.375,0.182-1.375c-33.333,0-66.667,0-100,0
			C704.774,389.951,704.37,391.326,705.683,391.326L705.683,391.326z"/>
	</g>
</g>
</svg>
